<svg width="330" height="189" viewBox="0 0 330 189" fill="none" xmlns="http://www.w3.org/2000/svg">
<mask id="mask0_362_108" style="mask-type:alpha" maskUnits="userSpaceOnUse" x="0" y="0" width="330" height="189">
<rect width="330" height="188.571" fill="#D9D9D9"/>
</mask>
<g mask="url(#mask0_362_108)">
</g>
<g clip-path="url(#clip0_362_108)">
<path d="M104.788 127.347L138.548 98.3641L187.082 137.04L174.467 153.206L138.548 125.785L116.68 143.027L104.788 127.338V127.347Z" fill="#41A400"/>
<path d="M201.228 60.2701H220.65C220.145 63.8712 219.832 67.9583 219.701 72.5227C219.571 77.087 219.553 82.3108 219.64 88.1768L224.559 88.5586V103.137L200.845 103.64C200.505 97.0191 200.323 89.9557 200.279 82.4583C200.236 74.961 200.549 67.5592 201.228 60.2701ZM239.045 59.7668L260.103 58.7602C261.871 75.5251 261.557 91.2399 259.155 105.905C256.761 120.57 249.761 133.1 238.157 143.496L221.764 131.304C230.931 122.253 236.459 111.233 238.348 98.2426C240.237 85.2525 240.472 72.4359 239.045 59.7755V59.7668Z" fill="#41A400"/>
<path d="M330 115.424V136.163H279.36V115.424H330Z" fill="#41A400"/>
<path d="M0 82.4063C0 82.4063 12.7623 133.386 56.3856 143.487L69.9314 120.856C69.9314 120.856 31.7403 116.274 20.7627 70.414L0 82.4063Z" fill="#FF7F29"/>
<path d="M82.4151 74.5619C93.2762 74.5619 102.081 65.7856 102.081 54.9595C102.081 44.1334 93.2762 35.3571 82.4151 35.3571C71.554 35.3571 62.7494 44.1334 62.7494 54.9595C62.7494 65.7856 71.554 74.5619 82.4151 74.5619Z" fill="#FF7F29"/>
<path d="M100.192 96.6633C106.312 96.6633 111.274 91.7177 111.274 85.6169C111.274 79.5162 106.312 74.5705 100.192 74.5705C94.0714 74.5705 89.1097 79.5162 89.1097 85.6169C89.1097 91.7177 94.0714 96.6633 100.192 96.6633Z" fill="#FF7F29"/>
<path d="M168.199 94.5547H162.01C160.649 94.5547 159.546 95.6542 159.546 97.0104V110.261C159.546 111.617 160.649 112.717 162.01 112.717H168.199C169.56 112.717 170.663 111.617 170.663 110.261V97.0104C170.663 95.6542 169.56 94.5547 168.199 94.5547Z" fill="#41A400"/>
<path d="M182.407 94.5547H176.217C174.856 94.5547 173.753 95.6542 173.753 97.0104V110.261C173.753 111.617 174.856 112.717 176.217 112.717H182.407C183.767 112.717 184.87 111.617 184.87 110.261V97.0104C184.87 95.6542 183.767 94.5547 182.407 94.5547Z" fill="#41A400"/>
</g>
<defs>
<clipPath id="clip0_362_108">
<rect width="330" height="117.857" fill="white" transform="translate(0 35.3571)"/>
</clipPath>
</defs>
</svg>
