<svg width="72" height="72" viewBox="0 0 72 72" fill="none" xmlns="http://www.w3.org/2000/svg">
<path d="M51 24H48V18.33C48 15.1474 46.7357 12.0951 44.4853 9.84467C42.2348 7.59424 39.1826 6.32996 36 6.32996C32.8174 6.32996 29.7652 7.59424 27.5147 9.84467C25.2643 12.0951 24 15.1474 24 18.33V24H21C18.6131 24 16.3239 24.9482 14.636 26.636C12.9482 28.3238 12 30.613 12 33V57C12 59.3869 12.9482 61.6761 14.636 63.3639C16.3239 65.0517 18.6131 66 21 66H51C53.3869 66 55.6761 65.0517 57.364 63.3639C59.0518 61.6761 60 59.3869 60 57V33C60 30.613 59.0518 28.3238 57.364 26.636C55.6761 24.9482 53.3869 24 51 24ZM30 18.33C29.9596 16.6958 30.5683 15.1123 31.6928 13.9259C32.8174 12.7396 34.3661 12.0471 36 12C37.6339 12.0471 39.1826 12.7396 40.3072 13.9259C41.4317 15.1123 42.0404 16.6958 42 18.33V24H30V18.33ZM54 57C54 57.7956 53.6839 58.5587 53.1213 59.1213C52.5587 59.6839 51.7957 60 51 60H21C20.2044 60 19.4413 59.6839 18.8787 59.1213C18.3161 58.5587 18 57.7956 18 57V33C18 32.2043 18.3161 31.4412 18.8787 30.8786C19.4413 30.316 20.2044 30 21 30H51C51.7957 30 52.5587 30.316 53.1213 30.8786C53.6839 31.4412 54 32.2043 54 33V57Z" fill="white"/>
<path d="M36 36C34.22 36 32.4799 36.5278 30.9999 37.5168C29.5198 38.5057 28.3663 39.9113 27.6851 41.5558C27.0039 43.2004 26.8257 45.01 27.1729 46.7558C27.5202 48.5016 28.3774 50.1053 29.636 51.364C30.8947 52.6226 32.4983 53.4798 34.2442 53.8271C35.99 54.1743 37.7996 53.9961 39.4441 53.3149C41.0887 52.6337 42.4943 51.4802 43.4832 50.0001C44.4721 48.5201 45 46.78 45 45C45 42.6131 44.0518 40.3239 42.364 38.636C40.6761 36.9482 38.3869 36 36 36ZM36 48C35.4066 48 34.8266 47.8241 34.3333 47.4944C33.8399 47.1648 33.4554 46.6962 33.2284 46.1481C33.0013 45.5999 32.9419 44.9967 33.0576 44.4147C33.1734 43.8328 33.4591 43.2982 33.8787 42.8787C34.2982 42.4591 34.8328 42.1734 35.4147 42.0576C35.9967 41.9419 36.5999 42.0013 37.148 42.2284C37.6962 42.4554 38.1648 42.8399 38.4944 43.3333C38.824 43.8266 39 44.4067 39 45C39 45.7956 38.6839 46.5587 38.1213 47.1213C37.5587 47.6839 36.7956 48 36 48Z" fill="white"/>
</svg>
