<svg width="280" height="248" viewBox="0 0 280 248" fill="none" xmlns="http://www.w3.org/2000/svg">
<mask id="mask0_245_2138" style="mask-type:alpha" maskUnits="userSpaceOnUse" x="0" y="0" width="280" height="248">
<rect width="280" height="248" fill="#D9D9D9"/>
</mask>
<g mask="url(#mask0_245_2138)">
<g clip-path="url(#clip0_245_2138)">
<path d="M138.924 268.469L140.463 218.887C140.463 218.887 161.92 201.047 171.013 174.417C180.106 147.788 91.1177 96.9132 91.1177 96.9132L87.5973 106.996C87.5973 106.996 80.2701 95.9287 73.6947 99.072C67.1193 102.204 73.8976 123.068 73.4202 133.53C72.9429 143.992 68.432 178.284 73.6947 189.221C78.9574 200.157 82.812 208.923 82.812 208.923L78.3607 268.481H138.924V268.469Z" fill="white"/>
<path d="M188.15 73.5101L204.63 65.3137L207.577 68.7417L189.868 98.8111L185.87 98.3129L188.15 73.5101Z" fill="white"/>
<path d="M86.6666 109.154C86.8098 109.38 86.9052 109.676 86.9768 109.937C87.1081 110.424 87.1678 110.934 87.2274 111.432C87.2513 111.622 87.2752 111.859 87.2036 112.025C86.6188 113.27 86.8336 114.504 87.3706 115.655C87.7286 116.414 87.8122 117.09 87.5616 117.873C87.3826 118.43 87.2274 119.012 87.1439 119.593C87.0842 119.984 87.132 120.388 87.1558 120.791C87.2394 122.001 87.3826 123.211 87.4184 124.42C87.478 126.081 87.4422 127.742 87.5138 129.402C87.5496 130.268 87.6451 131.146 87.8718 131.976C88.0389 132.546 88.0986 133.008 87.9554 133.613C87.7764 134.361 87.9554 135.179 87.9196 135.962C87.8599 137.124 87.9673 138.227 88.7549 138.987C88.4805 139.651 88.0389 140.22 88.0747 140.766C88.1225 141.833 88.4327 142.901 88.6475 143.969C88.7191 144.336 89.0294 144.728 88.9578 145.036C88.6595 146.305 88.2537 147.527 88.5401 148.867C88.6117 149.211 88.4805 149.579 88.4924 149.935C88.5401 150.896 88.4924 151.88 88.6953 152.817C89.0652 154.537 89.1607 156.257 89.0533 158.001C88.9578 159.638 88.9936 161.239 90.0318 162.651C90.1631 162.817 90.1631 163.113 90.1512 163.339C90.1154 164.11 90.0438 164.869 89.996 165.628C89.9244 166.956 89.8528 168.285 90.5569 169.495C90.5808 169.53 90.5569 169.602 90.5569 169.649C90.5569 170.645 90.6166 171.642 90.5569 172.626C90.4614 173.907 91.1058 174.762 91.9889 175.544C92.3231 175.841 92.6214 176.197 92.9078 176.553C93.8386 177.727 94.9365 178.581 96.5595 178.545C96.9533 178.545 97.3948 178.64 97.7648 178.794C98.7791 179.233 99.698 179.886 100.891 179.779C102.323 179.648 103.767 179.554 105.211 179.506C105.557 179.494 105.939 179.672 106.261 179.838C106.93 180.182 107.574 180.336 108.35 180.135C108.851 179.992 109.412 180.087 109.937 180.04C111.918 179.886 114.09 181.084 115.808 179.091C116.5 179.945 117.372 180.277 118.338 180.064C119.806 179.732 121.107 180.514 122.503 180.574C123.159 180.609 123.804 180.669 124.448 180.692C124.902 180.716 125.379 180.609 125.797 180.716C126.692 180.93 127.527 180.823 128.386 180.55C128.768 180.431 129.222 180.503 129.639 180.55C130.296 180.609 130.976 180.847 131.596 180.752C133.076 180.514 134.508 180.633 135.952 180.906C136.895 181.084 137.85 181.167 138.637 180.574C139.616 179.826 140.785 179.933 141.704 180.206C143.279 180.669 144.831 180.479 146.382 180.503C148.148 180.526 149.914 180.348 151.681 180.23C152.063 180.206 152.444 180.123 152.802 179.993C154.079 179.542 155.32 180.253 156.585 180.111C156.621 180.111 156.681 180.159 156.717 180.182C158.101 181.392 159.7 181.06 161.287 180.799C161.812 180.716 162.337 180.621 162.874 180.538C163.686 180.408 164.533 180.384 165.297 180.111C166.156 179.791 166.633 180.147 167.147 180.704C167.147 180.716 167.135 180.728 167.123 180.74L169.808 180.692L171.299 181.024C171.657 180.977 172.111 180.918 172.564 180.847C174.712 180.526 176.861 180.206 179.02 179.874C179.116 179.862 179.211 179.803 179.307 179.755C180.536 179.162 181.789 178.605 182.982 177.964C183.412 177.727 183.866 177.335 184.056 176.908C184.355 176.244 184.45 175.485 184.629 174.761C184.677 174.856 184.737 174.999 184.832 175.141C184.916 175.26 184.987 175.39 185.059 175.521L193.198 161.192L191.229 115.738L189.259 99.8431L190.071 73.3796L190.417 69.9041C190.31 69.9753 190.214 70.0346 190.095 70.0939C189.88 69.0857 189.486 68.2672 189.606 67.5081C189.737 66.5829 189.725 65.6932 189.725 64.7799C189.725 63.0837 189.629 61.423 189.104 59.7861C188.949 59.2998 189.104 58.7304 189.057 58.2085C188.949 57.1172 188.806 56.026 188.687 54.9347C188.603 54.1993 188.376 53.4401 188.484 52.7284C188.734 51.1627 188.77 49.6207 188.412 48.0786C188.233 47.3195 187.995 46.5485 187.613 45.8842C187.207 45.1962 186.98 44.271 187.398 43.5831C187.923 42.7053 187.899 41.875 187.41 40.9616C187.207 40.582 187.219 40.0483 187.243 39.5975C187.267 38.9807 187.422 38.3639 187.458 37.7352C187.505 37.0235 187.469 36.3118 187.469 35.6001C187.469 34.7698 187.708 33.9158 187.171 33.121C187.028 32.9194 187.016 32.5635 187.064 32.3026C187.302 30.9859 187.279 29.7286 186.98 28.3764C186.658 26.9411 186.634 25.494 185.787 24.1655C185.321 23.43 184.808 22.8251 184.188 22.2439C183.388 21.4847 182.469 20.8205 182.29 19.5631C182.135 18.4719 181.264 17.8195 180.13 17.6534C179.975 17.6297 179.796 17.6178 179.701 17.5229C178.925 16.8587 178.042 16.6214 177.028 16.491C175.393 16.2774 173.782 15.7911 172.171 15.4471C171.49 15.3048 170.786 15.2573 170.13 15.0557C168.567 14.5575 167.003 14.4745 165.392 14.6998C164.688 14.7947 163.925 14.9252 163.256 14.771C162.481 14.5812 161.8 14.6049 161.072 14.8778C160.834 14.9608 160.535 14.9252 160.273 14.8778C159.795 14.8066 159.318 14.5694 158.853 14.6049C157.707 14.6761 156.561 14.9134 155.416 14.9727C154.664 15.0082 153.853 14.9845 153.16 14.7236C151.132 13.9526 149.008 14.2254 146.931 14.0119C146.621 13.9763 146.215 14.2017 145.941 14.4152C145.046 15.1387 144.127 15.0438 143.184 14.5931C142.337 14.1898 141.513 14.2017 140.63 14.5101C140.153 14.6761 139.58 14.6287 139.055 14.6405C138.411 14.6643 137.766 14.6405 137.122 14.6524C136.561 14.6524 135.976 14.7829 135.427 14.6998C133.828 14.4507 132.301 14.6998 130.785 15.198C130.475 15.3048 130.164 15.4827 129.854 15.4946C128.864 15.5183 127.897 15.6251 126.871 15.4353C126.119 15.2929 125.379 15.2573 124.687 14.8896C124.472 14.771 124.162 14.688 123.947 14.7473C122.706 15.1387 121.417 14.9727 120.164 15.1624C119.985 15.1862 119.794 15.2099 119.639 15.2929C118.577 15.9216 117.431 15.5895 116.333 15.542C114.52 15.4709 112.729 15.3404 111.441 16.9773C111.345 17.1078 111.083 17.1789 110.916 17.1552C110.2 17.0485 109.507 16.8705 108.791 16.7756C107.753 16.6333 106.703 16.5265 105.653 16.4316C104.865 16.3605 104.054 16.2656 103.278 16.3486C102.359 16.4554 101.142 16.4554 100.605 17.0129C99.3281 18.3295 97.6812 18.7565 96.1537 19.5157C94.6143 20.2867 93.1823 21.2356 92.2395 22.7539C91.9054 23.2996 91.5116 23.8096 91.2252 24.379C90.7598 25.3042 90.2228 26.2413 89.996 27.2376C89.7932 28.1391 89.5783 28.9695 89.1726 29.8235C88.6595 30.891 88.4447 32.0891 88.1105 33.2397C88.0747 33.3583 88.1463 33.5006 88.1344 33.6192C88.0628 34.58 88.015 35.5408 87.9196 36.5016C87.8599 37.154 87.6809 37.8064 87.657 38.4588C87.6093 39.645 87.6212 40.8311 87.657 42.0292C87.657 42.5155 87.7644 42.99 87.8241 43.4763C87.848 43.678 87.9554 43.9033 87.8838 44.0694C87.3706 45.3267 87.8122 46.5485 87.9673 47.7821C88.015 48.1617 87.9076 48.5531 87.848 48.9327C87.6809 50.0714 87.3468 51.222 87.3706 52.3607C87.3945 53.5232 87.7764 54.6619 87.5258 55.8718C87.3945 56.536 87.3945 57.2952 87.5854 57.9357C87.9912 59.2879 88.1105 60.5927 87.5735 61.9094C86.583 64.3054 86.8694 66.7252 87.478 69.145C87.7883 70.3549 87.6212 71.5411 87.2632 72.6916C86.9649 73.688 86.9052 74.6014 87.4303 75.5147C87.5138 75.6689 87.5377 75.8824 87.5377 76.0722C87.478 77.6143 86.5711 79.1444 87.49 80.7102C87.5138 80.7457 87.5138 80.8288 87.49 80.8643C86.8575 81.7303 87.0723 82.7504 86.9888 83.6993C86.941 84.2449 86.9172 84.9092 87.1916 85.3243C87.8838 86.3445 87.5258 87.2934 87.2274 88.266C86.9291 89.2506 86.8456 90.1876 87.5258 91.0417C87.8599 91.4568 87.836 91.789 87.5258 92.216C87.0246 92.9277 86.8575 93.6987 87.2394 94.5527C87.3229 94.7544 87.3229 95.0035 87.299 95.2289C87.2274 96.0355 87.0604 96.8539 87.0365 97.6605C86.9888 99.1195 87.0246 100.578 87.0246 102.168C86.8217 102.132 86.6308 102.073 86.4637 102.002C86.6069 103.959 86.8098 107.15 86.7024 109.166L86.6666 109.154Z" fill="#C8D0D2"/>
<path d="M171.657 39.6687C171.598 40.5346 171.478 41.2937 171.502 42.0648C171.526 42.9069 171.741 43.7372 171.741 44.5676C171.741 45.3504 171.705 46.1808 171.455 46.9043C171.168 47.7228 171.12 48.4463 171.55 49.1936C171.884 49.7748 172.027 50.3323 171.836 51.0322C171.717 51.4711 171.944 51.993 171.932 52.4793C171.908 53.5943 171.813 54.7093 171.813 55.8243C171.813 56.4293 171.956 57.0461 171.992 57.651C172.015 57.9831 171.944 58.3271 171.908 58.6593C171.86 59.1456 171.777 59.6438 171.765 60.1301C171.741 60.913 171.765 61.684 171.753 62.4669C171.753 62.4906 171.729 62.5143 171.729 62.538C171.646 64.0207 171.562 65.5034 171.49 66.9743C171.467 67.4132 171.407 67.8402 171.419 68.2791C171.431 68.9077 171.49 69.5364 171.526 70.177C171.538 70.4735 171.574 70.77 171.562 71.0666C171.562 71.2682 171.49 71.4699 171.502 71.6715C171.538 72.7628 171.622 73.8541 171.634 74.9335C171.634 75.3961 171.562 75.8587 171.478 76.3094C171.288 77.3533 171.037 78.3971 170.87 79.4528C170.798 79.8917 170.87 80.3543 170.894 80.7932C170.977 82.0624 170.977 83.3434 171.204 84.577C171.478 86.0716 170.941 87.4713 170.894 88.9066C170.846 90.757 171.24 92.6193 170.87 94.4697C170.822 94.6832 170.87 94.9442 170.953 95.1458C171.252 95.8101 171.144 96.415 170.953 97.0911C170.798 97.6012 170.774 98.218 170.906 98.7399C171.24 100.14 171.204 101.527 171.061 102.939C170.965 103.876 171.168 104.801 171.383 105.738C171.657 106.913 171.455 108.194 171.49 109.427C171.538 111.076 171.311 112.725 171.705 114.374C171.944 115.37 171.825 116.449 171.825 117.493C171.825 118.952 171.801 120.399 172.338 121.799C172.493 122.202 172.529 122.772 172.373 123.151C171.956 124.171 172.23 125.073 172.624 125.974C172.827 126.449 172.839 126.817 172.576 127.338C172.314 127.848 172.159 128.608 172.35 129.106C172.708 130.043 172.35 130.873 172.35 131.739C172.35 132.629 172.409 133.53 172.481 134.42C172.552 135.464 172.66 136.508 172.755 137.551C172.827 138.31 172.899 139.07 172.505 139.781C172.421 139.947 172.385 140.232 172.481 140.386C172.97 141.228 172.684 141.999 172.445 142.842C172.278 143.423 172.385 144.099 172.421 144.728C172.445 145.084 172.708 145.463 172.624 145.771C172.194 147.385 172.97 149.022 172.421 150.635C172.242 151.169 172.35 151.857 172.469 152.438C172.588 153.007 172.636 153.47 172.266 153.956C171.538 154.917 171.789 156.091 171.693 157.159C171.55 158.807 170.822 159.839 169.283 160.373C168.519 160.634 167.839 161.144 167.087 161.441C166.24 161.773 165.452 162.366 164.414 161.82C163.399 161.287 162.266 161.37 161.156 161.642C160.81 161.725 160.44 161.797 160.094 161.785C158.805 161.749 157.624 162.129 156.418 162.532C155.917 162.698 155.273 162.603 154.712 162.485C152.922 162.117 151.168 161.31 149.306 162.2C149.127 162.283 148.852 162.188 148.626 162.188C147.086 162.212 145.559 162.224 144.019 162.271C143.816 162.271 143.602 162.354 143.435 162.461C142.802 162.864 142.229 162.734 141.621 162.378C140.618 161.785 139.675 161.903 138.625 162.461C138.076 162.746 137.253 162.615 136.573 162.508C135.69 162.378 134.83 162.069 133.959 161.88C133.589 161.797 133.112 161.69 132.814 161.844C131.668 162.449 130.475 161.963 129.317 162.117C129.293 162.117 129.257 162.117 129.246 162.117C128.124 161.453 126.918 161.441 125.677 161.583C125.152 161.642 124.615 161.607 124.078 161.619C123.875 161.619 123.661 161.642 123.458 161.654C122.336 161.702 121.214 161.749 120.092 161.785C119.902 161.785 119.699 161.725 119.496 161.678C119.03 161.571 118.565 161.381 118.1 161.358C117.133 161.31 116.142 161.239 115.188 161.381C114.352 161.512 113.541 161.714 112.682 161.512C112.252 161.405 111.823 161.346 111.381 161.31C111.059 161.275 110.677 161.204 110.402 161.334C108.803 162.069 107.813 160.871 106.655 160.207C106.5 160.112 106.464 159.756 106.452 159.507C106.381 157.93 106.405 156.34 106.273 154.775C106.13 153.066 105.892 151.37 105.665 149.662C105.534 148.701 105.307 147.741 105.223 146.78C105.152 145.866 105.247 144.941 105.199 144.028C105.104 142.225 105.199 140.41 104.519 138.666C104.34 138.192 104.543 137.516 104.722 136.982C105.104 135.831 105.534 134.705 105.283 133.459C105.259 133.305 105.211 133.139 105.259 133.008C105.796 131.561 105.355 130.197 104.997 128.797C104.853 128.24 105.187 127.564 105.259 126.935C105.462 125.215 106.178 123.555 105.45 121.74C105.152 120.992 105.39 120.032 105.366 119.166C105.331 118.086 105.271 117.007 105.247 115.927C105.247 115.714 105.331 115.477 105.438 115.275C105.999 114.219 106.071 113.199 105.39 112.144C105.247 111.918 105.355 111.527 105.355 111.207C105.355 110.578 105.498 109.902 105.295 109.344C104.997 108.502 105.199 107.85 105.617 107.185C106.071 106.45 106.345 105.703 106.178 104.789C106.071 104.184 106.345 103.449 106.082 102.963C105.414 101.682 106.118 100.531 106.214 99.333C106.309 98.2061 106.476 97.0793 105.963 95.9998C105.88 95.8219 105.88 95.5372 105.963 95.3593C106.381 94.4934 106.321 93.6275 106.142 92.726C106.059 92.3465 106.106 91.872 106.261 91.5043C106.703 90.4367 106.608 89.4759 105.963 88.5151C105.784 88.2542 105.748 87.8034 105.808 87.4713C106.047 85.9649 106.536 84.5296 106.345 82.9283C106.166 81.4337 106.393 79.9035 106.417 78.3852C106.417 78.1124 106.417 77.7922 106.285 77.5668C105.474 76.0722 105.629 74.4472 105.701 72.8577C105.748 71.6715 106.023 70.4854 106.106 69.2873C106.178 68.2791 106.023 67.2471 106.106 66.2389C106.261 64.4359 105.713 62.6448 106.214 60.8181C106.476 59.8454 106.13 58.7304 106.166 57.6866C106.202 56.6309 106.381 55.5752 106.512 54.5195C106.572 54.0451 106.763 53.5706 106.751 53.0961C106.751 51.7202 106.679 50.3442 106.643 48.9683C106.643 48.8259 106.703 48.6599 106.763 48.5294C107.061 47.7821 106.977 47.0704 106.798 46.2875C106.608 45.5046 106.524 44.6625 106.942 43.8796C106.978 43.8084 107.037 43.7372 107.037 43.6661C106.894 42.4918 107.467 41.4835 107.849 40.4397C107.956 40.155 108.04 39.8703 108.171 39.5975C108.469 38.9689 108.791 38.3639 108.553 37.6048C108.493 37.4031 108.696 37.1066 108.815 36.8693C109.114 36.2525 109.412 35.6476 109.734 35.0426C109.889 34.758 110.032 34.4614 110.259 34.236C110.653 33.8446 111.071 33.465 111.524 33.1448C111.727 33.0024 112.037 33.0024 112.3 32.9313C112.777 32.7889 113.278 32.6822 113.732 32.4805C114.293 32.2314 114.806 31.8874 115.355 31.6383C115.498 31.5672 115.773 31.6146 115.904 31.7214C117.312 32.8482 118.875 32.6584 120.474 32.2907C120.999 32.1721 121.525 32.1009 122.05 32.006C122.551 31.9111 123.04 31.7807 123.541 31.6858C123.756 31.6383 123.983 31.6146 124.21 31.6265C124.949 31.6858 125.689 31.7688 126.429 31.8637C127.265 31.9586 128.1 32.1365 128.935 32.1484C129.46 32.1484 129.985 31.9349 130.499 31.8044C131 31.6739 131.501 31.5316 132.002 31.4011C132.145 31.3655 132.324 31.4248 132.468 31.3892C134.055 31.0097 135.511 31.4723 137.014 31.923C138.673 32.4212 140.38 32.7889 142.182 32.3738C143.005 32.184 143.924 32.4568 144.795 32.4686C145.177 32.4686 145.547 32.3144 145.929 32.2907C146.43 32.267 146.979 32.184 147.432 32.3382C148.459 32.6822 149.389 32.6584 150.332 32.1128C151.239 31.5909 152.122 31.496 153.065 32.1721C154.008 32.8482 155.106 32.7652 156.192 32.4568C156.573 32.35 157.003 32.3382 157.409 32.3382C158.698 32.3144 159.939 32.184 161.156 31.5909C161.693 31.3299 162.552 31.4604 163.161 31.6976C164.366 32.1721 165.583 32.3856 166.872 32.3263C167.839 32.2789 168.674 32.3738 169.092 33.5006C169.271 33.9751 169.844 34.3191 170.249 34.6986C171.12 35.4934 171.383 36.5491 171.49 37.6522C171.562 38.3402 171.634 39.0282 171.693 39.6331L171.657 39.6687Z" fill="#CFFCB2"/>
<path d="M76.2008 266.844C76.3918 266.263 76.6304 265.693 76.7617 265.1C76.881 264.566 76.881 264.021 76.9168 263.475C76.9646 262.692 76.9884 261.909 77.0481 261.126C77.0839 260.699 77.1675 260.272 77.2033 259.845C77.2271 259.644 77.1555 259.43 77.1794 259.229C77.2868 257.936 77.3226 256.619 77.5613 255.338C77.6806 254.674 78.2057 254.092 78.5159 253.464C78.6353 253.238 78.8024 252.942 78.7427 252.74C78.3369 251.471 78.4801 250.214 78.683 248.933C78.7785 248.351 78.683 247.616 78.4085 247.106C77.6448 245.694 77.5971 244.39 78.4801 243.025C78.6591 242.753 78.6233 242.314 78.6472 241.958C78.6472 241.78 78.5279 241.602 78.5517 241.436C78.8024 239.574 78.6591 237.676 79.3036 235.861C79.399 235.6 79.3155 235.185 79.1484 234.96C78.2892 233.785 78.2534 232.587 78.6711 231.223C78.9575 230.286 78.9456 229.254 79.0052 228.27C79.1126 226.644 78.9098 224.936 79.3394 223.394C79.8644 221.508 79.9122 219.694 79.7451 217.796C79.6258 216.396 79.8286 215.02 80.5447 213.763C80.6759 213.525 80.7475 213.122 80.6401 212.909C80.1628 211.96 80.1628 210.963 80.2582 209.955C80.306 209.421 80.1866 209.077 79.7212 208.721C79.2558 208.354 78.9336 207.796 78.5995 207.286C77.7641 206.005 77.0243 204.641 76.1054 203.419C75.4729 202.589 75.091 201.794 75.1029 200.75C75.1029 200.383 74.9001 199.92 74.6375 199.647C73.8977 198.888 73.5277 198.058 73.659 197.002C73.6828 196.777 73.6351 196.54 73.5874 196.326C73.3964 195.567 73.1936 194.808 72.9668 194.06C72.8833 193.811 72.7162 193.574 72.5611 193.349C72.3105 192.993 71.9286 192.696 71.7854 192.305C71.0097 190.205 70.2818 188.082 70.246 185.793C70.246 185.413 70.067 184.998 69.8402 184.678C69.2913 183.895 69.0407 183.041 69.2436 182.116C69.4106 181.345 69.2436 180.68 68.8378 180.064C68.0025 178.806 67.6922 177.466 67.8831 175.948C67.9667 175.331 67.6803 174.655 67.549 174.014C67.5132 173.813 67.3581 173.635 67.3461 173.433C67.2387 171.642 66.821 169.898 67.1791 168.06C67.4893 166.482 67.4177 164.833 67.6445 163.244C67.7519 162.461 68.1695 161.714 68.3963 160.943C68.5156 160.563 68.6827 160.112 68.5991 159.756C68.3843 158.902 68.4082 158.12 68.6827 157.265C69.0884 156.044 69.3271 154.775 69.6493 153.529C69.9476 152.39 70.2818 151.263 70.5205 150.113C70.5921 149.745 70.5085 149.294 70.3534 148.939C70.0073 148.144 70.0431 147.361 70.1744 146.519C70.3295 145.511 70.3414 144.479 70.413 143.47C70.413 143.316 70.3176 143.15 70.3653 143.02C71.0217 141.015 70.1147 139.082 70.1266 137.101C70.1266 136.377 70.234 135.665 70.2698 134.942C70.2818 134.693 70.3295 134.408 70.246 134.183C69.7448 132.842 69.9954 131.49 70.1624 130.126C70.1863 129.901 70.2937 129.64 70.2221 129.45C69.5538 127.754 69.9834 125.974 69.8044 124.254C69.6851 123.104 69.3748 121.977 69.16 120.838C69.1123 120.613 69.0168 120.364 69.0646 120.15C69.5061 117.932 68.5872 115.785 68.7065 113.579C68.7304 113.104 68.6111 112.606 68.5037 112.132C68.2411 111.088 68.3843 110.151 69.0884 109.297C69.2316 109.131 69.2436 108.751 69.1481 108.526C68.8975 107.885 68.5395 107.268 68.2531 106.64C67.8593 105.786 67.9428 104.955 68.3485 104.101C68.5037 103.781 68.5275 103.319 68.4321 102.963C68.086 101.705 68.1815 100.578 69.16 99.6058C69.4226 99.3448 69.5658 98.9534 69.8164 98.6806C70.5801 97.8621 71.2723 96.9488 72.1673 96.2964C72.9788 95.7033 74.017 95.8101 74.9001 96.3438C75.3655 96.6285 75.7235 96.6167 76.2008 96.4269C77.3345 95.988 78.4205 96.0354 79.4348 96.8183C79.6974 97.02 80.0792 97.1267 80.4253 97.1623C81.9289 97.3284 82.9433 98.0638 83.7429 99.3923C84.3873 100.472 84.8885 101.741 86.237 102.334C86.6904 102.536 86.9649 103.164 87.2871 103.627C87.9554 104.588 88.6595 105.537 89.2204 106.557C89.6977 107.423 89.471 108.289 88.8266 108.799C88.1463 109.332 87.3349 109.309 86.5711 108.597C86.0222 108.087 85.6403 107.411 85.1749 106.806C85.0317 106.628 84.9243 106.414 84.7691 106.248C84.1605 105.525 83.5638 104.825 83.3013 103.84C83.0746 103.022 82.1915 102.88 81.4397 102.678C80.6043 102.441 79.7928 102.156 78.9694 101.895C78.6353 101.788 78.2892 101.717 77.9431 101.622C77.2152 101.421 76.4395 101.302 75.7593 100.982C74.9717 100.626 74.0289 101.077 73.8141 101.895C73.5038 103.129 73.301 104.279 73.5396 105.596C73.6828 106.367 73.0265 107.328 72.6208 108.146C72.3821 108.633 72.5014 108.882 72.8117 109.273C73.1936 109.759 73.48 110.364 73.6351 110.969C73.9454 112.179 74.2079 113.413 74.375 114.658C74.5898 116.283 74.8404 117.885 75.4371 119.439C75.6519 119.984 75.5803 120.672 75.5445 121.277C75.4013 123.317 75.5803 125.334 75.9741 127.327C76.0099 127.505 76.0338 127.706 75.9741 127.86C75.5087 128.999 75.9741 130.078 76.1292 131.193C76.2366 132.024 76.177 132.878 76.2008 133.72C76.2008 134.028 76.2128 134.337 76.2963 134.633C76.8333 136.448 76.9884 138.263 76.3918 140.102C76.3202 140.339 76.2605 140.647 76.344 140.861C76.9884 142.462 76.4992 144.075 76.4276 145.677C76.4276 145.902 76.3321 146.151 76.3798 146.365C76.6543 147.717 76.4037 148.915 75.461 149.959C75.3416 150.101 75.27 150.326 75.2581 150.528C75.1268 152.272 75.0433 154.015 74.8881 155.747C74.7927 156.898 74.6614 158.06 74.4347 159.187C74.3153 159.745 73.9096 160.231 73.659 160.765C73.5396 161.026 73.3606 161.381 73.4561 161.595C74.017 162.935 73.659 164.264 73.4203 165.557C73.2174 166.636 73.2771 167.644 73.4084 168.688C73.5038 169.388 73.468 170.124 73.4084 170.835C73.301 171.986 73.0981 173.125 73.0026 174.275C72.9788 174.607 73.1339 174.987 73.289 175.295C73.8738 176.41 73.9931 177.573 73.9454 178.818C73.9215 179.435 74.1602 180.135 74.5063 180.657C75.091 181.546 75.4252 182.412 75.2342 183.492C75.1745 183.788 75.2581 184.168 75.4013 184.441C76.4156 186.41 77.0839 188.545 77.2987 190.692C77.4181 191.973 77.6209 193.159 78.0983 194.321C78.2653 194.713 78.4085 195.128 78.6711 195.46C79.1962 196.113 79.4468 196.824 79.4826 197.666C79.4826 197.987 79.6974 198.39 79.948 198.603C80.6043 199.161 81.022 199.813 81.3084 200.62C81.738 201.854 82.3108 203.028 83.4564 203.846C84.7811 204.783 85.7119 207.986 85.1987 209.492C85.1152 209.753 85.1033 210.038 85.0794 210.323C85.0794 210.418 85.1152 210.524 85.1033 210.631C85.0317 211.616 84.8049 212.612 84.9243 213.561C85.0317 214.498 85.5806 215.388 85.7716 216.325C85.9028 216.954 85.8432 217.665 85.7238 218.318C85.4016 220.109 85.0794 221.864 85.4255 223.703C85.5687 224.45 85.3062 225.269 85.2107 226.04C85.1987 226.194 85.0913 226.336 85.0913 226.49C85.1987 228.459 84.3992 230.393 84.8885 232.397C85.151 233.465 84.6856 234.438 83.9099 235.209C83.5519 235.576 83.4684 235.908 83.7071 236.383C83.8503 236.644 83.9219 236.976 83.9338 237.273C83.9815 238.471 84.1486 239.692 83.9815 240.855C83.8025 242.124 83.8503 243.263 84.3634 244.473C84.7453 245.374 84.3992 246.359 83.7906 247.165C83.2536 247.865 83.2416 248.636 83.2536 249.49C83.2774 250.617 83.0507 251.768 82.812 252.883C82.7285 253.286 82.5972 253.559 82.8956 253.915C83.5519 254.709 83.6355 255.634 83.4684 256.619C83.349 257.343 83.3132 258.09 83.2416 258.825C83.2058 259.181 83.1939 259.549 83.1581 259.905C83.0865 260.711 83.0268 261.518 82.9194 262.324C82.8478 262.858 82.824 263.439 82.5734 263.878C82.1199 264.649 82.1199 265.373 82.3466 266.18C82.5734 267.022 82.4063 267.816 81.9289 268.54C81.1891 269.679 79.8167 270.189 78.5398 269.809C77.2152 269.406 76.4037 268.315 76.2844 266.891L76.2008 266.844Z" fill="#6B543F"/>
<path d="M190.763 138.939C189.749 139.402 188.723 139.864 187.708 140.327C186.527 140.861 185.357 140.481 184.737 139.331C184.212 138.346 184.582 137.231 185.644 136.555C186.73 135.867 187.756 135.132 188.639 134.159C189.236 133.483 190.047 132.902 190.882 132.546C191.909 132.107 192.303 131.288 192.768 130.434C192.792 130.399 192.804 130.363 192.828 130.328C193.078 130.102 193.341 129.889 193.639 129.734C194.367 129.355 194.832 128.75 195.095 127.991C195.429 127.018 195.942 126.164 196.813 125.571C197.064 125.405 197.171 125.144 197.291 124.883C197.804 123.792 198.222 122.641 199.117 121.763C199.284 121.597 199.379 121.396 199.343 121.135C199.224 120.198 199.522 119.344 199.976 118.549C200.358 117.873 200.596 117.197 200.537 116.426C200.513 116.011 200.573 115.572 200.799 115.228C201.372 114.374 201.456 113.413 201.587 112.44C201.67 111.835 201.563 111.313 201.086 110.898C200.441 110.341 200.012 109.653 199.737 108.858C199.582 108.395 199.212 108.099 198.89 107.767C198.162 107.055 197.529 106.284 197.231 105.288C197.136 104.979 196.945 104.849 196.623 104.778C195.895 104.623 195.226 104.611 194.522 104.979C193.508 105.501 192.434 105.916 191.24 105.632C191.109 105.596 190.99 105.667 190.882 105.738C190.656 105.857 190.465 106.07 190.166 106.035C189.808 106.094 189.45 106.213 189.092 106.201C188.221 106.201 187.66 105.477 187.72 104.493C187.732 104.184 187.816 103.888 187.875 103.544C187.625 103.461 187.374 103.413 187.159 103.295C186.455 102.951 186.002 102.417 186.037 101.599C186.085 100.78 186.133 99.9498 186.276 99.1432C186.431 98.2417 186.956 97.5656 187.732 97.0437C188.114 96.7827 188.412 96.3794 188.711 96.0117C189.379 95.2051 190.023 94.3867 190.668 93.5682C190.811 93.3903 191.002 93.2005 191.026 92.9988C191.121 91.955 191.718 91.1959 192.315 90.413C192.589 90.0453 192.78 89.6183 193.031 89.2268C193.472 88.5151 193.937 87.8153 194.391 87.1036C194.582 86.807 194.821 86.5224 194.964 86.1902C195.417 85.2057 196.014 84.3754 196.969 83.806C197.255 83.6281 197.47 83.2367 197.589 82.8927C197.971 81.7658 198.305 80.639 199.296 79.8324C199.475 79.6782 199.546 79.3342 199.582 79.0732C199.761 77.9345 200.25 76.95 200.847 75.9536C201.694 74.5302 203.007 73.5338 203.95 72.2409C204.773 71.114 205.453 69.833 205.406 68.3384C205.406 68.291 205.406 68.2316 205.406 68.1842C205.489 66.7845 205.441 66.7608 203.997 67.0336C203.413 67.1404 202.816 67.1641 202.231 67.2353C202.076 67.2471 201.849 67.2353 201.79 67.3302C201.229 68.2079 200.286 68.5163 199.439 68.9789C199.475 69.0975 199.415 69.1924 199.331 69.2755C198.436 70.4261 197.004 70.5565 195.799 71.114C195.751 71.1615 195.704 71.2089 195.644 71.2445C195.513 71.3394 195.405 71.4699 195.31 71.6004C195.107 71.8257 194.952 72.0985 194.677 72.2409C194.176 72.5256 193.52 72.5493 193.174 73.1187C192.995 73.3322 192.804 73.522 192.565 73.6762C191.873 74.1388 191.085 74.0083 190.322 74.0083C190.143 74.0083 189.976 73.949 189.832 73.8422C188.866 73.344 188.746 71.9088 189.582 70.8294C189.701 70.6633 189.856 70.4972 190.023 70.4023C191.026 69.8448 191.98 69.145 193.054 68.801C193.961 68.5163 194.427 67.9588 194.856 67.259C195.31 66.5117 195.907 66.0254 196.778 65.8119C197.1 65.7288 197.434 65.5035 197.673 65.2544C198.317 64.5782 199.045 64.2105 200.012 64.2698C200.31 64.2936 200.632 64.0919 200.931 63.9614C201.575 63.6649 202.207 63.3209 202.864 63.0481C203.246 62.8939 203.663 62.8346 204.057 62.716C206.157 62.0873 207.852 62.8464 209.01 64.6613C209.654 65.6814 209.809 66.7489 209.964 67.8639C210 68.1367 210.012 68.457 209.917 68.7061C209.308 70.26 208.664 71.7901 208.031 73.3322C207.637 74.2811 207.22 75.2182 206.873 76.179C206.205 78.0413 205.215 79.7019 203.711 81.0185C203.258 81.41 203.043 81.837 202.816 82.3826C202.434 83.296 201.814 84.1026 201.336 84.9685C201.157 85.2888 200.954 85.6683 200.954 86.0123C200.978 87.068 200.608 87.9695 200.083 88.8473C199.773 89.3692 199.57 89.9623 199.308 90.5079C199.117 90.9231 198.95 91.3738 198.687 91.7415C198.019 92.6904 197.303 93.5919 196.599 94.5171C196.455 94.7069 196.348 94.9679 196.169 95.0509C194.391 95.8457 194.021 97.8621 192.673 99.0246C192.482 99.1906 192.458 99.5702 192.362 99.8549C192.625 99.9142 192.887 100.045 193.138 100.033C193.914 100.009 194.677 99.9024 195.441 99.8905C196.825 99.8905 198.114 100.128 199.069 101.278C199.2 101.444 199.499 101.599 199.713 101.587C201.265 101.444 202.339 102.168 203.186 103.366C203.95 104.434 204.737 105.477 205.489 106.557C206.062 107.387 206.205 108.289 205.978 109.285C205.895 109.653 205.955 110.08 206.014 110.471C206.205 111.788 206.432 113.093 206.635 114.409C206.694 114.812 206.683 115.228 206.754 115.643C206.945 116.805 206.671 117.837 205.955 118.762C205.799 118.964 205.609 119.201 205.609 119.427C205.537 120.921 204.976 122.167 203.723 123.234C204.081 123.436 204.344 123.649 204.642 123.732C206.253 124.207 207.1 125.381 207.589 126.852C208.019 128.109 208.377 129.402 208.747 130.672C208.819 130.909 208.831 131.182 208.819 131.431C208.735 132.783 208.771 134.171 208.496 135.487C208.246 136.721 207.721 137.919 207.231 139.093C206.79 140.173 206.014 141.074 205.776 142.308C205.62 143.091 204.916 143.767 204.439 144.49C204.188 144.87 203.914 145.226 203.639 145.594C203.305 146.044 202.983 146.507 202.589 146.91C201.981 147.539 201.981 147.788 202.673 148.298C202.709 148.334 202.768 148.357 202.792 148.393C203.484 149.271 204.379 149.864 205.394 150.362C206.265 150.789 206.527 151.69 206.551 152.663C206.575 153.505 206.587 154.371 206.802 155.178C207.196 156.625 207.076 158.013 206.48 159.329C205.752 160.931 205.107 162.627 203.628 163.778C203.389 163.967 203.317 164.359 203.15 164.632C202.685 165.367 202.279 166.138 201.718 166.79C200.907 167.727 200.119 168.653 199.725 169.863C199.403 170.859 198.651 171.452 197.697 171.879C197.374 172.021 197.112 172.377 196.909 172.698C196.467 173.35 196.157 174.097 195.668 174.702C195.155 175.343 194.594 176.019 193.89 176.398C192.565 177.11 191.169 177.703 189.737 178.189C189.307 178.332 188.675 178.035 188.197 177.822C187.589 177.549 187.028 177.158 186.455 176.814C185.56 176.28 185.142 175.497 185.083 174.453C185.059 174.002 184.844 173.504 184.593 173.125C183.985 172.223 183.925 171.298 184.307 170.325C184.856 168.925 185.847 168.582 187.625 169.092C188.782 169.602 189.104 170.562 189.081 171.713C189.116 171.855 189.057 172.14 189.367 171.938C189.534 171.832 189.629 171.63 189.773 171.499C190.548 171.144 191.133 170.551 191.73 169.969C191.861 169.874 191.98 169.756 192.112 169.649C192.195 169.59 192.279 169.554 192.374 169.53C192.47 169.495 192.553 169.459 192.649 169.412C192.863 169.305 193.09 169.198 193.305 169.103C193.412 169.044 193.496 168.973 193.532 168.842C193.556 168.759 193.579 168.665 193.603 168.582C193.639 168.463 193.663 168.332 193.675 168.202C193.675 168.036 193.699 167.858 193.77 167.704C193.866 167.55 193.985 167.431 194.081 167.277C194.307 166.873 194.63 166.553 195.011 166.28C195.799 165.687 196.384 164.928 196.73 164.003C196.813 163.861 196.933 163.73 196.969 163.552C197.171 162.722 197.661 162.093 198.329 161.583C198.592 161.381 198.854 161.18 199.009 160.883C199.081 160.753 199.105 160.622 199.129 160.48C199.188 159.875 199.654 159.448 199.821 158.891C199.868 158.796 199.94 158.701 200.012 158.618C200.596 158.013 200.847 157.206 201.241 156.494C201.527 155.984 201.73 155.427 202.1 154.952C202.207 154.81 202.231 154.644 202.207 154.466C202.017 153.849 201.587 153.351 201.312 152.782C201.086 152.295 199.51 152.058 198.962 152.295C198.114 152.651 197.267 153.007 196.623 153.707C195.596 154.49 194.63 155.344 193.544 156.032C192.875 156.459 192.028 156.625 191.276 156.91C191.038 157.005 190.799 157.099 190.584 157.218C190.405 157.313 190.262 157.479 190.083 157.586C189.128 158.191 186.157 157.823 185.369 157.005C184.403 155.996 184.784 154.442 186.157 153.932C187.111 153.576 188.102 153.292 189.081 152.96C189.271 152.9 189.427 152.758 189.594 152.628C191.026 151.536 192.315 150.243 194.093 149.662C194.367 149.567 194.594 149.235 194.749 148.962C195.179 148.191 195.739 147.598 196.599 147.29C196.861 147.195 197.052 146.863 197.243 146.614C197.362 146.448 197.35 146.175 197.494 146.056C198.496 145.167 199.176 144.04 199.952 142.972C200.226 142.581 200.477 142.177 200.752 141.786C201.133 141.217 201.42 140.505 201.945 140.113C202.637 139.58 202.888 138.915 203.031 138.156C203.329 136.567 203.628 134.977 203.89 133.376C203.962 132.937 203.89 132.463 203.89 132.012C203.89 131.11 203.89 130.221 203.914 129.319C203.926 128.465 203.58 127.777 202.983 127.184C202.685 126.888 202.351 126.781 202.076 127.208C201.754 127.718 201.456 128.24 201.169 128.762C200.847 129.343 200.525 129.924 200.203 130.506C200.203 130.577 200.179 130.636 200.143 130.695C200.071 130.778 200 130.849 199.928 130.921C198.83 131.787 197.816 132.724 197.112 133.957C196.837 134.432 196.396 134.859 195.907 135.013C194.701 135.381 194.164 136.401 193.448 137.243C193.329 137.385 193.233 137.539 193.126 137.67C193.066 137.753 192.983 137.824 192.911 137.895C192.84 137.966 192.756 138.026 192.673 138.097C192.541 138.204 192.422 138.334 192.279 138.441C191.789 138.643 191.384 139.105 190.763 138.915V138.939Z" fill="#6B543F"/>
<path d="M139.15 273C137.313 272.893 135.904 271.256 136.179 269.477C136.239 269.121 136.346 268.777 136.477 268.433C136.74 267.745 136.728 267.105 136.441 266.417C135.893 265.124 135.499 263.783 136.036 262.372C136.119 262.147 136.048 261.862 136.072 261.601C136.167 260.688 136.286 259.786 136.346 258.873C136.37 258.469 136.406 257.995 136.239 257.651C135.499 256.109 135.785 254.555 136.227 253.049C136.465 252.242 136.513 251.518 136.227 250.736C135.725 249.419 135.857 248.15 136.68 246.975C137.014 246.489 136.919 246.11 136.704 245.564C136.418 244.852 136.346 244.046 136.286 243.263C136.239 242.587 136.346 241.899 136.394 241.223C136.394 241.199 136.394 241.175 136.394 241.139C136.501 239.645 136.597 238.15 136.704 236.668C136.704 236.596 136.752 236.502 136.728 236.442C136.036 234.39 136.99 232.35 136.68 230.25C136.346 227.961 136.346 225.589 137.05 223.3C137.265 222.6 137.265 221.829 137.325 221.081C137.42 219.871 137.814 218.78 138.482 217.76C138.625 217.535 138.637 217.226 138.721 216.954C138.816 216.61 138.84 216.194 139.043 215.933C139.759 215.056 140.403 214.024 141.334 213.454C142.886 212.493 143.864 211.058 145.046 209.777C146.108 208.627 147.206 207.5 148.399 206.491C149.234 205.792 149.855 205.009 150.368 204.06C150.726 203.396 151.251 202.814 151.716 202.209C151.884 201.984 152.17 201.83 152.277 201.581C152.731 200.596 153.399 199.861 154.413 199.446C154.616 199.363 154.76 199.102 154.915 198.9C154.986 198.805 154.986 198.651 155.046 198.544C155.977 196.99 156.908 195.436 157.838 193.883C157.886 193.799 157.958 193.705 158.041 193.645C159.891 192.495 160.691 190.49 161.824 188.806C163.161 186.813 164.509 184.856 166.037 183.017C166.61 182.329 167.027 181.523 167.493 180.752C168.042 179.838 168.698 179.577 169.641 179.898C170.369 180.147 170.798 180.87 170.548 181.795C170.046 183.646 169.414 185.461 168.877 187.311C168.197 189.648 166.478 191.368 165.249 193.384C164.796 194.12 164.199 194.772 163.698 195.484C163.555 195.685 163.495 195.958 163.459 196.196C163.34 197.109 162.898 197.821 162.254 198.473C161.705 199.03 161.263 199.707 160.774 200.335C160.738 200.371 160.738 200.43 160.702 200.478C159.605 201.759 158.435 202.992 157.826 204.629C157.731 204.902 157.337 205.068 157.075 205.282C156.896 205.424 156.609 205.519 156.526 205.697C155.965 206.919 154.807 207.488 153.817 208.271C153.268 208.698 152.862 209.35 152.54 209.979C151.788 211.45 150.989 212.885 149.747 214.024C148.184 215.471 146.633 216.942 145.022 218.329C144.532 218.745 143.852 218.97 143.232 219.207C142.54 219.456 142.17 219.812 142.253 220.619C142.396 222.054 142.528 223.489 142.516 224.925C142.492 227 142.301 229.076 142.229 231.152C142.193 232.113 142.301 233.085 142.337 234.046C142.337 234.153 142.396 234.248 142.384 234.355C142.313 235.802 142.241 237.237 142.17 238.684C142.17 238.791 142.11 238.886 142.11 238.981C142.217 240.321 142.241 241.673 142.456 243.002C142.623 244.034 142.575 244.959 141.943 245.789C141.621 246.204 141.633 246.584 141.883 246.999C142.707 248.351 142.695 249.727 142.038 251.139C141.752 251.744 141.74 252.313 141.883 252.989C142.265 254.674 142.563 256.394 141.537 258.007C141.394 258.244 141.489 258.647 141.501 258.968C141.537 259.881 141.597 260.794 141.645 261.708C141.656 261.992 141.573 262.289 141.645 262.55C142.014 263.76 141.752 264.91 141.275 266.013C140.94 266.808 141.048 267.484 141.501 268.196C142.42 269.655 142.038 271.541 140.63 272.431C140.189 272.703 139.64 272.81 139.138 272.988L139.15 273Z" fill="#6B543F"/>
<path d="M190.155 106.047C190.334 105.904 190.501 105.762 190.68 105.62C191.336 105.525 191.98 105.798 192.673 105.62C193.377 105.43 194.069 105.252 194.701 104.884C195.37 104.493 196.038 104.588 196.718 104.813C196.957 104.896 197.112 105.074 197.183 105.299C197.518 106.343 198.222 107.126 198.997 107.85C199.403 108.229 199.725 108.633 199.868 109.178C200.071 109.925 200.549 110.495 201.133 110.993C201.647 111.432 201.694 111.966 201.611 112.594C201.503 113.543 201.36 114.457 200.763 115.263C200.62 115.453 200.513 115.75 200.525 115.987C200.608 117.22 199.928 118.252 199.678 119.367C199.343 120.838 198.794 122.143 198.031 123.412C197.482 124.326 197.148 125.369 196.217 126.046C195.62 126.473 195.37 127.208 195.143 127.896C194.868 128.762 194.331 129.379 193.544 129.794C193.233 129.96 193.042 130.233 192.756 130.422H192.744C192.482 130.683 192.219 130.933 191.957 131.182C191.634 131.49 191.36 131.846 191.002 132.083C189.904 132.819 188.711 133.388 187.875 134.515C187.374 135.191 186.527 135.606 185.847 136.14C185.429 136.472 185.023 136.828 184.594 137.136C184.426 137.255 184.164 137.433 184.009 137.373C183.317 137.124 182.636 136.84 181.98 136.484C181.288 136.116 181.085 135.428 180.93 134.693C180.834 134.254 180.62 133.696 180.274 133.471C178.746 132.486 178.651 130.529 179.474 129.082C179.665 128.738 179.748 128.335 179.88 127.955C179.892 127.908 179.88 127.848 179.88 127.801C180.453 126.639 180.942 125.417 181.634 124.326C182.195 123.448 182.792 122.641 183.042 121.574C183.496 119.652 184.701 118.157 186.037 116.746C186.98 115.738 187.828 114.623 188.639 113.508C188.83 113.247 188.758 112.749 188.699 112.381C188.484 111.04 188.436 109.736 189.188 108.514C189.295 108.348 189.343 108.123 189.331 107.921C189.295 107.162 189.26 106.403 190.143 106.035L190.155 106.047Z" fill="white"/>
<path d="M190.763 138.939C191.252 138.714 191.754 138.488 192.243 138.275C192.446 138.275 192.529 138.144 192.613 138.002C192.661 137.955 192.708 137.907 192.756 137.86C192.852 137.836 192.911 137.777 192.911 137.67C193.472 136.935 194.021 136.175 194.606 135.464C194.773 135.262 195.095 135.203 195.31 135.037C195.918 134.586 196.646 134.218 197.088 133.637C197.923 132.546 198.771 131.49 199.964 130.766C200 130.707 200.059 130.66 200.119 130.624C200.131 130.577 200.155 130.553 200.203 130.553C201.181 130.292 201.289 129.379 201.635 128.643C201.706 128.489 201.659 128.252 201.766 128.133C202.028 127.848 202.351 127.623 202.649 127.374C202.947 127.837 203.365 128.276 203.508 128.786C203.651 129.343 203.544 129.96 203.544 130.553C203.544 131.561 203.604 132.581 203.52 133.59C203.472 134.278 203.21 134.93 203.091 135.618C202.947 136.424 202.9 137.243 202.733 138.05C202.577 138.773 202.458 139.461 201.647 139.959C201.074 140.303 200.823 141.157 200.417 141.774C200.167 142.142 199.868 142.486 199.642 142.865C198.973 143.969 198.055 144.882 197.255 145.878C196.813 146.424 196.623 147.029 195.823 147.314C195.298 147.503 194.976 148.227 194.558 148.713C194.331 148.974 194.14 149.377 193.866 149.46C192.147 149.994 190.99 151.347 189.582 152.319C189.307 152.509 188.961 152.616 188.639 152.746C187.589 153.197 186.539 153.66 185.477 154.075C185.262 154.158 184.904 154.181 184.761 154.051C183.603 153.078 182.398 152.106 182.064 150.516C181.837 149.437 181.634 148.381 182.004 147.266C182.29 146.4 182.469 145.475 182.529 144.573C182.648 142.771 183.281 141.252 184.701 140.03C184.856 140.137 184.999 140.232 185.142 140.339C186.073 141.039 187.028 141.169 188.09 140.576C188.734 140.22 189.486 140.066 190.143 139.734C190.429 139.592 190.596 139.224 190.811 138.951L190.763 138.939Z" fill="white"/>
<path d="M194.677 72.1579C194.892 71.9443 195.107 71.7308 195.31 71.5292C195.381 71.3987 195.513 71.3157 195.549 71.1733L195.584 71.1971L195.549 71.1615C196.145 70.9124 196.742 70.6989 197.374 70.5803C198.245 70.4023 198.818 69.8448 199.284 69.145L199.427 69.0027C200.167 69.0382 200.799 68.7773 201.289 68.2435C201.658 67.8521 202.028 67.6267 202.613 67.603C203.222 67.5792 203.818 67.342 204.427 67.2353C204.94 67.1404 205.179 67.1878 205.167 67.8995C205.131 69.2636 204.761 70.4972 204.057 71.6004C203.544 72.407 202.756 73.0475 202.088 73.7592C201.969 73.8897 201.766 73.9608 201.682 74.1032C200.942 75.3842 200.012 76.6179 199.57 78.0057C199.212 79.1325 198.508 79.9984 198.066 80.9948C197.41 82.5013 196.634 83.806 195.405 84.8855C195.011 85.2413 194.88 85.8818 194.558 86.3326C194.128 86.9257 193.603 87.4476 193.174 88.0407C192.971 88.3135 192.935 88.7049 192.756 89.0133C192.398 89.6301 191.992 90.2113 191.634 90.8282C191.336 91.3263 191.085 91.8601 190.775 92.3583C190.453 92.8921 190.119 93.4259 189.725 93.9003C189.641 94.0071 189.2 93.9834 189.104 93.8766C188.997 93.7461 188.985 93.3666 189.104 93.2361C189.916 92.3346 189.94 91.3026 189.749 90.1995C189.689 89.8792 189.737 89.5352 189.725 89.215C189.725 89.1912 189.749 89.1675 189.749 89.1438C189.629 88.3253 189.283 87.4594 189.45 86.7003C189.641 85.8107 189.606 85.1108 189.295 84.2568C189.081 83.6756 189.331 82.9283 189.367 82.2522C189.522 79.4647 189.665 76.6772 189.82 73.8778C189.976 73.8897 190.119 73.9015 190.274 73.9134C191.097 74.032 191.933 74.1388 192.637 73.5457C192.792 73.3915 192.947 73.2254 193.102 73.0712C193.52 72.5849 194.2 72.5612 194.653 72.1579H194.677Z" fill="white"/>
<path d="M196.634 153.754C197.052 153.363 197.458 152.96 197.899 152.592C198.09 152.438 198.413 152.438 198.603 152.284C199.618 151.43 200.489 152.343 201.42 152.485C201.479 152.485 201.563 152.568 201.587 152.628C201.909 153.292 202.207 153.956 202.518 154.62C202.231 154.656 202.446 154.952 202.279 155.047C201.742 156.079 201.217 157.111 200.68 158.131C200.549 158.38 200.358 158.594 200.191 158.819C200.047 158.819 199.94 158.831 200.059 159.009C199.809 159.543 199.546 160.077 199.296 160.61C199.224 160.705 199.164 160.812 199.2 160.931C199.057 161.132 198.962 161.393 198.771 161.524C197.983 162.081 197.47 162.817 197.136 163.695C197.076 163.825 196.849 163.908 196.981 164.11C196.396 164.869 195.835 165.652 195.226 166.399C194.928 166.767 194.546 167.087 194.2 167.419C194.093 167.538 193.902 167.609 193.997 167.822C193.949 167.988 193.89 168.155 193.842 168.321C193.77 168.415 193.723 168.522 193.77 168.653C193.758 168.748 193.735 168.854 193.723 168.949C193.615 169.056 193.508 169.151 193.424 169.293C193.174 169.4 192.923 169.507 192.673 169.602C192.589 169.602 192.529 169.661 192.47 169.708C192.398 169.744 192.326 169.78 192.267 169.815C192.052 169.78 191.968 169.934 191.885 170.076C191.24 170.61 190.584 171.144 189.94 171.666C189.594 171.618 189.391 172.259 188.961 171.867C188.925 170.764 188.532 169.827 187.648 169.127C187.386 168.89 187.111 168.653 186.67 168.249C186.885 167.716 187.159 167.063 187.422 166.399C187.541 166.114 187.72 165.806 187.708 165.521C187.625 163.576 188.603 161.666 187.899 159.697C187.756 159.294 187.744 158.843 187.648 158.274C188.066 158.274 188.46 158.345 188.806 158.262C189.462 158.096 190.095 157.835 190.727 157.609C190.966 157.526 191.193 157.443 191.419 157.325C192.386 156.862 193.377 156.435 194.295 155.901C195.011 155.474 195.656 154.917 196.312 154.371C196.479 154.229 196.539 153.956 196.634 153.731V153.754Z" fill="white"/>
<path d="M192.78 130.422C193.019 130.173 193.21 129.841 193.484 129.675C194.212 129.224 194.737 128.667 195.011 127.825C195.334 126.852 195.871 126.022 196.718 125.322C197.291 124.847 197.529 123.982 197.923 123.305C198.234 122.772 198.568 122.262 198.866 121.728C199.009 121.467 199.117 121.182 199.176 120.909C199.26 120.565 199.236 120.186 199.343 119.854C199.749 118.549 200.477 117.327 200.394 115.892C200.382 115.607 200.501 115.24 200.704 115.038C201.468 114.255 201.36 113.235 201.491 112.286C201.539 111.966 201.348 111.515 201.11 111.29C200.429 110.625 199.904 109.914 199.618 108.988C199.498 108.573 199.081 108.253 198.818 107.885C198.21 107.043 197.589 106.201 197.028 105.323C196.718 104.837 195.716 104.647 194.928 104.955C194.164 105.252 193.389 105.572 192.589 105.715C191.98 105.821 191.324 105.679 190.692 105.643C190.847 105.596 191.026 105.477 191.169 105.501C192.446 105.75 193.591 105.406 194.665 104.778C195.465 104.315 196.229 104.576 196.992 104.73C197.136 104.754 197.243 105.015 197.35 105.181C197.828 105.928 198.305 106.675 198.782 107.423C199.212 108.075 199.642 108.739 200.095 109.38C200.465 109.902 200.859 110.4 201.241 110.91C201.408 111.135 201.718 111.373 201.694 111.574C201.599 112.606 201.444 113.638 201.241 114.658C201.086 115.477 200.835 116.271 200.62 117.078C200.513 117.47 200.465 117.885 200.274 118.229C199.785 119.154 199.403 120.091 199.487 121.17C199.498 121.396 199.379 121.657 199.248 121.858C198.651 122.867 198.043 123.875 197.434 124.883C197.231 125.203 197.004 125.5 196.778 125.796C196.324 126.401 195.68 126.947 195.441 127.635C194.964 129.011 194.033 129.853 192.768 130.446L192.78 130.422Z" fill="white"/>
<path d="M199.296 69.1331C198.95 69.5602 198.687 70.177 198.234 70.3786C197.398 70.7582 196.455 70.9124 195.56 71.1615C195.966 70.9836 196.348 70.7226 196.766 70.6277C197.78 70.4023 198.627 69.9279 199.296 69.1331Z" fill="white"/>
<path d="M192.649 73.5338C192.088 74.2337 191.061 74.3879 190.286 73.9015C191.073 73.7829 191.861 73.6524 192.649 73.5338Z" fill="white"/>
<path d="M194.677 72.1579C194.164 72.4663 193.639 72.7628 193.126 73.0712C193.639 72.7628 194.164 72.4663 194.677 72.1579Z" fill="#D3CFC8"/>
<path d="M188.961 171.891C189.283 171.82 189.617 171.749 189.94 171.689C189.773 171.879 189.629 172.093 189.438 172.235C189.319 172.33 189.128 172.33 188.973 172.365C188.973 172.211 188.973 172.045 188.973 171.891H188.961Z" fill="#D3CFC8"/>
<path d="M195.548 71.1615C195.465 71.2801 195.381 71.3987 195.31 71.5173C195.393 71.3987 195.477 71.2801 195.548 71.1615Z" fill="#D3CFC8"/>
<path d="M192.613 137.99C192.493 138.085 192.362 138.18 192.243 138.263C192.362 138.168 192.493 138.073 192.613 137.99Z" fill="#D3CFC8"/>
<path d="M199.2 160.931C199.236 160.824 199.26 160.717 199.296 160.61L199.2 160.931Z" fill="#D3CFC8"/>
<path d="M196.981 164.122C197.028 163.979 197.076 163.837 197.136 163.706C197.088 163.849 197.04 163.991 196.981 164.122Z" fill="#D3CFC8"/>
<path d="M193.997 167.834C194.069 167.704 194.128 167.561 194.2 167.431C194.128 167.561 194.069 167.704 193.997 167.834Z" fill="#D3CFC8"/>
<path d="M193.77 168.665C193.794 168.558 193.818 168.439 193.842 168.332C193.818 168.439 193.794 168.558 193.77 168.665Z" fill="#D3CFC8"/>
<path d="M193.436 169.305C193.532 169.186 193.627 169.08 193.735 168.961C193.639 169.08 193.544 169.186 193.436 169.305Z" fill="#D3CFC8"/>
<path d="M191.885 170.088C192.016 170.005 192.135 169.91 192.267 169.827C192.135 169.91 192.016 170.005 191.885 170.088Z" fill="#D3CFC8"/>
<path d="M202.279 155.035C202.363 154.893 202.434 154.751 202.518 154.608C202.434 154.751 202.363 154.893 202.279 155.035Z" fill="#D3CFC8"/>
<path d="M200.119 130.624C200.119 130.624 200.024 130.719 199.964 130.766C200.012 130.719 200.059 130.672 200.119 130.624Z" fill="#D3CFC8"/>
<path d="M192.911 137.67C192.863 137.729 192.804 137.789 192.756 137.86C192.804 137.8 192.863 137.741 192.911 137.67Z" fill="#D3CFC8"/>
<path d="M200.059 159.01C200.107 158.95 200.143 158.891 200.191 158.819C200.143 158.879 200.107 158.938 200.059 159.01Z" fill="#D3CFC8"/>
<path d="M192.482 169.72C192.553 169.685 192.625 169.649 192.684 169.614C192.613 169.649 192.541 169.685 192.482 169.72Z" fill="#D3CFC8"/>
<rect x="116.339" y="58.1383" width="20.0702" height="19.9871" rx="2" fill="#FFB5CB"/>
<rect x="116.339" y="84.7878" width="20.0702" height="19.9871" rx="2" fill="#FF8F44"/>
<rect x="143.099" y="58.1383" width="20.0702" height="19.9871" rx="2" fill="#6CE020"/>
<rect x="143.099" y="84.7878" width="20.0702" height="19.9871" rx="2" fill="#82D2FF"/>
</g>
</g>
<defs>
<clipPath id="clip0_245_2138">
<rect width="143" height="259" fill="white" transform="translate(67 14)"/>
</clipPath>
</defs>
</svg>
