<svg width="56" height="56" viewBox="0 0 56 56" fill="none" xmlns="http://www.w3.org/2000/svg">
<path d="M28.0002 4.66675C23.3853 4.66675 18.874 6.03522 15.0368 8.59912C11.1997 11.163 8.20901 14.8072 6.44296 19.0708C4.67692 23.3344 4.21484 28.026 5.11516 32.5522C6.01548 37.0784 8.23777 41.236 11.501 44.4992C14.7642 47.7625 18.9218 49.9848 23.448 50.8851C27.9743 51.7854 32.6658 51.3233 36.9294 49.5573C41.193 47.7912 44.8372 44.8005 47.4011 40.9634C49.965 37.1262 51.3335 32.615 51.3335 28.0001C51.3335 24.9359 50.7299 21.9017 49.5573 19.0708C48.3847 16.2399 46.666 13.6676 44.4993 11.5009C42.3326 9.33422 39.7604 7.6155 36.9294 6.44289C34.0985 5.27028 31.0643 4.66675 28.0002 4.66675ZM28.0002 46.6668C24.3082 46.6668 20.6992 45.572 17.6295 43.5208C14.5598 41.4697 12.1672 38.5544 10.7544 35.1435C9.34157 31.7326 8.9719 27.9794 9.69216 24.3584C10.4124 20.7374 12.1902 17.4113 14.8008 14.8008C17.4114 12.1902 20.7375 10.4123 24.3585 9.69209C27.9794 8.97183 31.7327 9.3415 35.1436 10.7543C38.5545 12.1672 41.4698 14.5597 43.5209 17.6294C45.572 20.6992 46.6668 24.3082 46.6668 28.0001C46.6668 32.9508 44.7002 37.6987 41.1995 41.1994C37.6988 44.7001 32.9509 46.6668 28.0002 46.6668Z" fill="#41A400"/>
<path d="M35 25.6667H30.3333V21.0001C30.3333 20.3812 30.0875 19.7878 29.6499 19.3502C29.2123 18.9126 28.6188 18.6667 28 18.6667C27.3811 18.6667 26.7876 18.9126 26.35 19.3502C25.9125 19.7878 25.6666 20.3812 25.6666 21.0001V25.6667H21C20.3811 25.6667 19.7876 25.9126 19.35 26.3502C18.9125 26.7878 18.6666 27.3812 18.6666 28.0001C18.6666 28.6189 18.9125 29.2124 19.35 29.65C19.7876 30.0876 20.3811 30.3334 21 30.3334H25.6666V35.0001C25.6666 35.6189 25.9125 36.2124 26.35 36.65C26.7876 37.0876 27.3811 37.3334 28 37.3334C28.6188 37.3334 29.2123 37.0876 29.6499 36.65C30.0875 36.2124 30.3333 35.6189 30.3333 35.0001V30.3334H35C35.6188 30.3334 36.2123 30.0876 36.6499 29.65C37.0875 29.2124 37.3333 28.6189 37.3333 28.0001C37.3333 27.3812 37.0875 26.7878 36.6499 26.3502C36.2123 25.9126 35.6188 25.6667 35 25.6667Z" fill="#41A400"/>
</svg>
