<?xml version="1.0" encoding="utf-8"?>
<!-- Generator: Adobe Illustrator 27.0.1, SVG Export Plug-In . SVG Version: 6.00 Build 0)  -->
<svg version="1.1" id="レイヤー_1" xmlns="http://www.w3.org/2000/svg" xmlns:xlink="http://www.w3.org/1999/xlink" x="0px"
	 y="0px" viewBox="0 0 168 168" style="enable-background:new 0 0 168 168;" xml:space="preserve">
<style type="text/css">
	.st0{fill:#82D2FF;}
	.st1{clip-path:url(#SVGID_00000150073449330023344200000001409959969608527252_);}
	.st2{fill:#EE6A51;}
	.st3{fill:#B793C0;}
	.st4{fill:#FFF7D6;}
	.st5{fill:#422307;}
	.st6{fill-rule:evenodd;clip-rule:evenodd;fill:#FFFFFF;}
	.st7{fill:#FFF8F3;}
	.st8{fill:#D0BA7B;}
	.st9{fill:#F48965;}
	.st10{fill:#457673;}
	.st11{fill:#EFE4B3;}
	.st12{fill:#F3E3C1;}
	.st13{fill:#EB8462;}
	.st14{fill:#FFC471;}
	.st15{fill:#433731;}
	.st16{fill:#424D58;}
	.st17{fill:#888887;}
	.st18{fill:#6D747C;}
	.st19{clip-path:url(#SVGID_00000165198088498774540360000011801005403660664738_);}
	.st20{fill:#FFFFFF;}
	.st21{fill:#EEE8E5;}
	.st22{fill:#DF8C68;}
	.st23{fill:#FCFAEC;}
	.st24{fill:#2E3A42;}
	.st25{fill:#E79682;}
	.st26{clip-path:url(#SVGID_00000124153563381490647760000014844753387470541482_);}
	.st27{fill:#60807A;}
	.st28{fill:#2F3B42;}
	.st29{fill:#313C42;}
	.st30{fill:#E0AF3B;}
</style>
<g>
	<path class="st0" d="M10,0h148c5.5,0,10,4.5,10,10v148c0,5.5-4.5,10-10,10H10c-5.5,0-10-4.5-10-10V10C0,4.5,4.5,0,10,0z"/>
	<g>
		<defs>
			<rect id="SVGID_1_" x="12" y="20" width="61" height="51"/>
		</defs>
		<clipPath id="SVGID_00000147906977171049851930000004185578689466682241_">
			<use xlink:href="#SVGID_1_"  style="overflow:visible;"/>
		</clipPath>
		<g style="clip-path:url(#SVGID_00000147906977171049851930000004185578689466682241_);">
			<path class="st2" d="M30.9,21.3c-8.2-4.1-18.5,2.1-18.9,12.4c-0.2,4.9,1.8,9.8,5.5,12.5c2.2,1.6,4.7,3.1,7.2,3.5
				c0.5,0.1,1,0.2,1.6,0.1c6.2-1.2,12.5-3.6,13.1-7C44.9,32.1,32.9,22.3,30.9,21.3z"/>
			<path class="st3" d="M59.8,45c-6.2-7.2-10.4-13.9-10.4-13.5c-0.2,0.2-0.4,1.3-0.3,1.8c0.4,1.3,1.1,3.3,0.3,4.4
				c-0.8,1.1-1.7-0.3-2.8,0.2c-0.6,0.4-1.7,2.2-2.5,1.4c-0.8-0.8-1.1-1.8-2.3-1.6c-0.6,0.1-0.8,0.9-0.6,1.6c0.2,0.5-0.3,0.9-0.6,1
				c-0.4,0.1-0.8,0-1.2-0.2c-0.8-0.4-1.5-1.1-2.3-1.2c-0.8-0.2-1.4,0.2-1.9,0.9c-0.2,0.3-0.4,0.6-0.7,0.7c-0.4,0-0.8-0.2-1.2-0.5
				c-0.2-0.2-0.5-0.3-0.7-0.2c0.1-2.4,0.1-4.9,0.4-7.3c0.1-1.2-1.3-1.5-1.7-0.8c-1.4,2.3-1,16.6-1.4,19.7c-0.9,6-6.1,16.5-6.1,16.5
				c-1.3,1.5-0.3,3.3,0.9,3.1c13.2-2,26.4-4.1,39.3-7.8c1.7-0.5,3.5-1,5.2-1.6c1.3-0.5,3-0.3,3.7-1.8c0.2-0.5-0.3-2.1-0.8-2.4
				C71.7,57.2,65.4,51.4,59.8,45L59.8,45z"/>
			<path class="st4" d="M47.4,27.5c-1.1-1.1-2.6-1.9-4-1.4c-1.2,0.4-1.8,1.6-2.5,2.8c-1,1.8-2.6,1.2-4.2,0.6
				c-1.4-0.5-2.9-0.9-4.3-0.2c-1,0.5-1.6,1.5-1.8,2.6c-0.7,2.3-0.2,5.4,0.5,7.6c0.5,1.6,1.6,2.7,3.1,2.2c0.7-0.2,1.2-0.7,1.6-1.3
				c0.2-0.4,0.5-0.8,0.7-1.1c0.7,1.4,1.8,2.5,3.3,2.3c1.2-0.2,1.7-1,1.9-2c0.6,0.7,1.3,1.3,2.3,1.3c1.5,0.1,2.3-1.1,2.8-2.5
				c0.2,0.3,0.5,0.5,0.9,0.6c1.3,0.4,2.2-1,2.5-2.3c0.4-1.5,0.6-3.4,0.1-5C49.8,30,48.6,28.6,47.4,27.5L47.4,27.5z"/>
		</g>
	</g>
	<path class="st5" d="M115.3,82.7c-6.8,2.1-19.6-2.1-25.5-5.2c5-7,7.6-17.6,7.6-17.6c-6.9,0.3-22.3-0.6-22.3-0.6
		c1.5-1.9,2.4-3.8,4.2-8.3l-11.7-3.4l-0.3-0.1C68,55.1,62.9,72,62.9,72c6.6-1.9,9-6.5,9-6.5c0.8,0.3,14.6,1.5,14.6,1.5
		c-0.5,2.4-2.2,5.5-3.7,7.8c-2.2-1.5-4-5.1-4-5.1l-4.9,2c0.8,3.4,3.1,6.9,4.3,7.9C75.5,84,64.1,90.2,55.5,93.3
		c12.5,2.7,23.8-4,29.4-8.4c3.8,2.8,26.9,11,26.9,11L115.3,82.7z M78.3,94.3l-0.3,6.6c1,0.4,11.9,4.1,11.9,4.1l2.3-8.9
		C91.4,96.6,78.3,94.3,78.3,94.3z M91.4,109l-13.2-0.7l0.6,8.3c2.8,0.6,13.1,0.3,13.1,0.3L91.4,109z"/>
	<path class="st6" d="M118.1,79.8c1,1,1.5,2.5,1.1,3.9l-3.4,13.2c-0.3,1.1-1,2-2,2.5c-1,0.5-2.2,0.6-3.2,0.2l1.3-3.8l3.4-13.2
		c-1.2,0.4-2.7,0.5-4.3,0.6c-5.5,0-12.5-2-17.6-4c-1.4-0.6-2.7-1.1-3.7-1.7c0.8-1.1,1.5-2.2,2.1-3.4c1.9-3.5,3.4-7.4,4.3-10.2
		c0.8-2.4,1.2-4,1.2-4c3.9,0.9,3.9,0.9,3.9,0.9l0,0l0,0l0,0c0,0,0,0,0,0.1c0,0,0,0,0,0.1c0,0.1-0.1,0.2-0.1,0.4
		c-0.1,0.3-0.2,0.8-0.4,1.4c-0.3,1.2-0.8,2.8-1.5,4.7c-0.9,2.5-2.1,5.4-3.6,8.3c2.3,0.9,4.9,1.8,7.6,2.4c4.7,1.1,8.7,1.4,11,0.7
		C115.5,78.4,117,78.8,118.1,79.8z M93.2,59.9c1.6,0,3,0,4.1,0l3.9,0.9c0.3-1.2,0-2.5-0.8-3.5c-0.8-1-2-1.5-3.2-1.5
		c-3.3,0.1-8.7,0-13.4-0.2c-0.7,0-1.4-0.1-2.1-0.1c0.4-0.9,0.8-2,1.3-3.2c0.4-1,0.4-2.2-0.1-3.2c-0.5-1-1.4-1.8-2.5-2.1l-11.7-3.4
		c-0.1,0-0.1,0-0.2,0l-0.3-0.1c-1.3-0.3-2.6,0-3.6,0.9c-1,0.9-1.5,2.1-1.4,3.4c0.3,3.1-0.6,8.6-1.8,13.9c-0.6,2.5-1.2,4.8-1.6,6.5
		c-0.2,0.8-0.4,1.5-0.5,2c-0.1,0.2-0.1,0.4-0.2,0.5l0,0.1l0,0l0,0c-0.4,1.4,0,2.9,1,4c1,1,2.5,1.4,3.9,1c2.5-0.7,4.5-1.7,6.1-2.8
		c0.5,2.1,1.4,4,2.3,5.6c0.2,0.3,0.3,0.6,0.5,0.8c-0.2,0.2-0.4,0.4-0.7,0.6c-1.4,1.1-3.2,2.3-5.2,3.5c-4.1,2.4-8.8,4.6-12.9,6.1
		c-1.7,0.6-2.7,2.3-2.6,4c0.1,1.8,1.4,3.3,3.2,3.6c7.1,1.5,13.9,0.4,19.6-1.7l-0.3,5.2c-0.1,1.7,0.9,3.2,2.5,3.9c0,0,0.1,0,0.1,0.1
		c-0.4,0.2-0.9,0.5-1.2,0.8c-0.8,0.8-1.2,1.9-1.1,3.1l0.6,8.3c0.1,1.8,1.4,3.3,3.2,3.6c1.1,0.2,2.6,0.3,3.9,0.4
		c1.4,0.1,3,0.1,4.5,0.1c1.5,0,2.9,0,3.9-0.1c0.5,0,0.9,0,1.2,0c0.1,0,0.3,0,0.3,0l0.1,0h0c0,0,0,0-0.1-4l0.1,4
		c1.1,0,2.1-0.5,2.8-1.3c0.7-0.8,1.1-1.9,1-2.9l-0.5-7.9c-0.1-1.2-0.7-2.3-1.6-2.9l2.3-8.6c0.3-1.1,0.1-2.2-0.4-3.1
		c0.9,0.4,1.9,0.7,2.8,1.1c3.2,1.2,6.2,2.3,8.4,3.1c1.1,0.4,2,0.7,2.7,1c0.3,0.1,0.6,0.2,0.7,0.3l0.3,0.1l0,0c0,0,0,0,1.3-3.8
		c0,0-1.5-0.5-3.8-1.4c-6.7-2.4-20.3-7.5-23.1-9.6c-4.2,3.3-11.6,7.9-20.3,8.9c-2.9,0.3-6,0.2-9.2-0.4c2.5-0.9,5.3-2.1,8.1-3.5
		c4.6-2.2,9-4.9,11.9-7.3c0.4-0.3,0.8-0.7,1.1-1c0.7-0.7,1.3-1.3,1.6-1.9c-1.2-1-3.5-4.5-4.3-7.9l4.9-2c0,0,0.1,0.2,0.3,0.6
		c0.2,0.4,0.5,0.9,0.9,1.4c0.7,1.1,1.7,2.3,2.8,3.1c0.7-1.1,1.4-2.3,2-3.5c0.1-0.1,0.1-0.3,0.2-0.4c0.7-1.3,1.2-2.7,1.5-3.9
		c0,0-1.7-0.2-4-0.4c-0.4,0-0.9-0.1-1.4-0.1c-1.2-0.1-2.6-0.2-3.8-0.4c-0.1,0-0.2,0-0.3,0c-2.6-0.3-4.9-0.5-5.2-0.6
		c0,0-1.2,2.3-4.3,4.3c-1.3,0.8-2.8,1.6-4.8,2.2c0,0,0.6-1.9,1.3-4.8c1.1-4.3,2.6-10.6,3-15.7c0.1-1.1,0.1-2.1,0.1-3
		c0,0,0-0.1,0-0.1c0-0.4,0-0.7-0.1-1l0.3,0.1L79.3,51c-0.6,1.5-1.1,2.7-1.5,3.7c-0.1,0.3-0.2,0.5-0.3,0.7c-0.8,1.7-1.4,2.8-2.4,3.9
		c0,0,1.9,0.1,4.7,0.2C83.5,59.7,88.9,59.9,93.2,59.9z M85.2,89.7c-0.6,0.4-1.3,0.9-2,1.4c0.8,0.1,1.6,0.3,2.4,0.4
		c1.7,0.3,3.3,0.5,4.6,0.6c0.2,0,0.4,0,0.5,0.1c-0.5-0.2-1-0.4-1.5-0.7C87.8,90.9,86.4,90.3,85.2,89.7z M78.2,108.3l0.6,8.3
		c1.7,0.4,5.9,0.4,9.1,0.3c2.3,0,4-0.1,4-0.1l-0.5-7.9L78.2,108.3z M92.2,96.2c-0.3,0.1-1.9,0-4.1-0.3c-1.8-0.3-4-0.6-5.8-0.9
		c-2.2-0.4-4-0.7-4-0.7l-0.3,6.6c0.6,0.3,4.8,1.7,8.1,2.8c1.5,0.5,2.7,0.9,3.3,1.1c0.3,0.1,0.5,0.2,0.5,0.2L92.2,96.2z"/>
	<path class="st7" d="M54.2,108c-1.2-1.3-5.1-2.2-5.3-2.2c-0.8-0.3-1.6-0.5-2.4-0.8c-1.5-8.4-10.1-8.6-16.7-5.5
		c-4.5,2.1-10.3,3.1-13.3,7.3c-2.7,4-1.5,5.9,1.1,8.8c-1.6,4.5-4.2,6.3-3.7,11.7c1.1,8.9,11.9,0.1,16.5-1.1c8-3,16.4-4.6,23.7-9.2
		C62.7,113.6,54.7,108.2,54.2,108L54.2,108z"/>
	<path class="st8" d="M56,116.3c-0.2,0.1-0.3,0.2-0.4,0.3c-1.3,0.3-2.5,0.7-3.8,1c-5.5,1.7-10.8,4-16.1,6.1l-18.2,7.3
		c-0.4,0.2-0.6,0.5-0.6,0.8c0,0.1-0.1,0.1-0.1,0.2c-0.5,0.2-0.8,0.6-0.6,1.1c1.7,4.5,4.1,8.6,7.1,12.3c1,1.3,2.1,2.5,3.1,3.8
		c1.5,2.6,3,5.2,4.5,7.9c0.4,0.7,1.3,0.6,1.7,0.1c0,0,0,0,0,0c1.5-0.6,3.1-1.1,4.6-1.7c1.2-0.4,2.4-0.8,2.4-2.2
		c0-1.2,0.3-2.3,1.2-3.3c0.9-1.1,2.2-1.9,3.5-2.6c1.3-0.6,2.6-1.2,3.9-1.7c1.1-0.4,2.4-0.8,3.6-0.7c1.2,0.2,2,0.9,2.8,1.6
		c0.8,0.7,1.7,1.2,2.8,1.4c0.3,0.1,0.6,0,0.8-0.2c0.4-0.1,0.8-0.1,1.2-0.3c0.1,0,0.2,0,0.3-0.1c1.4-0.5,3-1,4.2-1.8
		c0.7-0.5,1.3-1.1,1.3-1.8c0,0,0,0,0,0c0,0,0-0.1,0-0.1c0,0,0-0.1,0-0.1c0,0,0,0,0,0c0-0.1,0-0.2-0.1-0.3c0-0.1-3.7-20.6-3.9-21
		c-0.2-1.5-0.8-3-1.4-4.4C59.3,116.4,57.8,115.2,56,116.3L56,116.3z"/>
	<path class="st9" d="M28.8,94.9c-4.2-1.7-7.8,4.3-4.4,6.9C27.3,105.3,36.1,99.2,28.8,94.9z"/>
	<path class="st10" d="M28,92.5c-0.4,0.3-0.8,0.6-1.2,0.9c-0.5,0.3-0.5,1-0.2,1.4c0.4,0.4,1,0.4,1.4,0.1c0,0,0.1,0,0.1-0.1
		c0.5-0.3,0.9-0.6,1.3-1c0.3-0.4,0.3-1-0.1-1.3C29,92.1,28.4,92.2,28,92.5L28,92.5z"/>
	<path class="st11" d="M42.1,131.2c-5.9,1.3-8,9-0.9,10.1C50.2,142.6,52.4,128.6,42.1,131.2L42.1,131.2z"/>
	<path class="st12" d="M56.9,120.3c-0.2,0.1-0.4,0.1-0.6,0.2c-1.7,0.7-3.3,1.4-5,2c-5.8,2.2-11.4,4.9-17.3,6.9
		c-2.1,0.8-4.2,1.7-7.1,2.8c-1.4,0.5-3.4,1.5-5.5,2.4c-0.4,0.2-1.3,0.2-1,0.9c0.3,0.6,0.9,0.2,1.4,0c4.8-1.9,9.6-3.9,14.4-5.7
		c7.1-2.7,14-5.7,21.1-8.4c0.4-0.2,0.8-0.3,0.6-0.8C57.7,120.1,57.3,120.2,56.9,120.3L56.9,120.3z"/>
	<path class="st13" d="M134.9,161.3c-0.6-0.3-1.5-0.6-2.7-0.8c5-9.6,4.5-21.9-1.4-36.7c-1.8-4.5-4-7-6.8-7.7
		c-0.4-0.2-0.9-0.4-1.5-0.3c-1,0.1-2.2,0.6-2.8,1.5c-0.9,1.1-1.3,2.5-1.7,3.9c-0.1,0.3-0.2,0.7-0.3,1c-1.3,4-3.8,7.5-6.2,10.9l0,0
		c-2.3,3.2-4.9,6.9-6.1,11.1c-1.3,4.4-0.9,8.9,1.2,12.2c-0.7-0.1-1.5-0.1-2.1,0.2c-0.4,0.2-0.8,0.6-0.9,1c-0.1,0.3-0.1,0.7,0,0.9
		c0.3,0.6,1,0.8,1.8,0.9c0.9,0.1,1.7,0.3,2.5,0.4c1.2,0.2,2.3,0.5,3.7,0.6h0l0,0c1.7-2.6,5.5-3.5,8.3-3.1c2.8,0.4,4.8,2.4,5.7,5.5
		l0,0l0,0c2,0.5,3.3,0.7,5.5,0.8c0.2,0,0.5,0.1,0.9,0.2c0.7,0.1,1.5,0.3,2.2,0.3c0.5,0,0.9-0.1,1.2-0.3c0.3-0.2,0.4-0.4,0.5-0.8
		C136.1,162.4,135.7,161.7,134.9,161.3L134.9,161.3z"/>
	<path class="st13" d="M114.6,129.4c-0.2-0.1-0.4-0.1-0.6,0l0,0v0c-0.3,0.2-3.5,2.7-5.5,3.4c-1,0.4-2.1,0.7-3.1,1
		c-1.1,0.3-2.3,0.7-3.4,1.1c-0.8,0.3-1.6,0.7-2.2,1.3c-0.6,0.6-1,1.5-0.7,2.4c0.2,0.6,0.8,1.1,1.6,1.3c0.3,0.1,0.6,0.1,0.9,0.1
		c0.4,0,0.8-0.1,1.2-0.1c2.2-0.4,4.5-1.5,6.6-3.2c2.1-1.6,3.8-3.7,5.1-5.3c0.3-0.4,0.6-0.8,0.6-1.3
		C115.1,129.8,114.9,129.5,114.6,129.4L114.6,129.4z"/>
	<path class="st13" d="M147,140.8c-0.5-0.7-1.3-1.2-2.1-1.6c-1.1-0.6-2.2-1-3.3-1.5c-1-0.4-2-0.9-3-1.3c-2-1-5-3.8-5.2-4.1v0l0,0
		c-0.2-0.1-0.4-0.2-0.6-0.1c-0.3,0.1-0.5,0.4-0.6,0.7c-0.1,0.5,0.2,1,0.5,1.4c1.1,1.8,2.6,4.1,4.5,6c2,2,4.1,3.3,6.3,4
		c0.5,0.1,1.1,0.3,1.7,0.3c0.2,0,0.3,0,0.5,0c0.8-0.1,1.5-0.5,1.8-1.2C147.8,142.5,147.5,141.4,147,140.8L147,140.8z"/>
	<path class="st14" d="M135.7,146.8c-0.6-1.3-2-0.9-3.1-0.7c-4.1,0.9-7.1,0.8-11.1,0.4c-1.9-0.2-5.1-1.2-8.3-2.2
		c-3.7-1.2-6.8-2.2-7.3-1.6c-0.4,0.4-1.2,3.7-1.3,4.3c-0.4,2.4-0.5,3.9,0.3,5c0.4,0.5,1,0.7,1.7,0.9c7.1,2.2,13.1,3.2,18.6,3.2
		c2.3,0,4.4-0.2,6.5-0.6c1-0.2,3-0.5,3.3-2.3c0.3-1.4,0.5-2.8,0.7-4.2c0,0,0-0.1,0-0.2C135.8,148.1,135.9,147.1,135.7,146.8
		L135.7,146.8z"/>
	<path class="st15" d="M113.8,146.6C113.8,146.6,113.8,146.6,113.8,146.6c-0.5-0.4-1-0.7-1.6-0.8c-0.2,0-0.5-0.1-0.8,0
		c-0.3,0.1-0.5,0.4-0.5,0.7c0,0.2,0.1,0.4,0.3,0.6c0.2,0.1,0.4,0.2,0.6,0.3l1.1,0.4c0.2,0.1,0.4,0.1,0.7,0.1c0,0,0.1,0,0.1,0
		c0.3,0,0.6-0.2,0.6-0.5C114.3,147.1,114,146.8,113.8,146.6C113.9,146.7,113.8,146.6,113.8,146.6L113.8,146.6z"/>
	<path class="st15" d="M118.7,150.4L118.7,150.4C118.6,150.3,118.6,150.3,118.7,150.4c-0.9-0.5-1.9-0.4-2.6,0.1
		c-0.2,0.1-0.3,0.2-0.4,0.4c-0.1,0.2-0.1,0.4,0,0.5c0.1,0.2,0.2,0.2,0.4,0.3c0.7,0.3,1.4,0.6,2.2,0.6c0.1,0,0.2,0,0.3,0
		c0.2,0,0.3,0,0.5-0.1c0.3-0.1,0.5-0.3,0.6-0.5c0.1-0.3,0-0.6-0.2-0.9C119.1,150.6,118.9,150.5,118.7,150.4L118.7,150.4z"/>
	<path class="st15" d="M125.2,150.2c0.3,0,0.5-0.1,0.6-0.2c0.2-0.2,0.3-0.4,0.3-0.6c-0.1-0.3-0.4-0.5-0.7-0.6c0,0,0,0,0,0
		c0,0,0,0-0.1,0c-0.2-0.1-0.6-0.3-1-0.3c-0.2,0-0.4-0.1-0.6,0c-0.2,0-0.4,0.2-0.5,0.4c-0.1,0.2-0.1,0.6,0.1,0.8
		c0.1,0.2,0.4,0.4,0.7,0.5c0.3,0.1,0.6,0.2,1,0.2C125,150.2,125.1,150.2,125.2,150.2L125.2,150.2z"/>
	<path class="st15" d="M127.1,153.7c-0.1,0-0.2,0-0.3,0c0,0,0,0,0,0c-0.4,0-0.8-0.1-1.3,0c-0.5,0.1-0.9,0.2-1.2,0.5
		c-0.2,0.2-0.3,0.5-0.2,0.7c0.1,0.2,0.3,0.2,0.5,0.2c0.2,0,0.4,0,0.5,0c0.7,0,1.4-0.2,2-0.6c0.3-0.2,0.4-0.4,0.4-0.6
		C127.5,153.8,127.3,153.7,127.1,153.7L127.1,153.7z"/>
	<path class="st15" d="M134.4,149.3c-0.2-0.1-0.3-0.2-0.5-0.2c-0.1,0-0.2-0.1-0.3-0.1c-0.2-0.1-1.5-0.3-2.1-0.1
		c-0.4,0.1-0.7,0.2-0.9,0.4c-0.3,0.3-0.4,0.6-0.2,0.9c0.2,0.4,0.7,0.6,1.1,0.6c0.3,0,0.6,0.1,0.9,0.1c0.6,0,1.1-0.1,1.7-0.3
		c0.5-0.1,0.7-0.4,0.8-0.6C134.8,149.8,134.7,149.5,134.4,149.3L134.4,149.3z"/>
	<path class="st15" d="M108.2,150.5c0,0-0.1,0-0.1,0c-1.2-0.4-1.9-0.5-2.2-0.4c-0.1,0.1-0.2,0.2-0.2,0.3v0c-0.1,0.5,0.3,0.9,0.6,1.1
		c0.4,0.2,0.9,0.3,1.3,0.3c0,0,0,0,0.1,0c0.3,0,0.5,0,0.8-0.2c0.3-0.1,0.4-0.5,0.3-0.8C108.7,150.7,108.4,150.6,108.2,150.5
		L108.2,150.5z"/>
	<path class="st15" d="M106.1,145.7c0.3,0,0.5-0.1,0.6-0.2c0.1-0.1,0.1-0.3,0.2-0.4c0-0.1,0.1-0.3,0.1-0.5c0-0.2-0.1-0.4-0.2-0.4
		c-0.2-0.1-0.4-0.2-0.7-0.1c-0.5,0.2-0.8,0.6-0.7,1.1C105.3,145.5,105.8,145.7,106.1,145.7L106.1,145.7z"/>
	<path class="st15" d="M133.9,153.2c-0.2-0.1-0.4-0.2-0.7-0.1c-0.5,0.2-0.8,0.6-0.7,1.1c0,0.2,0.6,0.5,0.8,0.5
		c0.3,0,0.5-0.1,0.6-0.2c0.1-0.1,0.1-0.3,0.2-0.4c0-0.1,0.1-0.3,0.1-0.5C134.1,153.5,134,153.3,133.9,153.2L133.9,153.2z"/>
	<path class="st15" d="M121.6,144c-0.1,0-0.2-0.1-0.3-0.2c-0.5-0.8-0.8-1.1-1.4-1.8l-0.2-0.2c-0.1-0.1-0.1-0.4,0-0.5
		c0.1-0.1,0.4-0.1,0.5,0l0.2,0.2c0.6,0.6,0.9,1,1.4,1.9c0.1,0.2,0,0.4-0.1,0.5C121.7,144,121.7,144,121.6,144L121.6,144z"/>
	<path class="st15" d="M119.8,143.8c-0.1,0-0.2,0-0.3-0.1c-0.1-0.1-0.1-0.4,0-0.5c0.5-0.4,0.8-0.6,1.1-0.8c0.3-0.2,0.6-0.4,1-0.8
		c0.1-0.1,0.4-0.1,0.5,0c0.1,0.1,0.1,0.4,0,0.5c-0.5,0.4-0.8,0.6-1.1,0.8c-0.3,0.2-0.6,0.4-1,0.8C120,143.8,119.9,143.8,119.8,143.8
		z"/>
	<path class="st13" d="M139.5,111.7c-2.4-3.7-6.5-6.2-11.1-6.9l0.2-0.1l-0.3,0c-3.1-0.4-5.7-0.4-8,0.1c-2.8,0.6-5.2,2.1-6.8,4
		c-2.4,2.9-3,6.9-3.3,10.5c-0.2,2-0.3,4,0.6,5.7c1,1.8,2.9,2.8,4.7,3.6c3.9,1.7,8.1,2.8,12.3,3.3c0.8,0.1,1.8,0.2,2.8,0.2
		c2,0,4.2-0.3,6-1.4c2-1.2,3.5-3.2,4.4-5.8C142.6,120.6,142,115.5,139.5,111.7L139.5,111.7z"/>
	<path class="st14" d="M122.3,103.2c0-1.5-0.3-3-0.7-4.5c-0.1-0.2-0.1-0.4-0.3-0.6c-0.2-0.2-0.6-0.1-0.8,0.1
		c-0.2,0.1-0.3,0.4-0.5,0.6c-1,1.8-1.5,3.8-2,5.7c-0.1,0.3-0.2,0.7-0.1,1c0,0.4,0.2,0.7,0.5,0.9c0.1,0.1,0.3,0.1,0.4,0.1
		c0.2,0,0.4-0.1,0.5-0.2c1.1-0.2,2.3-0.6,2.8-1.6C122.3,104.3,122.3,103.7,122.3,103.2L122.3,103.2z"/>
	<path class="st15" d="M121,100.3c-0.5,0-0.9-0.1-1.3-0.3c-0.2-0.1-0.2-0.3-0.1-0.5c0.1-0.2,0.3-0.2,0.5-0.1
		c0.4,0.2,0.8,0.3,1.3,0.2c0.2,0,0.4,0.1,0.4,0.3c0,0.2-0.1,0.4-0.3,0.4C121.3,100.3,121.2,100.3,121,100.3L121,100.3z"/>
	<path class="st15" d="M120.5,102.5c-0.6,0-1.2-0.2-1.6-0.6c-0.1-0.1-0.2-0.3,0-0.5c0.1-0.1,0.3-0.2,0.5,0c0.5,0.5,1.3,0.6,1.9,0.3
		c0.2-0.1,0.4,0,0.5,0.2c0.1,0.2,0,0.4-0.2,0.5C121.3,102.4,120.9,102.5,120.5,102.5L120.5,102.5z"/>
	<path class="st14" d="M141.7,102.1c0-0.2,0-0.5-0.2-0.6c-0.2-0.2-0.5-0.2-0.8-0.1c-0.2,0.1-0.4,0.3-0.6,0.5
		c-1.4,1.5-2.4,3.3-3.3,5.1c-0.2,0.3-0.3,0.6-0.4,0.9c0,0.3,1.2,1.2,2.1,1.6c0.4,0.2,0.9,0.4,1.3,0.4c0.2,0,0.4-0.1,0.5-0.2
		c0.3-0.4,0.8-2.2,1-2.9C141.6,105.2,141.8,103.6,141.7,102.1L141.7,102.1z"/>
	<path class="st15" d="M141.4,104.7c-0.1,0-0.1,0-0.2,0c-0.7-0.3-1.4-0.7-2.1-0.9c-0.2-0.1-0.3-0.3-0.2-0.4c0.1-0.2,0.3-0.3,0.4-0.2
		c0.7,0.3,1.5,0.6,2.2,1c0.2,0.1,0.2,0.3,0.2,0.5C141.6,104.6,141.5,104.7,141.4,104.7L141.4,104.7z"/>
	<path class="st15" d="M140.9,106.3C140.9,106.3,140.9,106.3,140.9,106.3c-1-0.2-1.9-0.6-2.8-1.1c-0.2-0.1-0.2-0.3-0.1-0.5
		c0.1-0.2,0.3-0.2,0.5-0.1c0.8,0.5,1.6,0.8,2.5,1c0.2,0,0.3,0.2,0.3,0.4C141.2,106.2,141.1,106.3,140.9,106.3L140.9,106.3z"/>
	<path class="st16" d="M140,108c-0.5-1-1.5-1.6-2.5-1.5c0.2-0.9-0.3-1.9-1.1-2.4c-0.8-0.5-1.9-0.4-2.6,0.3c-0.6-1.1-1.6-2-2.9-2.3
		c-1.3-0.3-2.6,0-3.6,0.8c-1.7-1.8-3.2-1.6-4.5-1.3c-2.1,0.5-4.1,1.8-5.5,3.4c-0.7,0.8-1,1.5-0.8,2.1c0.1,0.4,0.3,0.8,0.7,1
		c0.5,0.3,1.2,0.5,1.8,0.3c0.9-0.2,1.6-0.7,2.2-1.2c0.1-0.1,0.2-0.2,0.4-0.3c0.5,0.5,1.2,0.7,1.9,0.7h0c0.8,0,1.5-0.3,2.1-0.8
		c0,0.7,0.5,1.4,1.2,1.8c0.7,0.3,1.5,0.3,2.4,0.1c0.6-0.2,1.2-0.5,1.9-1c0,1,0.6,2,1.5,2.4c0.9,0.4,2,0.3,2.8-0.3
		c-0.2,0.8,0.5,1.6,1,2.1c0.5,0.5,1,1,1.7,1c0,0,0,0,0,0c0.5,0,1-0.2,1.3-0.7c0.3-0.3,0.5-0.8,0.6-1.4
		C140.4,110.2,140.5,109,140,108L140,108z"/>
	<path class="st15" d="M131.8,114.8c-0.5-0.1-0.9,0.2-1,0.7c-0.1,0.5,0.2,0.9,0.7,1c0.5,0.1,0.9-0.2,1-0.7
		C132.6,115.4,132.3,114.9,131.8,114.8z"/>
	<path class="st15" d="M123.8,112.9c-0.5-0.1-0.9,0.2-1,0.7c-0.1,0.5,0.2,0.9,0.7,1s0.9-0.2,1-0.7
		C124.6,113.5,124.2,113,123.8,112.9z"/>
	<path class="st15" d="M127.8,117.1C127.8,117.1,127.7,117.1,127.8,117.1c-0.3,0-0.4-0.2-0.3-0.4c0-0.2-0.1-0.5-0.4-0.6
		c-0.2-0.1-0.5,0.1-0.6,0.3c-0.1,0.2-0.3,0.3-0.4,0.2c-0.2-0.1-0.3-0.3-0.2-0.4c0.2-0.6,0.9-0.9,1.5-0.7c0.6,0.2,1,0.8,0.8,1.4
		C128.1,117,127.9,117.1,127.8,117.1L127.8,117.1z"/>
	<path class="st15" d="M126.4,122.6c-0.2,0-0.5,0-0.7-0.1c-1.4-0.3-2.6-1.6-2.7-3.1c0-0.2,0.1-0.4,0.3-0.4c0.2,0,0.4,0.1,0.4,0.3
		c0.1,1.1,1,2.2,2.1,2.5c1.1,0.2,2.4-0.3,3-1.3c0.1-0.1,0.2-0.2,0.3-0.2c0.1,0,0.2,0.1,0.3,0.1l0,0c0.1,0.2,0.1,0.4-0.1,0.5
		C128.7,122,127.6,122.6,126.4,122.6L126.4,122.6z"/>
	<path class="st15" d="M132.6,112.3c-0.1,0-0.3-0.1-0.3-0.2c-0.1-0.2,0-0.4,0.2-0.4c0.5-0.2,1-0.4,1.6-0.5c0.1,0,0.2,0,0.3,0.1
		c0.1,0.1,0.1,0.2,0.1,0.3c0,0.2-0.2,0.3-0.4,0.3c-0.2,0.1-0.6,0.2-1.3,0.4C132.6,112.3,132.6,112.3,132.6,112.3L132.6,112.3z"/>
	<path class="st15" d="M124.7,110.8C124.7,110.8,124.7,110.8,124.7,110.8c-0.2,0-0.2-0.1-0.3-0.2c-0.1-0.1-0.8-0.9-1-1.1
		c-0.1-0.1-0.1-0.3,0-0.5c0.1-0.1,0.3-0.1,0.5,0c0.4,0.4,0.8,0.8,1.1,1.3c0.1,0.1,0.1,0.2,0,0.4C125,110.7,124.9,110.8,124.7,110.8z
		"/>
	<path class="st14" d="M138.2,120.1c-0.3-0.9-1.2-1.5-2.1-1.4c0,0-0.2,0-0.3,0c-0.5,0.1-1,0.8-1.1,1.3c-0.2,0.7,0.2,1.4,0.8,1.8
		c0.6,0.4,1.4,0.3,2,0c0.3-0.2,0.6-0.4,0.8-0.7C138.4,120.8,138.3,120.4,138.2,120.1z"/>
	<path class="st14" d="M116.9,114.5C116.9,114.5,116.9,114.5,116.9,114.5c-0.7-0.2-1.5,0.3-1.8,1c-0.3,0.7-0.1,1.6,0.5,2.1
		c0.6,0.5,1.4,0.6,2.1,0.3c0.4-0.2,0.7-0.6,0.8-1c0.1-0.3,0-0.7-0.2-1C118,115.1,117.5,114.7,116.9,114.5L116.9,114.5z"/>
	<path class="st17" d="M148.2,125.4c0.2-0.4,0.4-0.8,0.6-1.2l-2.3-2.1c0,0-0.1-0.1-0.2,0c-0.1,0-0.1,0.1-0.1,0.2c0,0,0,0,0,0
		l1.5,3.9C148,125.9,148.1,125.6,148.2,125.4L148.2,125.4z"/>
	<path class="st17" d="M161.3,118.9c0,0-0.1-0.1-0.2-0.1l-3.1,1c0,0,0,0,0,0c0.6,0.4,1,1,1.3,1.6l1.9-2.4
		C161.4,119,161.4,118.9,161.3,118.9L161.3,118.9z"/>
	<path class="st17" d="M158.7,131.1c0-0.1,0-0.1-0.1-0.1l-1.8-0.8c-0.4,0.5-0.9,1-1.5,1.6l3.2-0.5
		C158.7,131.2,158.7,131.2,158.7,131.1L158.7,131.1z"/>
	<path class="st18" d="M145.6,141.9c0-0.5-0.3-0.9-0.5-1.1c0.4-0.3,3.4-2.8,6.5-5.6l-0.4-0.5c0,0,0,0,0-0.1c0,0,0-0.1,0-0.1
		c0-0.1,0-0.1,0.1-0.1h0l0,0c0,0,0.4-0.1,0.7-0.2c0.4-0.2,0.6-0.4,0.6-0.4l0,0l0,0c0.1,0,0.1,0,0.2,0c0.1,0,0.1,0.1,0.1,0.1l0.1,0.2
		c0.8-0.8,1.7-1.6,2.4-2.3c0.6-0.6,1.1-1.1,1.5-1.6c0.4-0.5,0.8-0.9,1.1-1.3c0.4-0.6,0.8-1.2,1.1-1.8l-0.4,0.1c-0.1,0-0.1,0-0.2-0.1
		c0,0,0-0.1-0.1-0.1c0,0,0-0.1,0-0.1v0c0,0,0.2-0.4,0.2-0.7c0.1-0.4-0.1-0.7-0.1-0.7l0,0v0c0-0.1,0-0.1,0.1-0.2c0.1,0,0.1,0,0.2,0
		l0.9,0.3c0.1-0.4,0.2-0.8,0.2-1.2c0.1-1-0.1-2-0.5-2.8c-0.3-0.7-0.8-1.2-1.3-1.6c0,0,0,0,0,0c-1-0.7-2.3-0.9-3.5-0.6
		c0.2,0.5,0.4,0.9,0.3,0.9c0,0,0,0-0.1,0l-0.6,0c-0.1,0-0.7,0.2-0.8,0.2c-0.1,0.1-0.5,0.3-0.7,0.2c0,0,0,0-0.1-0.1c0,0,0-0.1,0-0.2
		l0-0.5c-0.2,0.1-0.5,0.3-0.7,0.4c-1.4,1-2.3,2.4-3.2,4c-0.2,0.4-0.4,0.8-0.6,1.2c-0.1,0.2-0.2,0.5-0.3,0.7c-0.6,1.3-1,2.8-1.4,4.4
		l0.2,0c0.1,0,0.1,0,0.2,0c0.1,0,0.1,0.1,0.1,0.2v0c0,0-0.1,0.4-0.1,0.7c0,0.4,0.2,0.7,0.2,0.7l0,0v0c0,0.1,0,0.1-0.1,0.2
		c0,0-0.1,0.1-0.2,0.1l-0.7-0.1c-0.7,2.9-1.5,5.6-3.1,7.1c-0.2-0.1-0.5-0.1-0.7,0.1c-0.3,0.2-0.5,0.4-0.6,0.8c-0.1,0.3,0,0.5,0,0.8
		c0.1,0.3,0.3,0.6,0.5,0.8c0.4,0.4,1,0.7,1.5,0.9c0.7,0.3,1.3,0.3,1.6,0C145.5,142.4,145.6,142.1,145.6,141.9L145.6,141.9z
		 M154.1,126C154,126,154,126,154.1,126l-0.7-1c0,0,0-0.1-0.1-0.1c0-0.1,0-0.2,0-0.2c0-0.1,0.1-0.2,0.2-0.3l3-1.3c0,0,0.1,0,0.1,0
		c0,0,0,0.1,0,0.1L154.1,126C154.1,126,154.1,126,154.1,126L154.1,126z M151.1,130.8c-0.1-0.1-0.2-0.3-0.3-0.5
		c-0.3-0.8-0.2-2.2-0.1-2.3c0-0.1,0.1-0.2,0.2-0.2c0.1,0,0.2,0,0.3,0.1c0,0.1,1.1,1.8,0.8,2.6c0,0.1-0.1,0.2-0.3,0.3
		C151.4,131,151.2,131,151.1,130.8z"/>
	<path class="st17" d="M162,126.4c0-0.1-0.1-0.2-0.1-0.2l-2.2-0.7l-0.9-0.3c-0.1,0-0.1,0-0.2,0c-0.1,0-0.1,0.1-0.1,0.2v0l0,0
		c0,0,0.1,0.3,0.1,0.7c0,0.3-0.2,0.7-0.2,0.7v0c0,0,0,0.1,0,0.1c0,0,0,0.1,0.1,0.1c0,0,0.1,0.1,0.2,0.1l0.4-0.1l2.8-0.5
		C161.9,126.5,162,126.5,162,126.4L162,126.4z"/>
	<path class="st17" d="M153.7,136.9L153,134l-0.1-0.2c0-0.1-0.1-0.1-0.1-0.1c-0.1,0-0.1,0-0.2,0l0,0l0,0c0,0-0.2,0.3-0.6,0.4
		c-0.3,0.1-0.7,0.2-0.7,0.2h0l0,0c-0.1,0-0.1,0.1-0.1,0.1c0,0,0,0.1,0,0.1c0,0,0,0.1,0,0.1l0.4,0.5l1.7,1.9c0.1,0.1,0.2,0.1,0.3,0
		C153.7,137.1,153.7,137,153.7,136.9L153.7,136.9z"/>
	<path class="st17" d="M147,132.1L147,132.1L147,132.1c0,0-0.2-0.3-0.2-0.7c0-0.3,0.1-0.7,0.1-0.7v0c0-0.1,0-0.1-0.1-0.2
		c-0.1,0-0.1,0-0.2,0l-0.2,0l-2.9,0.9c-0.1,0-0.2,0.1-0.1,0.2c0,0,0,0,0,0.1c0,0.1,0.1,0.1,0.2,0.1l2.5,0.4l0.7,0.1
		c0.1,0,0.1,0,0.2-0.1C146.9,132.2,147,132.1,147,132.1L147,132.1z"/>
	<path class="st17" d="M154.6,119.1c-0.3-0.8-0.9-1.8-1.2-2.4c0-0.1-0.1-0.1-0.2-0.1c-0.1,0-0.2,0.1-0.2,0.2l-0.2,3l0,0.5
		c0,0.1,0,0.1,0,0.2c0,0,0,0,0,0.1c0.2,0.1,0.5-0.1,0.7-0.2c0.1,0,0.7-0.2,0.8-0.2l0.6,0c0,0,0.1,0,0.1,0
		C154.9,120,154.8,119.6,154.6,119.1L154.6,119.1z"/>
	<path class="st17" d="M156.7,123.3c0,0,0-0.1,0-0.1c0,0-0.1-0.1-0.1,0l-3,1.3c-0.1,0-0.2,0.1-0.2,0.3c0,0.1,0,0.2,0,0.2
		c0,0,0,0.1,0,0.1l0.6,0.9c0,0,0,0,0.1,0c0,0,0.1,0,0.1,0L156.7,123.3L156.7,123.3z"/>
	<path class="st17" d="M151.9,130.6c0.2-0.7-0.8-2.5-0.8-2.6c0-0.1-0.1-0.1-0.3-0.1c-0.1,0-0.2,0.1-0.2,0.2c0,0.1-0.1,1.5,0.1,2.3
		c0.1,0.2,0.2,0.4,0.3,0.5c0.2,0.1,0.4,0.1,0.6,0C151.8,130.8,151.9,130.7,151.9,130.6z"/>
	<g>
		<defs>
			<rect id="SVGID_00000150070299244329788190000015840616510286988966_" x="99" y="8" width="42" height="38"/>
		</defs>
		<clipPath id="SVGID_00000116218066147525757240000016270908041639363751_">
			<use xlink:href="#SVGID_00000150070299244329788190000015840616510286988966_"  style="overflow:visible;"/>
		</clipPath>
		<g style="clip-path:url(#SVGID_00000116218066147525757240000016270908041639363751_);">
			<path class="st20" d="M140.5,24.5c-0.1,1.4-1.4,2.4-2.8,2.2c-1.4-0.1-2.4-1.4-2.3-2.8c0.1-1.4,1.4-2.4,2.8-2.2
				C139.6,21.9,140.6,23.1,140.5,24.5L140.5,24.5z"/>
			<path class="st21" d="M137.6,27.3c-1.7-0.2-2.9-1.7-2.7-3.3c0.2-1.7,1.7-2.9,3.4-2.7c1.7,0.2,2.9,1.7,2.7,3.3
				C140.8,26.2,139.3,27.4,137.6,27.3z M138.2,22.3c-1.1-0.1-2.1,0.7-2.2,1.8c-0.1,1.1,0.7,2.1,1.8,2.2c1.1,0.1,2.1-0.7,2.2-1.8
				C140.1,23.4,139.3,22.4,138.2,22.3L138.2,22.3z"/>
			<path class="st13" d="M136.9,23.4c0.8-0.8,0.9-1.9,0.3-2.8c-2.4-3.8-4.3-7.8-8.7-9.7c-7.4-4-17.5-2.5-21,5.5
				c-0.1,0.1-1,2-0.8,2.3c0.4,0.3,1.3-0.2,1.8-0.2c5.9,0.2,11.4,1.9,17.1,3.4C129.6,22.8,133.8,26.4,136.9,23.4L136.9,23.4z"/>
			<path class="st22" d="M133.4,25.2c-1.6-0.2-3.2-0.9-4.7-1.6c-1-0.5-2.1-1-3.1-1.2c-0.9-0.2-1.8-0.5-2.7-0.7
				c-4.8-1.3-9.4-2.5-14.3-2.6c-0.1,0-0.3,0.1-0.5,0.1c-0.5,0.1-1.2,0.3-1.7-0.1c-0.2-0.2-0.3-0.5-0.3-0.8c0-0.3,0.4-1.6,0.9-2.2
				c1.5-3.4,4.2-5.9,7.9-7.1c4.4-1.5,9.6-1,13.9,1.4c4,1.8,6.1,5.2,8.1,8.5c0.3,0.5,0.6,1,0.9,1.5c0.7,1.2,0.6,2.7-0.4,3.6
				C136.2,25,134.8,25.3,133.4,25.2L133.4,25.2z M111.2,17.9c4,0.4,7.9,1.4,12,2.5c0.9,0.2,1.8,0.5,2.7,0.7c1.1,0.3,2.2,0.8,3.3,1.3
				c2.9,1.3,5.3,2.4,7.3,0.5c0.5-0.5,0.6-1.4,0.2-2.1c-0.3-0.5-0.6-1-0.9-1.5c-2-3.3-3.9-6.4-7.5-8c0,0,0,0-0.1,0
				c-4-2.2-8.8-2.7-12.9-1.3c-3.3,1.1-5.8,3.4-7.1,6.5c0,0.1-0.1,0.1-0.1,0.2c-0.1,0.2-0.4,0.8-0.5,1.2c0.1,0,0.2,0,0.3-0.1
				c0.3-0.1,0.6-0.2,0.9-0.2C109.5,17.8,110.4,17.8,111.2,17.9L111.2,17.9z"/>
			<path class="st23" d="M128.9,28.5c1.8,0.6,2.7,2.5,2.3,4.3c-3,11-11.8-1.6-21.3,0.5c-3.3,0.6-9.5-6.1-6.3-9.3
				c9.4-0.6,13.9,1.4,24.8,4.4C128.5,28.4,128.7,28.4,128.9,28.5z"/>
			<path class="st21" d="M126.3,37.8c-1.6-0.2-3.4-1-5.4-1.8c-3.3-1.4-7-3.1-10.8-2.2c-2.3,0.5-5.5-2.1-7-4.7
				c-1.2-2.1-1.1-4.1,0.2-5.4c0.1-0.1,0.2-0.1,0.3-0.2c8-0.5,12.5,0.8,20,3c1.5,0.4,3.1,0.9,4.9,1.4c0.2,0,0.4,0,0.6,0.1
				c2,0.7,3.2,2.8,2.6,4.9c-0.6,2.4-1.6,3.9-3,4.5C128,37.8,127.1,37.9,126.3,37.8L126.3,37.8z M113.5,32.6c2.8,0.3,5.4,1.4,7.8,2.5
				c2.8,1.2,5.3,2.3,7,1.5c1.1-0.5,1.9-1.8,2.4-3.9c0.4-1.6-0.4-3.2-1.9-3.7c-0.2-0.1-0.3-0.1-0.3-0.1c-0.1,0-0.1,0-0.2,0
				c-1.8-0.5-3.5-1-5-1.4c-7.6-2.2-11.8-3.4-19.4-3c-1.1,1.3-0.4,3.1,0.1,4.1c1.4,2.5,4.2,4.5,5.8,4.2
				C111.1,32.5,112.3,32.5,113.5,32.6L113.5,32.6z"/>
			<path class="st20" d="M116.6,19.4c-1.7-0.3-3.4-0.5-5-0.8c-1.8-0.3-3.7-0.6-5.5,0c-1.8,0.5-3.3,2.2-3.1,4c0.1,0.5,0.3,1,0.6,1.3
				c0.6,0.6,1.6,0.7,2.4,0.8c1.2,0.1,2.5,0.3,3.7,0.4c2.8,0.3,5.7,0.6,8.4,1.3c3.4,0.9,6.6,2.5,10.1,3.2c1.2,0.3,2.4,0.4,3.6,0.2
				c1.2-0.2,2.3-0.9,2.9-1.9c0.2-0.3,0.3-0.7,0.3-1.1c0-0.7-0.5-1.3-1.1-1.8c-0.6-0.5-1.4-0.9-2.2-1.2
				C126.8,21.8,121.7,20.3,116.6,19.4L116.6,19.4z"/>
			<path class="st21" d="M129.6,30.4c-0.6-0.1-1.1-0.2-1.6-0.3c-1.9-0.4-3.8-1.1-5.6-1.7c-1.5-0.5-3-1.1-4.5-1.5
				c-2.7-0.7-5.6-1-8.3-1.3l-3.7-0.4c-0.8-0.1-2-0.2-2.7-1c-0.4-0.4-0.7-1-0.7-1.6c-0.2-1.6,1-3.8,3.5-4.6c1.9-0.6,4-0.3,5.7,0
				l5,0.8c5,0.8,10.1,2.3,15.1,4.5c0.8,0.4,1.6,0.7,2.3,1.3c0.8,0.6,1.2,1.4,1.2,2.2c0,0.4-0.1,0.9-0.3,1.3
				c-0.6,1.1-1.8,1.9-3.2,2.2C131,30.5,130.3,30.5,129.6,30.4L129.6,30.4z M110.1,24.7c2.7,0.3,5.4,0.6,8,1.3c1.6,0.4,3.1,1,4.6,1.5
				c1.8,0.6,3.6,1.3,5.4,1.7c0.9,0.2,2.2,0.4,3.4,0.2c1.1-0.2,2.1-0.8,2.5-1.7c0.2-0.3,0.2-0.6,0.2-0.8c0-0.6-0.6-1.1-0.9-1.4
				c-0.6-0.5-1.3-0.8-2-1.1c-4.9-2.1-9.9-3.6-14.9-4.4l-5-0.8c-1.7-0.3-3.6-0.6-5.3-0.1c-1.5,0.5-3,1.9-2.8,3.5
				c0.1,0.4,0.2,0.8,0.5,1c0.5,0.5,1.3,0.6,2.1,0.7l3.7,0.4C109.9,24.6,110,24.7,110.1,24.7L110.1,24.7z"/>
			<path class="st24" d="M113.2,28.5c-0.5-0.1-1,0.4-1.1,1c-0.1,0.6,0.3,1.2,0.9,1.2s1-0.4,1.1-1C114.1,29.1,113.7,28.5,113.2,28.5z
				"/>
			<path class="st24" d="M121.2,30.4c-0.5-0.1-1,0.4-1.1,1c-0.1,0.6,0.3,1.2,0.9,1.2c0.5,0.1,1-0.4,1.1-1
				C122.2,31,121.8,30.4,121.2,30.4z"/>
			<path class="st20" d="M102.5,25.4c-2.3,1.8-3.7,4.8-2.5,7.5c1.1,2.4,2.4,4.1,4.4,5.7c1.1,0.9,3.2,1.7,3.7,3
				c0.5,1.3,0.4,2.9-0.7,3.8c4-0.1,7.9,0,11.9,0.1c1.4,0,2.9,0.1,4.3-0.2c2-0.4,3.8-1.5,5.1-3c0.9-1,1.5-2.3,2.1-3.5
				c0.5-1,1-2,1.1-3.1c0.2-1.1-0.3-2.2-1-3.1c-0.5,1.7-1.6,3-3.4,3.4c-2.2,0.5-4.4-0.5-6.5-1.3c-3.5-1.3-7.1-1.9-10.8-2
				c-0.9,0-1.7,0-2.5-0.3c-1.4-0.4-2.4-1.5-3.3-2.6C103.2,28.3,102.6,27.2,102.5,25.4L102.5,25.4z"/>
			<path class="st21" d="M107.3,45.9c-0.2,0-0.4-0.1-0.4-0.3c-0.1-0.2,0-0.4,0.2-0.6c0.9-0.7,1-2.2,0.6-3.2
				c-0.3-0.7-1.3-1.4-2.2-1.9c-0.5-0.3-0.9-0.6-1.3-0.9c-2.2-1.7-3.5-3.5-4.6-5.9c-1.3-3,0.4-6.2,2.7-8.1c0.1-0.1,0.4-0.1,0.5-0.1
				c0.2,0.1,0.3,0.2,0.3,0.4c0.1,1.7,0.7,2.7,1.8,4c1,1.2,1.9,2.1,3.1,2.5c0.7,0.2,1.4,0.2,2.1,0.2h0.3c3.8,0.1,7.5,0.7,11,2
				c0.3,0.1,0.5,0.2,0.8,0.3c1.8,0.7,3.7,1.4,5.4,1c1.9-0.4,2.6-1.9,3-3c0.1-0.2,0.2-0.3,0.4-0.4c0.2,0,0.4,0,0.5,0.2
				c0.9,1.3,1.3,2.4,1.1,3.5c-0.2,1.2-0.7,2.2-1.2,3.3c-0.6,1.2-1.2,2.5-2.2,3.6c-1.4,1.6-3.3,2.8-5.4,3.2c-1.4,0.3-2.9,0.2-4.3,0.2
				l-0.1,0C115.3,45.8,111.3,45.8,107.3,45.9C107.3,45.9,107.3,45.9,107.3,45.9L107.3,45.9z M102.1,26.5c-1.6,1.6-2.7,4-1.7,6.2
				c1,2.3,2.3,3.9,4.3,5.5c0.3,0.3,0.7,0.5,1.2,0.8c1,0.6,2.2,1.4,2.6,2.4c0.4,1,0.5,2.3-0.1,3.4c3.6,0,7.2,0,10.8,0.1l0.1,0
				c1.3,0,2.7,0.1,4-0.2c1.9-0.4,3.6-1.4,4.8-2.8c0.9-1,1.5-2.2,2-3.4c0.5-1,0.9-2,1.1-3c0.1-0.6,0-1.2-0.4-1.9
				c-0.7,1.5-1.9,2.4-3.4,2.7c-2.1,0.4-4.1-0.3-6-1c-0.2-0.1-0.5-0.2-0.7-0.3c-3.4-1.2-7-1.9-10.6-2H110c-0.8,0-1.6,0-2.4-0.3
				c-1.5-0.5-2.6-1.8-3.5-2.8C103,28.9,102.4,27.9,102.1,26.5L102.1,26.5z"/>
			<path class="st24" d="M117.1,31.7c-0.9-0.4-2.1-0.2-2.1,0.7c0,0.5,0.3,0.9,0.8,1.1c1,0.4,2.1,0.1,2.1-0.8
				C117.9,32.3,117.5,31.9,117.1,31.7z"/>
			<path class="st24" d="M117.6,36.6c-0.7,0.4-1.5,0.5-2.1,0.4c-0.6-0.2-1-0.5-1.3-1.1c-0.2-0.4-0.8-0.6-1.3-0.4
				c-0.4,0.2-0.6,0.8-0.4,1.2c0.6,1,1.4,1.7,2.5,2c0.2,0.1,0.4,0.1,0.7,0.1c0.9,0.1,1.9-0.1,2.9-0.7c0.4-0.3,0.6-0.8,0.3-1.2
				C118.6,36.5,118,36.3,117.6,36.6L117.6,36.6z"/>
			<path class="st25" d="M105.1,31.2c0.2-2.1,3.2-2.9,4.3-1C110.9,33.2,105.6,35.2,105.1,31.2L105.1,31.2z"/>
			<path class="st25" d="M123,35.2c0.2-2.1,3.2-2.9,4.3-1C128.7,37.3,123.5,39.2,123,35.2z"/>
		</g>
	</g>
	<g>
		<defs>
			
				<rect id="SVGID_00000030487078372779397470000008723882682964733581_" x="119" y="41.8" transform="matrix(0.1979 -0.9802 0.9802 0.1979 55.5061 189.3833)" width="49" height="38"/>
		</defs>
		<clipPath id="SVGID_00000086658420912478763970000014325119266182678161_">
			<use xlink:href="#SVGID_00000030487078372779397470000008723882682964733581_"  style="overflow:visible;"/>
		</clipPath>
		<g style="clip-path:url(#SVGID_00000086658420912478763970000014325119266182678161_);">
			<path class="st27" d="M135.9,59.6c-2.2-0.6-3.8-1.7-5.3-3.1c-0.3-0.3-0.6-0.7-0.9-1.1c-0.3-0.5-0.2-1.1,0.3-1.4
				c0.2-0.2,0.5-0.3,0.8-0.4c1.4-0.6,2.8-1.2,4.2-1.9c1.2-0.6,2.4-1.4,3.5-2.2c0.4-0.3,0.8-0.6,1.2-0.9c-0.2-0.1-0.3-0.2-0.5-0.3
				c-1.8-0.6-3.2-1.8-4.5-3.2c-0.7-0.8-0.6-1.4,0.4-1.8c1.7-0.6,3.3-1.3,4.9-2.1c0.9-0.4,1.7-1,2.5-1.5c0.9-0.6,1.7-1.1,2.6-1.8
				c0.5-0.4,0.9-0.8,1.4-1.3c0.3-0.3,0.6-0.3,0.8,0.1c1,2.1,2.6,3.7,4.2,5.4c1,1,2.1,2,3.2,2.9c0.5,0.5,1.2,0.8,1.7,1.2
				c0.4,0.3,0.7,0.6,0.7,1.2c0,0.4-0.1,0.8-0.5,1c-0.4,0.2-0.8,0.5-1.2,0.6c-1.2,0.5-2.5,0.9-3.7,1.3c-0.1,0-0.2,0.1-0.3,0.1
				c0.1,0.1,0.1,0.2,0.2,0.3c0.9,1.4,2,2.8,3.1,4c1,1.2,2,2.4,3.1,3.5c0.3,0.3,0.6,0.6,0.9,0.9c0.5,0.5,0.6,1.1,0.1,1.7
				c-0.4,0.5-0.9,0.8-1.5,1c-2,0.7-4.1,1.3-6.3,1.3c-0.2,0-0.4,0-0.7,0c0,0.4,0.2,0.7,0.4,1c0.9,1.4,1.9,2.7,2.8,4.1
				c0.1,0.1,0.2,0.3,0.3,0.4c1.3,1.2,2.6,2.5,4.2,3.4c0.6,0.3,1.1,0.7,1.7,1.1c0.7,0.5,0.6,1.1-0.2,1.4c-0.7,0.2-1.4,0.3-2.1,0.5
				c-1.7,0.4-3.3,0.3-5,0.2c-1.1-0.1-2.1-0.1-3.2-0.2c-1.5-0.2-3.1-0.4-4.6-0.6c-1.6-0.2-3.1-0.5-4.7-0.8c-1.6-0.3-3.2-0.4-4.8-0.8
				c-3.6-0.8-7-2.1-10.1-4c-0.6-0.4-1.2-0.8-1.6-1.4c-0.1-0.2-0.3-0.4-0.4-0.6c-0.2-0.5,0-0.9,0.4-1.2c0.2-0.1,0.4-0.2,0.6-0.3
				c0.9-0.3,1.7-0.6,2.6-0.9c0.9-0.4,1.8-0.8,2.7-1.2c0.7-0.3,1.3-0.6,1.9-0.9c1.3-0.5,2.3-1.3,3.4-2.1
				C135,60.2,135.4,59.9,135.9,59.6L135.9,59.6z"/>
			<path class="st28" d="M141.2,74.9C141.2,74.9,141.2,74.9,141.2,74.9c-0.1,0-0.2-0.1-0.2-0.1c-0.6-0.3-1.2-0.2-1.8,0.1
				c-0.2,0.1-0.3,0.3-0.3,0.5c0,0,0,0,0,0c-0.5,1.7-1,3.3-1.4,5c-0.3,1.1-0.5,2.1-0.7,3.2c-0.1,0.6,0.1,0.8,0.6,0.9
				c0.7,0.1,1.3,0.2,2,0.3c0.6,0.1,0.8-0.1,0.9-0.7c0.5-2.2,1-4.4,1.5-6.7C141.7,77.3,142.4,75.1,141.2,74.9L141.2,74.9z"/>
			<path class="st29" d="M149,58.2c-0.1-0.6-0.3-1.2,0.4-1.6c0.3-0.2,1,0.1,1.4,0.5c0.3,0.4,0.3,0.7-0.2,1.3
				c0.4,0.3,0.8,0.4,1.3,0.4c0.5-0.1,1-0.2,1.5-0.3c0.2-0.1,0.5-0.1,0.6,0.2c0.1,0.3-0.1,0.5-0.3,0.6c-1.2,0.3-2.3,0.6-3.5-0.2
				c-0.3-0.2-0.5-0.2-0.9-0.1c-0.5,0.1-1,0.1-1.6,0.1c-0.5,0-1-0.2-1.4-0.6c-0.2-0.2-0.3-0.3-0.6-0.2c-1.1,0.3-2.1,0.1-3.1-0.4
				c-0.3-0.1-0.5-0.2-0.8-0.1c-1.3,0.3-2.4,0.1-3.4-0.8c-0.2-0.2-0.4-0.2-0.6-0.2c-1.7,0.2-3-0.4-4.2-1.5c-0.1-0.1-0.2-0.2-0.2-0.3
				c-0.1-0.3,0.2-0.5,0.4-0.4c0.2,0.1,0.3,0.2,0.4,0.3c0.8,0.7,1.7,1.2,2.8,1.2c0.1,0,0.3,0,0.4,0c-0.1-0.6-0.3-1.3,0.4-1.6
				c0.3-0.2,1,0,1.3,0.3c0.5,0.6,0,1.1-0.3,1.6c0.7,0.7,1.6,0.7,2.5,0.7c-0.2-0.6-0.4-1.2,0.2-1.6c0.3-0.2,0.8-0.1,1.2,0.2
				c0.6,0.4,0.5,1,0.2,1.5c0.7,0.4,1.4,0.6,2.3,0.3c-0.1-0.6-0.3-1.3,0.4-1.7c0.4-0.2,0.9,0.1,1.2,0.5c0.3,0.4,0.2,0.8-0.2,1.4
				C147.3,58.4,147.8,58.5,149,58.2L149,58.2z M138.7,55.4l-0.5-0.1c0.1,0.2,0.1,0.4,0.2,0.6C138.5,55.6,138.6,55.5,138.7,55.4z
				 M146.2,57.1c0.2-0.2,0.1-0.4-0.2-0.4C146.1,56.9,146.1,57,146.2,57.1z M149.9,57.4c-0.1,0-0.1,0.1-0.2,0.1
				c0.1,0.1,0.1,0.2,0.2,0.3c0,0,0.1-0.1,0.1-0.1C150,57.6,149.9,57.5,149.9,57.4L149.9,57.4z M142.4,56.8c0.2-0.4,0.1-0.5-0.3-0.5
				C142.2,56.4,142.3,56.6,142.4,56.8z"/>
			<path class="st29" d="M146.9,46.2c-1.4,1.1-2.3,1-3.4-0.8c-0.2,0.1-0.5,0.2-0.7,0.2c-1.1,0.3-2.2-0.2-2.5-1.1
				c-0.1-0.2-0.1-0.5-0.1-0.8c0-0.2,0.2-0.4,0.4-0.3c0.1,0,0.2,0.2,0.3,0.3c0.2,1,0.9,1.4,1.9,1.1c0.7-0.2,1.3,0,1.7,0.6
				c0.1,0.1,0.2,0.3,0.3,0.4c0.4,0.5,0.8,0.5,1.3,0.1c0.1-0.1,0.3-0.2,0.4-0.4c0.5-0.4,0.7-0.4,1.1,0.1c0.4,0.4,0.9,0.7,1.5,0.6
				c0.4,0,0.8-0.2,1.1-0.5c0.1-0.1,0.1-0.1,0.2-0.2c0.2-0.2,0.6-0.2,0.7,0c0.2,0.3,0,0.5-0.1,0.6c-1,1-2.2,1.1-3.6,0.3
				C147.1,46.4,147,46.3,146.9,46.2L146.9,46.2z"/>
			<path class="st29" d="M133.9,67.6c0.3,0.2,0.8,0.4,1.2,0.7c0.2,0.2,0.2,0.5,0,0.6c-0.4,0.4-0.9,0.7-1.3,1.1
				c-0.3,0.2-0.7,0-0.7-0.4c0-0.2,0.1-0.4,0.1-0.5c0-0.4,0.1-0.7,0.1-1.1C133.3,67.6,133.4,67.5,133.9,67.6L133.9,67.6z"/>
			<path class="st29" d="M142.2,69.8c0.3,0.1,0.5,0.2,0.8,0.3c0.4,0.2,0.5,0.4,0.3,0.8c-0.3,0.4-0.6,0.8-0.9,1.1
				c-0.3,0.3-0.6,0.1-0.7-0.3c-0.1-0.5-0.2-1-0.3-1.5c-0.1-0.3,0.1-0.4,0.4-0.4c0,0,0.1,0,0.1,0C142,69.8,142.1,69.8,142.2,69.8
				C142.2,69.9,142.2,69.9,142.2,69.8L142.2,69.8z"/>
			<path class="st29" d="M147,71.8c-0.1,0.3-0.2,0.7-0.4,1c-0.1,0.1-0.3,0.3-0.4,0.3c-0.1,0-0.3-0.2-0.4-0.3c-0.1,0-0.1-0.1-0.1-0.2
				c-0.1-0.4-0.3-0.9-0.4-1.3c-0.1-0.4,0.1-0.7,0.5-0.6c0.2,0,0.5,0.1,0.7,0.1c0.5,0.1,0.6,0.2,0.5,0.8C147,71.6,147,71.7,147,71.8
				C147,71.8,147,71.8,147,71.8L147,71.8z"/>
			<path class="st29" d="M130.3,66.1c0.3,0.1,0.5,0.2,0.7,0.4c0.4,0.2,0.4,0.5,0.1,0.8c-0.4,0.3-0.8,0.6-1.2,0.9
				c-0.1,0.1-0.4,0.1-0.5,0.1c-0.1-0.1-0.2-0.3-0.2-0.5c0-0.2,0.1-0.4,0.2-0.6c0.1-0.2,0.1-0.3,0.2-0.5
				C129.6,66,129.8,65.9,130.3,66.1L130.3,66.1z"/>
			<path class="st29" d="M138.5,69c0.1,0,0.4,0.1,0.6,0.2c0.3,0.2,0.4,0.4,0.1,0.7c-0.4,0.4-0.7,0.7-1.1,1.1
				c-0.3,0.2-0.6,0.1-0.6-0.3c0-0.5,0-0.9,0-1.4C137.4,69,137.7,68.9,138.5,69L138.5,69z"/>
			<path class="st29" d="M153.8,72.3c0,0.2,0,0.5-0.1,0.7c0,0.2-0.2,0.4-0.3,0.4c-0.2,0-0.4,0-0.5-0.2c-0.3-0.4-0.6-0.8-0.8-1.2
				c-0.2-0.3-0.1-0.5,0.3-0.6c0.2,0,0.3-0.1,0.5-0.1C153.8,71.2,153.9,71.3,153.8,72.3L153.8,72.3z"/>
			<path class="st29" d="M149.5,71.1c0.1,0,0.2,0,0.3,0.1c0.5,0.1,0.6,0.3,0.5,0.8c-0.1,0.4-0.2,0.7-0.4,1.1
				c-0.1,0.1-0.3,0.3-0.5,0.3c-0.1,0-0.3-0.2-0.4-0.4c-0.1-0.4-0.2-0.7-0.3-1.1c-0.1-0.6,0.1-0.8,0.7-0.7
				C149.4,71.1,149.5,71.1,149.5,71.1L149.5,71.1z"/>
			<path class="st30" d="M142.5,66.2c-0.1,0.1-0.1,0.3-0.3,0.4c-0.2,0.2-0.5,0.3-0.8,0.2c-0.3-0.1-0.3-0.4-0.3-0.7
				c0-0.2,0.1-0.3,0.2-0.5c0.2-0.4,0.5-0.5,0.8-0.4C142.4,65.4,142.6,65.8,142.5,66.2L142.5,66.2z"/>
			<path class="st30" d="M138.3,64.6c0.6,0.1,0.8,0.4,0.7,0.9c-0.1,0.4-0.4,0.7-0.8,0.6c-0.4-0.1-0.7-0.5-0.5-1
				C137.7,64.6,137.8,64.5,138.3,64.6L138.3,64.6z"/>
			<path class="st30" d="M146.6,66.8c-0.1,0.5-0.5,0.8-0.9,0.7c-0.4-0.1-0.6-0.4-0.5-0.8c0.1-0.5,0.5-0.8,0.9-0.8
				C146.5,66,146.7,66.4,146.6,66.8z"/>
			<path class="st30" d="M146.6,54.6c-0.1,0.4-0.3,0.6-0.6,0.6c-0.3,0-0.5-0.1-0.6-0.4c-0.1-0.2-0.1-0.8,0.1-0.9
				c0.2-0.1,0.4-0.5,0.8-0.4C146.5,53.7,146.7,54.2,146.6,54.6L146.6,54.6z"/>
			<path class="st30" d="M135.3,64.1c-0.1,0.4-0.4,0.6-0.8,0.6c-0.4-0.1-0.6-0.4-0.6-0.8c0.1-0.4,0.4-0.7,0.8-0.6
				C135.2,63.4,135.4,63.7,135.3,64.1L135.3,64.1z"/>
			<path class="st30" d="M151.1,54.9c-0.1,0.5-0.4,0.8-0.8,0.7c-0.4-0.1-0.6-0.4-0.5-0.8c0.1-0.4,0.5-0.7,0.9-0.7
				C151,54.1,151.2,54.5,151.1,54.9L151.1,54.9z"/>
			<path class="st30" d="M142.1,53.3c0,0,0-0.1,0.1-0.3c0.2-0.2,0.4-0.4,0.7-0.3c0.3,0.1,0.3,0.3,0.3,0.5c0,0.3-0.1,0.5-0.3,0.7
				c-0.1,0.2-0.4,0.3-0.6,0.2c-0.2-0.1-0.2-0.3-0.3-0.5C142,53.7,142.1,53.5,142.1,53.3z"/>
			<path class="st30" d="M139.3,52.6c-0.1,0.4-0.3,0.7-0.6,0.8c-0.4,0.2-0.7,0-0.7-0.4c0.1-0.3,0.2-0.6,0.4-0.8
				c0.2-0.2,0.4-0.3,0.7-0.1C139.2,52.2,139.3,52.4,139.3,52.6L139.3,52.6z"/>
			<path class="st30" d="M148.8,66.8c0.1-0.4,0.4-0.7,0.8-0.6c0.3,0.1,0.5,0.5,0.4,0.9c-0.1,0.4-0.4,0.6-0.8,0.6
				C148.9,67.6,148.8,67.2,148.8,66.8z"/>
			<path class="st30" d="M148.7,44.1c0.1-0.3,0.4-0.6,0.7-0.5c0.3,0.1,0.4,0.4,0.4,0.7c-0.1,0.4-0.4,0.6-0.7,0.6
				C148.7,44.8,148.6,44.5,148.7,44.1L148.7,44.1z"/>
			<path class="st30" d="M145.5,43.2c0.1-0.4,0.3-0.6,0.6-0.5c0.3,0.1,0.5,0.4,0.4,0.7c-0.1,0.4-0.4,0.6-0.7,0.6
				C145.6,44,145.4,43.7,145.5,43.2z"/>
			<path class="st29" d="M135.2,67.3c-0.3-0.2-0.6-0.3-0.8-0.4c-0.2-0.1-0.2-0.3-0.1-0.5c0.1-0.1,0.3-0.1,0.4-0.1
				c0.2,0.1,0.5,0.2,0.7,0.3c0.2,0.1,0.4,0.3,0.3,0.5C135.6,67.2,135.3,67.2,135.2,67.3L135.2,67.3z"/>
			<path class="st30" d="M143.1,42.9c-0.3-0.1-0.5-0.3-0.4-0.6c0.1-0.3,0.4-0.5,0.7-0.4c0.3,0.1,0.5,0.3,0.4,0.6
				C143.7,42.7,143.4,42.9,143.1,42.9L143.1,42.9z"/>
			<path class="st29" d="M146.3,69.2c0.1,0,0.1,0,0.2,0c0.2,0.1,0.4,0.2,0.4,0.4c0,0.2-0.2,0.3-0.5,0.3c-0.2,0-0.5,0-0.7,0
				c-0.1,0-0.3-0.2-0.3-0.3c0-0.1,0.1-0.3,0.3-0.4C145.9,69.2,146.1,69.2,146.3,69.2C146.3,69.2,146.3,69.2,146.3,69.2L146.3,69.2z"
				/>
			<path class="st29" d="M131.4,65c0.1,0.1,0.2,0.2,0.3,0.3c0.1,0.1,0.1,0.3,0,0.4c0,0.1-0.2,0.2-0.3,0.1c-0.3-0.2-0.6-0.4-0.9-0.7
				c-0.1,0,0-0.3,0.1-0.4c0.1-0.1,0.3-0.1,0.4-0.1C131.1,64.7,131.2,64.9,131.4,65C131.4,65,131.4,65,131.4,65L131.4,65z"/>
			<path class="st29" d="M152.7,69.8c0.3,0,0.5,0.1,0.6,0.4c0,0.2-0.2,0.3-0.5,0.3c-0.1,0-0.3,0-0.4,0c-0.2,0-0.4-0.1-0.4-0.3
				c0-0.3,0.2-0.3,0.4-0.4C152.4,69.8,152.6,69.8,152.7,69.8z"/>
			<path class="st29" d="M149.3,70.3c-0.2,0-0.3,0-0.4-0.1c-0.1-0.1-0.3-0.3-0.2-0.4c0.1-0.1,0.2-0.3,0.4-0.3c0.2,0,0.5,0,0.7,0.1
				c0.1,0,0.3,0.2,0.3,0.3c0,0.1-0.2,0.2-0.3,0.3C149.6,70.3,149.4,70.3,149.3,70.3L149.3,70.3z"/>
			<path class="st29" d="M138.5,68.4c-0.1,0-0.3-0.1-0.4-0.2c-0.1-0.1-0.2-0.2-0.1-0.3c0-0.1,0.2-0.3,0.3-0.3c0.3,0,0.5,0.1,0.7,0.2
				c0.2,0.1,0.3,0.3,0.2,0.4c-0.1,0.1-0.3,0.1-0.4,0.2C138.6,68.4,138.6,68.4,138.5,68.4L138.5,68.4z"/>
			<path class="st29" d="M142.3,69.3c-0.2-0.1-0.5,0-0.5-0.4c0-0.2,0.3-0.3,0.7-0.2c0.4,0.1,0.6,0.3,0.6,0.5
				C143,69.4,142.9,69.4,142.3,69.3L142.3,69.3z"/>
		</g>
	</g>
</g>
</svg>
