<?xml version="1.0" encoding="utf-8"?>
<!-- Generator: Adobe Illustrator 27.0.1, SVG Export Plug-In . SVG Version: 6.00 Build 0)  -->
<svg version="1.1" id="レイヤー_1" xmlns="http://www.w3.org/2000/svg" xmlns:xlink="http://www.w3.org/1999/xlink" x="0px"
	 y="0px" viewBox="0 0 168 168" style="enable-background:new 0 0 168 168;" xml:space="preserve">
<style type="text/css">
	.st0{fill:#FF8F44;}
	.st1{fill:#422307;}
	.st2{fill-rule:evenodd;clip-rule:evenodd;fill:#FFFFFF;}
	.st3{clip-path:url(#SVGID_00000025418387611658129890000002591679185581956535_);}
	.st4{fill:#D78551;}
	.st5{fill:#FFF6E6;}
	.st6{fill:#A46441;}
	.st7{fill:#FFFAF4;}
	.st8{clip-path:url(#SVGID_00000140000569565428780190000012520703692843159228_);}
	.st9{fill:#FFD65C;}
	.st10{fill:#FBEDD9;}
	.st11{clip-path:url(#SVGID_00000038371325040947426690000010854083742860599451_);}
	.st12{fill:#4E4C49;}
	.st13{fill:#FF6E0D;}
	.st14{clip-path:url(#SVGID_00000045608296313129975090000003431724283065315761_);}
	.st15{fill:#F2D1DE;}
	.st16{fill:#46433F;}
	.st17{clip-path:url(#SVGID_00000088835112684494954990000009012262053888542337_);}
	.st18{fill:#E2B03B;}
	.st19{clip-path:url(#SVGID_00000134244851925435892620000009320369694394212753_);}
	.st20{fill:#FF4C2B;}
	.st21{fill:#A52906;}
	.st22{fill:#2F2B23;}
</style>
<g>
	<path class="st0" d="M10,0h148c5.5,0,10,4.5,10,10v148c0,5.5-4.5,10-10,10H10c-5.5,0-10-4.5-10-10V10C0,4.5,4.5,0,10,0z"/>
	<path class="st1" d="M60.8,94.3l-1,21.8l7.5-0.2l-0.4-25.2c0.6,0.8,5.8,6.1,5.8,6.1l3.9-8.8c-5.2-1.7-9.2-4.3-9.2-4.3v-2.3l7,0.3
		l0.2-8L66.5,74l0.6-7.5c3.7-1.5,7.3-4.7,7.3-4.7l-5.8-6.5c-1.9,3.4-14.1,8.9-20.2,11.4c5.8,2,10.8,1.6,12.7,1.2l0.6,6.5l-14.3-0.2
		l-0.3,7.8L61,81.3l-0.1,1.9c-2.1,6.2-8.9,11.3-16,16.9C53,100.7,59.1,96.7,60.8,94.3z M85.2,71.8L78.5,75c0.7,0.9,3.4,8.6,3.4,8.6
		l7.1-4C88.2,76.3,85.2,71.8,85.2,71.8z M113.6,70.6c-0.3,1.4-8,9.8-8,9.8c9.9,0.9,14.5-2.7,14.5-2.7L113.6,70.6z M100.9,95.2
		c1.8-7.5,1.5-38.2,1.5-38.2l-8.7-0.2c0.9,31.3,1,43.5-18.3,57.5c14-0.8,20.9-10.1,22.3-13.3c6.1,10.2,18.3,16.1,18.1,15.9l5.5-11.7
		C111.8,106.2,100.9,95.2,100.9,95.2z"/>
	<path class="st2" d="M67.2,115.9l-7.5,0.2l1-21.8c-0.7,1-2.1,2.3-4.2,3.4c-1.3,0.7-2.8,1.3-4.5,1.8c-2.2,0.6-4.6,0.9-7.3,0.7
		c0.6-0.5,1.2-1,1.8-1.4c1.2-1,2.5-2,3.6-2.9c4.1-3.4,7.7-6.7,9.6-10.4c0.4-0.7,0.7-1.4,0.9-2.2l0.1-1.9l-13.8,0.6l0.3-7.8l14.3,0.2
		L61,67.8c-0.8,0.2-2,0.3-3.5,0.3c-0.7,0-1.5,0-2.4-0.1c-2-0.2-4.3-0.6-6.8-1.4c1.7-0.7,3.9-1.6,6.2-2.7c4-1.8,8.3-4,11.1-6
		c1.4-1,2.5-1.9,2.9-2.7l5.8,6.5c0,0-1.3,1.2-3.2,2.4c-1.2,0.8-2.7,1.7-4.1,2.3L66.5,74l7.9-0.3l-0.2,8l-7-0.3v2.3
		c0,0,1.3,0.8,3.3,1.8c0.6,0.3,1.4,0.7,2.2,1c1.1,0.5,2.4,1,3.7,1.4l-3.9,8.8c0,0-0.7-0.8-1.7-1.8c-0.4-0.4-0.9-0.9-1.3-1.4
		c-1.3-1.3-2.5-2.6-2.8-3L67.2,115.9z M71,100.5l0.3,15.4c0,2.2-1.7,4-3.9,4.1l-7.5,0.2c-1.1,0-2.2-0.4-3-1.2
		c-0.8-0.8-1.2-1.9-1.1-3l0.6-13.7c-3.2,1.3-7.2,2.2-11.8,1.9c-1.6-0.1-3.1-1.2-3.6-2.8c-0.5-1.6,0-3.3,1.3-4.3
		c0.6-0.5,1.3-1,1.9-1.5c2.9-2.3,5.5-4.4,7.7-6.6c1.2-1.2,2.3-2.3,3.1-3.4l-7.8,0.3c-1.1,0-2.2-0.4-3-1.2c-0.8-0.8-1.2-1.9-1.2-3
		l0.3-7.8c0.1-1.9,1.4-3.4,3.1-3.8c-1.3-0.7-2.2-2-2.2-3.5c0-1.7,0.9-3.2,2.5-3.8c3-1.2,7.5-3.2,11.4-5.2c2-1,3.7-2,5-2.9
		c1.3-0.9,1.7-1.4,1.8-1.5c0,0,0,0,0,0c0.6-1.1,1.8-1.9,3.1-2c1.3-0.1,2.6,0.3,3.4,1.3l5.8,6.5c0.7,0.8,1.1,1.8,1,2.9
		c-0.1,1.1-0.5,2.1-1.3,2.8l-2.6-3c2.6,3,2.6,3,2.6,3l0,0l0,0l0,0c0,0-0.1,0.1-0.1,0.1c-0.1,0.1-0.3,0.3-0.5,0.4
		c-0.4,0.4-1.1,0.9-1.8,1.4c-1,0.7-2.2,1.5-3.6,2.3l-0.1,0.7l3.4-0.1c1.1,0,2.2,0.4,2.9,1.2c0.1,0.1,0.1,0.2,0.2,0.2l6.1-2.9
		c1.8-0.8,3.9-0.3,5,1.4l-3.3,2.2L78.5,75c0.2,0.2,0.4,0.8,0.7,1.5c0.4,0.9,0.8,2.1,1.2,3.2c0.7,2,1.4,3.8,1.4,3.8l7.1-4
		c-0.7-3.4-3.7-7.8-3.7-7.8c3.3-2.2,3.3-2.2,3.3-2.2l0,0l0,0l0,0l0,0.1c0,0,0.1,0.1,0.1,0.2c0.1,0.1,0.2,0.4,0.4,0.6
		c0.3,0.4,0.6,0.9,0.9,1.6c0-4.4-0.1-9.4-0.3-15c0-1.1,0.4-2.2,1.2-2.9c0.8-0.8,1.8-1.2,2.9-1.2l8.7,0.2c2.2,0,3.9,1.8,3.9,4l-4,0
		l-8.7-0.2c0,1.4,0.1,2.7,0.1,4c0.6,24.7,0.2,36.8-12.1,48.3c-1.8,1.7-3.9,3.5-6.4,5.2c3.2-0.2,6-0.8,8.4-1.7c5.4-2,9.2-5.2,11.4-8
		c1.2-1.5,2-2.8,2.4-3.7c0.8,1.3,1.6,2.5,2.6,3.7c3.9,4.8,8.8,8.3,12,10.3c0.1,0,0.1,0.1,0.2,0.1c1.3,0.8,2.4,1.4,2.9,1.7
		c0.2,0.1,0.4,0.2,0.4,0.2c0,0,0,0,0,0l5.5-11.7c-1.4,0.1-2.8,0-4.3-0.3c-8.2-1.8-16-9.8-16-9.8c0.6-2.4,1-7.4,1.2-12.9
		c0.1-1.4,0.1-2.8,0.1-4.2c0.3-10.3,0.2-21.1,0.2-21.1c4,0,4,0,4,0v0l0,0.4c0,0.2,0,0.6,0,1c0,0.9,0,2.1,0,3.6c0,3,0,7.1-0.1,11.4
		c0,0,0,0,0,0c0,0,0-0.1,0.1-0.1c1-1.1,1.9-2.2,2.6-3.2c0.4-0.5,0.6-0.8,0.8-1.1c0,0,0-0.1,0.1-0.1c0.5-1.2,1.5-2.1,2.7-2.4
		c1.4-0.4,2.9,0.1,3.9,1.2l6.5,7.1c0.8,0.8,1.1,1.9,1,3c-0.1,1.1-0.6,2.1-1.5,2.8l-2.5-3.2l-6.5-7.1c-0.1,0.5-1.1,1.8-2.4,3.3
		c-0.7,0.9-1.5,1.8-2.2,2.6c-1.1,1.3-2.1,2.4-2.8,3.2c-0.4,0.4-0.6,0.7-0.6,0.7c0.2,0,0.4,0,0.6,0.1c1.7,0.1,3.3,0.1,4.7,0
		c2.2-0.2,4-0.5,5.4-1c2.6-0.8,3.8-1.8,3.8-1.8c2.5,3.2,2.5,3.2,2.5,3.2l0,0l0,0l0,0l0,0c0,0-0.1,0-0.1,0.1
		c-0.1,0.1-0.2,0.1-0.3,0.2c-0.2,0.2-0.5,0.4-0.9,0.6c-0.8,0.4-1.9,1-3.4,1.4c-2.8,0.9-6.7,1.6-11.8,1.2c0,0.7-0.1,1.3-0.1,1.9
		c-0.2,2.7-0.4,5.4-0.7,7.5c0,0,0.1,0.1,0.2,0.1c1.1,0.9,2.6,2.2,4.4,3.4c3.8,2.5,7.8,4.3,11.1,4c1.4-0.1,2.8,0.5,3.7,1.7
		c0.8,1.2,1,2.7,0.4,4l-5.5,11.7l-0.2-0.1c-0.2,0.5-0.4,0.9-0.6,1.2c-0.7,0.5-1.9,1.1-2.4,1.1c-0.3,0-0.7,0-0.9,0
		c-0.3,0-0.5-0.1-0.6-0.1c-0.1,0-0.2-0.1-0.2-0.1c-0.1,0-0.2-0.1-0.2-0.1c-0.1-0.1-0.2-0.1-0.3-0.1c-0.1-0.1-0.3-0.1-0.5-0.2
		c-0.4-0.2-0.9-0.5-1.6-0.8c-1.3-0.7-3.1-1.9-5.1-3.3c-2.8-2-6.1-4.7-9-8.2c-4,4.6-11.2,9.8-22.1,10.4c-1.8,0.1-3.4-1-4-2.7
		c-0.6-1.7,0-3.5,1.4-4.6c9.1-6.6,13.2-12.5,15.2-20.1c0.6-2.2,1-4.6,1.2-7.2l-5.7,3.2c-1,0.6-2.3,0.7-3.4,0.3c0,0,0,0-0.1,0
		c0.1,0.8,0,1.6-0.3,2.3l-3.9,8.8c-0.5,1.2-1.6,2.1-3,2.3C72.5,100.9,71.7,100.8,71,100.5z M77.8,84.3c-0.1,0-0.1,0-0.2-0.1
		c-0.1,0-0.2-0.1-0.3-0.1c0.1-0.1,0.2-0.2,0.2-0.4c0,0,0,0,0,0C77.7,84,77.8,84.1,77.8,84.3z"/>
	<g>
		<defs>
			<rect id="SVGID_1_" x="118" y="104" width="39" height="51"/>
		</defs>
		<clipPath id="SVGID_00000066492580157986854520000006112361735136184246_">
			<use xlink:href="#SVGID_1_"  style="overflow:visible;"/>
		</clipPath>
		<g style="clip-path:url(#SVGID_00000066492580157986854520000006112361735136184246_);">
			<path class="st4" d="M120.1,127.9h35.4c0.8,0,1.4,0.7,1.4,1.5v4.4c0,0.9-0.7,1.6-1.6,1.6h-34.5c-1.6,0-2.9-1.3-2.9-3V130
				C118,128.9,118.9,127.9,120.1,127.9z"/>
			<path class="st4" d="M127.5,134.9h23.7V155H128c-2.2,0-4-1.8-4-4v-12.6C124.1,136.4,125.6,134.9,127.5,134.9L127.5,134.9z"/>
			<path class="st5" d="M137.8,128.4c2.9,0,5.2-2.1,5.2-4.7c0-2.6-2.3-4.7-5.2-4.7c-2.9,0-5.2,2.1-5.2,4.7
				C132.6,126.3,134.9,128.4,137.8,128.4z"/>
			<path class="st5" d="M128.3,128.4c2.9,0,5.2-2.1,5.2-4.7c0-2.6-2.3-4.7-5.2-4.7s-5.2,2.1-5.2,4.7
				C123.1,126.3,125.4,128.4,128.3,128.4z"/>
			<path class="st5" d="M147.2,128.4c2.9,0,5.2-2.1,5.2-4.7c0-2.6-2.3-4.7-5.2-4.7s-5.2,2.1-5.2,4.7
				C141.9,126.3,144.3,128.4,147.2,128.4z"/>
			<path class="st5" d="M132.8,120.9c2.9,0,5.2-2.1,5.2-4.6c0-2.5-2.3-4.6-5.2-4.6c-2.9,0-5.2,2.1-5.2,4.6
				C127.6,118.8,129.9,120.9,132.8,120.9z"/>
			<path class="st5" d="M137.5,113.2c2.9,0,5.2-2.1,5.2-4.6c0-2.5-2.3-4.6-5.2-4.6s-5.2,2.1-5.2,4.6
				C132.3,111.1,134.6,113.2,137.5,113.2z"/>
			<path class="st5" d="M142.2,120.9c2.9,0,5.2-2.1,5.2-4.6c0-2.5-2.3-4.6-5.2-4.6c-2.9,0-5.2,2.1-5.2,4.6
				C136.9,118.8,139.3,120.9,142.2,120.9z"/>
			<path class="st6" d="M141.9,144c0.2-2.4-1.7-4.6-4.1-4.7c-2.4-0.2-4.5,1.7-4.7,4.1c-0.2,2.4,1.7,4.6,4.1,4.7
				C139.6,148.3,141.7,146.4,141.9,144z"/>
			<path class="st7" d="M137.6,135.4l13.6-7.5H124L137.6,135.4z"/>
		</g>
	</g>
	<g>
		<defs>
			<rect id="SVGID_00000090997814338433483580000008209974260633584002_" x="11" y="9" width="45" height="32"/>
		</defs>
		<clipPath id="SVGID_00000004530222878156344470000003715233348798646947_">
			<use xlink:href="#SVGID_00000090997814338433483580000008209974260633584002_"  style="overflow:visible;"/>
		</clipPath>
		<g style="clip-path:url(#SVGID_00000004530222878156344470000003715233348798646947_);">
			<path class="st9" d="M47.1,28.6c2-8.6-3.4-17.2-12-19.2c-8.6-2-17.2,3.4-19.2,12c-2,8.6,3.4,17.2,12,19.2
				C36.6,42.6,45.1,37.2,47.1,28.6z"/>
			<path class="st10" d="M40.2,14.4c2.6-1,5.5-1.4,8.3-1.1c0.4,0,0.8,0.2,0.9,0.5c0.2,0.7-1.2,1.2-0.9,1.9c0.1,0.3,0.5,0.4,0.9,0.4
				c2,0.1,4.2,0.1,6,1c0.3,0.1,0.6,0.4,0.6,0.7c0,0.2-0.3,0.3-0.5,0.4c-1.3,0.6-2.7,0.7-4.1,0.9c-3.7,0.3-7.4,0.6-11.1,0.8
				c-0.3,0-0.6,0-0.9-0.1c-0.3-0.1-0.5-0.4-0.4-0.7c0.1-0.3,0.4-0.5,0.7-0.6c1.1-0.5,2.3-1,3.4-1.5c0.1,0,0.2-0.1,0.3-0.2
				c0.2-0.3-0.3-0.5-0.6-0.5c-0.7,0-1.4-0.1-2.1-0.1c-0.3,0-0.6-0.1-0.9-0.3c-0.4-0.3,0-1.1,0.2-1.4C40,14.5,40.1,14.5,40.2,14.4
				L40.2,14.4z"/>
			<path class="st10" d="M20,30.4c-2.4-0.6-4.9-0.5-7.2,0.4c-0.6,0.2-1.3,0.6-1.5,1.3c-0.1,0.7,0.5,1.3,1.1,1.6
				c0.7,0.2,1.4,0.2,2.1,0.3c0.3,0.1,0.6,0.1,0.8,0.4c0.4,0.4,0.2,1.2-0.3,1.6c-0.5,0.4-1.1,0.5-1.7,0.5c-0.6,0-1.2,0.1-1.8,0.4
				c-0.4,0.2-0.7,0.6-0.6,1c0.1,0.7,1,0.9,1.7,1c3.1,0.2,6.2,0.1,9.3-0.3c1.2-0.2,2.5-0.4,3.6-0.9c0.3-0.1,0.6-0.3,0.7-0.6
				c0.1-0.3-0.1-0.6-0.3-0.9c-0.5-0.6-1.4-0.9-2.2-1c-0.8-0.1-1.6,0-2.5,0c-0.3,0-0.6,0-0.8-0.3c-0.3-0.4,0.2-1,0.7-1.2
				c0.5-0.2,1.2-0.2,1.5-0.7c0.2-0.4,0.1-0.9-0.2-1.2c-0.3-0.3-0.7-0.5-1.1-0.7C20.9,30.7,20.3,30.5,20,30.4L20,30.4z"/>
		</g>
	</g>
	<g>
		<defs>
			
				<rect id="SVGID_00000130613550941938538900000001207792887845225107_" x="8" y="114" transform="matrix(0.967 -0.2549 0.2549 0.967 -33.6668 13.1733)" width="52" height="45"/>
		</defs>
		<clipPath id="SVGID_00000062886252520681848800000008153997937417452733_">
			<use xlink:href="#SVGID_00000130613550941938538900000001207792887845225107_"  style="overflow:visible;"/>
		</clipPath>
		<g style="clip-path:url(#SVGID_00000062886252520681848800000008153997937417452733_);">
			<path class="st12" d="M30.1,121.5c3,0,5.5-0.2,8.4-0.7c-0.1-1.7,1.2-6.8-1.7-6.9c-6.5,1.1-11.7-2-8.1,7.4
				C29.2,121.4,29.6,121.5,30.1,121.5L30.1,121.5z"/>
			<path class="st13" d="M22.4,126.1c2,1,1.6-6.1,10.7-7.2c4.2-0.5,9.1,0.9,11,4.8c2.2-2.6,4.4-4.5,8.7-3.2c3.2,0.9,5.5,3.7,5.7,8.1
				c0.1,3.4-0.8,9.9-1.6,13.1c-1.1,4.6-3.5,15.4-12.1,12.2c-2.6,5.6-10.4,6.3-14,1.4c-3.6,6.2-11.8,1.1-14.6-2.2
				c-3.9-4.7-8.3-10.4-8.9-16.6c-0.3-3.2,0.1-6.7,2.5-8.9C11.5,126.1,15.7,122.9,22.4,126.1z"/>
			<path class="st12" d="M26.3,134.4c-0.1-1.2,0.6-2.2,1.6-2.4c1.1-0.1,2,0.7,2.2,1.9c0.1,1.2-0.6,2.2-1.6,2.4
				C27.4,136.4,26.5,135.5,26.3,134.4z"/>
			<path class="st12" d="M39,132.8c-0.1-1.2,0.6-2.2,1.6-2.4c1.1-0.1,2,0.7,2.2,1.9s-0.6,2.2-1.6,2.4C40.1,134.8,39.2,134,39,132.8z
				"/>
			<path class="st12" d="M35,135l-1.6,5.1c-0.1,0.3,0.2,0.6,0.5,0.6l4.3-0.5c0.3,0,0.5-0.4,0.3-0.7l-2.7-4.5
				C35.6,134.6,35.1,134.7,35,135L35,135z"/>
			<path class="st12" d="M30.8,145.2c-0.2-1.7,7.8-2,10.7-1.6c2,0.2-1.1,4.2-3.1,5.2c-1.5,0.7-3.3,0.8-4.8,0.1
				C32.4,148.3,31,146.6,30.8,145.2z"/>
		</g>
	</g>
	<g>
		<defs>
			
				<rect id="SVGID_00000138551876700628209780000005901542431150494895_" x="118.3" y="9" transform="matrix(0.2334 -0.9724 0.9724 0.2334 75.6342 156.9236)" width="38" height="43"/>
		</defs>
		<clipPath id="SVGID_00000044860479073167120900000014132345620662919576_">
			<use xlink:href="#SVGID_00000138551876700628209780000005901542431150494895_"  style="overflow:visible;"/>
		</clipPath>
		<g style="clip-path:url(#SVGID_00000044860479073167120900000014132345620662919576_);">
			<path class="st15" d="M153.4,47.1c-0.5-0.6-1-1.3-1.5-2.1c-0.8-1.5-0.6-2.2-0.3-3.1c0-0.2,0.1-0.3,0.1-0.5
				c1.9-6.8,2-12.1,0.4-17.7c-1.5-5.2-5.5-9.7-10.5-11.6c-5.1-2-11.3-1.2-15.6,1.9c-4,2.9-6.3,8.2-6.2,13c-0.1,0-0.5,0.2-0.6,0.2
				c-1.1,0.2-2,0.2-2.6,1.1c-1,1.4-1.1,3-1,4.4c0.1,1.4,0.7,2.8,2.3,2.9c0.9,0.1,1.8-0.6,2.2-1.3c0,0.5,0.1,1.6,0.2,2.1
				c0.1,0.9,0,2-0.1,2.8c0,3.1,0.6,5.2,2,6.3c1,0.8,2.2,1,3.5,0.7c4.4-1,5.7,0.2,7.1,1.5c0.8,0.7,1.6,1.5,3,1.8
				c0.2,0.1,0.5,0.1,0.7,0.1c1.1,0.1,2.2-0.3,3.2-0.7c1.7-0.7,2.4-0.9,3.3,0.1c2.8,3,5.6,3.1,10.2,2.2c1-0.2,1.4-0.7,1.5-1.1
				C155.1,49.2,154.3,48.3,153.4,47.1L153.4,47.1z"/>
			<path class="st16" d="M130,19.3c0.2-0.8,0.9-1.3,1.7-1.1c0.7,0.2,1.2,1,1,1.8c-0.2,0.8-0.9,1.3-1.7,1.1
				C130.3,20.9,129.8,20.1,130,19.3z"/>
			<path class="st16" d="M137.5,21.1c0.2-0.8,0.9-1.3,1.7-1.1c0.7,0.2,1.2,1,1,1.8c-0.2,0.8-0.9,1.3-1.7,1.1
				C137.8,22.7,137.3,21.9,137.5,21.1z"/>
			<path class="st16" d="M139.1,40.6c0,0-0.1,0-0.1,0c-1.2-0.4-2-1.5-2.2-3.2c-0.2-1.5,0.1-2.7,0.8-3.6c0.7-0.8,1.7-1.2,2.9-1.3
				c1.1-0.1,2.2,0.2,3.1,0.5c0.6,0.2,1,0.7,0.9,1.3c-0.1,0.8-0.8,1.2-1.5,1c-0.8-0.2-1.6-0.5-2.3-0.4c-0.6,0-1,0.2-1.2,0.4
				c-0.3,0.3-0.4,1-0.3,1.7c0.1,0.4,0.1,0.7,0.2,0.9c0.1-0.7,0.4-1.6,1.3-2c0.8-0.4,1.8-0.2,2.7,0.5c0.8,0.8,0.2,1.8-0.3,2.1
				c-0.3,0.2-0.8,0.1-1.2-0.2c-0.1,0-0.1-0.1-0.2-0.1c0,0.2-0.1,0.4-0.1,0.8c0,0.5-0.2,1-0.7,1.3C140.5,40.7,139.7,40.7,139.1,40.6
				L139.1,40.6z"/>
			<path class="st16" d="M117.9,36.1c0,0-0.1,0-0.1,0c-1.3-0.3-2.1-1.4-2.4-3.4c-0.3-1.6-0.1-3.1,0.6-4.1c0.6-1,1.6-1.6,2.8-1.8
				c1.1-0.2,2.2,0,3.1,0.2c0.6,0.1,1,0.7,1,1.4c0,0.9-0.7,1.4-1.5,1.3c-0.8-0.2-1.6-0.3-2.4-0.2c-0.6,0.1-1,0.3-1.2,0.6
				c-0.3,0.4-0.3,1.1-0.2,2c0.1,0.5,0.2,0.8,0.3,1c0.1-0.8,0.3-1.9,1.2-2.4c0.8-0.5,1.8-0.5,2.8,0.2c0.8,0.8,0.3,2-0.1,2.4
				c-0.3,0.3-0.8,0.2-1.2-0.1c-0.1,0-0.1-0.1-0.2-0.1c0,0.2,0,0.5,0,0.9c0,0.6-0.2,1.1-0.6,1.5C119.3,36.1,118.5,36.2,117.9,36.1
				L117.9,36.1z"/>
			<path class="st16" d="M130.4,24.8c0.3-1.1,5.7,0.6,7.5,1.6c1.3,0.6-1.8,2.5-3.3,2.6c-1.2,0.1-2.4-0.3-3.2-1.1
				C130.8,27.3,130.2,25.8,130.4,24.8L130.4,24.8z"/>
		</g>
	</g>
	<g>
		<defs>
			<rect id="SVGID_00000057105996222757038630000011820973919852430760_" x="126" y="59" width="35" height="34"/>
		</defs>
		<clipPath id="SVGID_00000103224448176976868990000015840827953468956590_">
			<use xlink:href="#SVGID_00000057105996222757038630000011820973919852430760_"  style="overflow:visible;"/>
		</clipPath>
		<g style="clip-path:url(#SVGID_00000103224448176976868990000015840827953468956590_);">
			<path class="st9" d="M140.9,83.9c3.3,1.3,10.6,7.1,13.5,6.1c7.3-4.7,9.4-17.7,1.8-23.3c-1.8-2.2-4.2,0.7-6.4,1.2
				c-0.3-2.1,0.9-4.4-0.2-6.4c-4.4-2.5-11.1-3.7-15.7-1.5c-3,1.7-10.9,8.5-7,11.8c3,3.1,7.9,5.8,11,8.5c-2.1,3.3-4.2,6.8-6.6,10.3
				c-0.6,1.2,1.7,1.5,2.3,2.2C135.7,89.4,138.6,86,140.9,83.9z"/>
			<path class="st18" d="M153.2,72.7c0.4,0,0.8,0.3,1,0.8c0.2,0.6-0.1,1.3-0.7,1.5c-2.5,1-5.1,2-7.6,3.2c-0.6,0.3-1.3,0-1.5-0.6
				c-0.3-0.6,0-1.3,0.6-1.6c2.5-1.2,5.1-2.3,7.7-3.2C152.9,72.7,153,72.7,153.2,72.7L153.2,72.7z"/>
			<path class="st18" d="M141.8,65.6C141.8,65.6,141.9,65.6,141.8,65.6c0.7,0.1,1.1,0.7,1.1,1.3l-0.8,7.5c-0.1,0.7-0.7,1.1-1.3,1
				c-0.6-0.1-1.1-0.7-1-1.3l0.8-7.5C140.7,66,141.2,65.5,141.8,65.6L141.8,65.6z"/>
			<path class="st18" d="M146.7,80c0.1,0,0.2,0,0.2,0c2.3,0.7,4.6,1.1,6.9,1.3c0,0,0,0,0,0c0.6,0.1,1.1,0.6,1.1,1.3
				c0,0.7-0.6,1.1-1.2,1.1c-2.5-0.2-5-0.6-7.5-1.4c-0.6-0.2-1-0.8-0.8-1.5C145.7,80.3,146.2,79.9,146.7,80L146.7,80z"/>
			<path class="st18" d="M133.6,66.7c0.4,0,0.8,0.3,0.9,0.6c1.1,2.1,2.3,4.2,3.8,6.2c0.4,0.5,0.3,1.3-0.2,1.7
				c-0.5,0.4-1.2,0.3-1.6-0.2c-1.5-2-2.8-4.2-4-6.5c-0.3-0.6-0.1-1.3,0.5-1.6C133.2,66.7,133.4,66.7,133.6,66.7L133.6,66.7z"/>
		</g>
	</g>
	<g>
		<defs>
			<rect id="SVGID_00000011740468682628444900000000773905121335212462_" x="6" y="56" width="34" height="31"/>
		</defs>
		<clipPath id="SVGID_00000066508971897146467350000014309701513516976272_">
			<use xlink:href="#SVGID_00000011740468682628444900000000773905121335212462_"  style="overflow:visible;"/>
		</clipPath>
		<g style="clip-path:url(#SVGID_00000066508971897146467350000014309701513516976272_);">
			<path class="st20" d="M34.1,64.4c-0.1-1.5-0.7-8.5-2.4-8.3c-3,0.1-5.7,1.9-7.6,4.4c-1.6-1.6-8.1-5.5-9.9-4.2
				c-2.6,2.7-3.2,7-1.5,10.4c-8.9,1.4-8.9,8.3,0.3,9.7c-0.8,2.5-1,7,1.3,8.9c1.3,0.6,4.9-2.2,6.2-3.3c2.2,4.4,3.9,5.2,6.6,0.5
				c0.9,1.1,3.2,5.8,4.9,4.2c0.4-0.5,0.9-0.8,1.4-1.1c0.6-0.3,0.8-1.2,0.3-1.7c-1.1-1.1-1.9-2.3-2.2-3.6c1.1,0,2.4,0.2,3.4-0.3
				c1.2-1.3,1-3.5,0.4-5c1.6-0.6,3.8-1.4,4.8-3.7C39.8,66.5,35.6,64.9,34.1,64.4L34.1,64.4z"/>
			<path class="st21" d="M19.4,66.1c-0.3,0.1-0.7,0-0.9-0.3l-2-3.3c-0.2-0.4-0.1-0.8,0.3-1.1c0.4-0.2,0.8-0.1,1,0.3l2,3.3
				c0.2,0.4,0.1,0.8-0.3,1.1C19.5,66,19.4,66,19.4,66.1L19.4,66.1z"/>
			<path class="st21" d="M15.3,72.2C15.3,72.2,15.3,72.2,15.3,72.2c-1.1,0.3-2.2,0.3-3.2,0c-0.4-0.1-0.6-0.5-0.5-0.9
				c0.1-0.4,0.5-0.7,0.9-0.5c0.8,0.2,1.6,0.2,2.4,0c0.4-0.1,0.8,0.2,0.9,0.6C15.9,71.7,15.7,72.1,15.3,72.2L15.3,72.2z"/>
			<path class="st21" d="M17.3,80.2c-0.2,0.1-0.5,0-0.7-0.1c-0.3-0.2-0.4-0.7-0.2-1.1c0.5-0.8,1.1-1.5,1.9-2.1
				c0.3-0.3,0.8-0.2,1.1,0.1c0.3,0.3,0.2,0.8-0.1,1.1c-0.6,0.5-1.1,1.1-1.6,1.8C17.6,80,17.5,80.1,17.3,80.2L17.3,80.2z"/>
			<path class="st21" d="M28.1,65.2c-0.2,0.1-0.5,0-0.7-0.1c-0.3-0.3-0.4-0.8-0.1-1.1c0.5-0.7,1-1.4,1.4-2.1c0.2-0.4,0.6-0.5,1-0.4
				c0.4,0.2,0.5,0.7,0.4,1c-0.4,0.9-0.9,1.7-1.6,2.5C28.4,65.1,28.2,65.2,28.1,65.2L28.1,65.2z"/>
			<path class="st21" d="M35.1,70.8c-0.1,0-0.1,0-0.2,0c-1.2,0.1-2.5-0.1-3.6-0.4c-0.4-0.1-0.6-0.6-0.5-1c0.1-0.4,0.5-0.6,0.9-0.5
				c1,0.3,2.1,0.4,3.1,0.4c0.4,0,0.8,0.3,0.8,0.7C35.7,70.4,35.5,70.7,35.1,70.8L35.1,70.8z"/>
			<path class="st21" d="M24.5,80.8c0,0-0.1,0-0.1,0c-0.4,0.1-0.8-0.2-0.8-0.7c-0.1-0.8-0.1-1.5-0.1-2.3c0-0.4,0.4-0.8,0.8-0.7
				c0.4,0,0.7,0.4,0.7,0.8c0,0.7,0,1.3,0.1,2C25.1,80.4,24.8,80.7,24.5,80.8L24.5,80.8z"/>
			<path class="st21" d="M31.2,77.4c-0.2,0.1-0.5,0-0.7-0.1c-0.6-0.4-1.2-0.8-1.8-1.2c-0.4-0.2-0.5-0.7-0.3-1c0.2-0.4,0.6-0.5,1-0.3
				c0.7,0.4,1.4,0.8,2.1,1.3c0.3,0.3,0.4,0.8,0.1,1.1C31.5,77.3,31.3,77.4,31.2,77.4L31.2,77.4z"/>
			<path class="st22" d="M25.1,75c-0.3,0.1-0.5,0.1-0.7,0.1c-0.9,0-1.7-0.1-2.6-0.3c-0.4-0.1-0.7-0.5-0.6-0.9
				c0.1-0.4,0.5-0.7,0.9-0.6c0.7,0.2,1.5,0.2,2.2,0.2c0.2,0,0.3,0,0.3,0c0,0,0.1-0.1,0.1-0.2l1.4-2.2c0.2-0.4,0.7-0.5,1-0.2
				c0.4,0.2,0.5,0.7,0.2,1.1l-1.4,2.2c-0.1,0.2-0.3,0.4-0.5,0.6C25.4,74.9,25.3,75,25.1,75L25.1,75z"/>
			<path class="st22" d="M19.3,70.2c-0.2-0.5,0.1-1,0.6-1.1c0.5-0.1,1,0.1,1.1,0.6c0.1,0.5-0.1,1-0.6,1.1
				C19.9,70.9,19.4,70.7,19.3,70.2z"/>
			<path class="st22" d="M23.9,68.2c-0.2-0.5,0.1-1,0.6-1.1c0.5-0.1,1,0.1,1.1,0.6c0.1,0.5-0.1,1-0.6,1.1C24.5,69,24,68.7,23.9,68.2
				z"/>
		</g>
	</g>
</g>
</svg>
