<svg width="280" height="248" viewBox="0 0 280 248" fill="none" xmlns="http://www.w3.org/2000/svg">
<mask id="mask0_247_15" style="mask-type:alpha" maskUnits="userSpaceOnUse" x="0" y="0" width="280" height="248">
<rect width="280" height="248" fill="#D9D9D9"/>
</mask>
<g mask="url(#mask0_247_15)">
<path d="M88.1977 135.415C88.3372 135.636 88.4302 135.927 88.5 136.184C88.6279 136.661 88.686 137.162 88.7442 137.651C88.7674 137.837 88.7907 138.07 88.7209 138.233C88.1512 139.456 88.3605 140.667 88.8837 141.797C89.2326 142.542 89.314 143.206 89.0698 143.975C88.8953 144.522 88.7442 145.093 88.6628 145.663C88.6047 146.048 88.6512 146.444 88.6744 146.84C88.7558 148.028 88.8954 149.215 88.9302 150.403C88.9884 152.034 88.9535 153.664 89.0233 155.295C89.0581 156.145 89.1512 157.006 89.3721 157.822C89.5349 158.381 89.593 158.835 89.4535 159.429C89.2791 160.162 89.4535 160.966 89.4186 161.735C89.3605 162.876 89.4651 163.959 90.2326 164.704C89.9651 165.357 89.5349 165.916 89.5698 166.451C89.6163 167.499 89.9186 168.548 90.1279 169.596C90.1977 169.957 90.5 170.341 90.4302 170.644C90.1395 171.89 89.7442 173.089 90.0233 174.405C90.093 174.743 89.9651 175.104 89.9767 175.453C90.0233 176.397 89.9767 177.363 90.1744 178.283C90.5349 179.972 90.6279 181.661 90.5233 183.373C90.4302 184.98 90.4651 186.552 91.4767 187.938C91.6047 188.101 91.6047 188.392 91.593 188.613C91.5581 189.37 91.4884 190.116 91.4419 190.861C91.3721 192.165 91.3023 193.47 91.9884 194.658C92.0116 194.692 91.9884 194.762 91.9884 194.809C91.9884 195.787 92.0465 196.765 91.9884 197.732C91.8953 198.99 92.5233 199.828 93.3837 200.597C93.7093 200.888 94 201.237 94.2791 201.587C95.186 202.74 96.2558 203.578 97.8372 203.543C98.2209 203.543 98.6512 203.636 99.0116 203.788C100 204.219 100.895 204.859 102.058 204.754C103.453 204.626 104.86 204.533 106.267 204.487C106.605 204.475 106.977 204.65 107.291 204.813C107.942 205.15 108.57 205.302 109.326 205.104C109.814 204.964 110.36 205.057 110.872 205.011C112.802 204.859 114.919 206.035 116.593 204.079C117.267 204.917 118.116 205.244 119.058 205.034C120.488 204.708 121.756 205.476 123.116 205.535C123.756 205.57 124.384 205.628 125.012 205.651C125.453 205.674 125.919 205.57 126.326 205.674C127.198 205.884 128.012 205.779 128.849 205.511C129.221 205.395 129.663 205.465 130.07 205.511C130.709 205.57 131.372 205.803 131.977 205.709C133.419 205.477 134.814 205.593 136.221 205.861C137.14 206.036 138.07 206.117 138.837 205.535C139.791 204.801 140.93 204.906 141.826 205.174C143.36 205.628 144.872 205.442 146.384 205.465C148.105 205.488 149.826 205.313 151.547 205.197C151.919 205.174 152.291 205.092 152.64 204.964C153.884 204.522 155.093 205.22 156.326 205.081C156.36 205.081 156.419 205.127 156.453 205.15C157.802 206.338 159.36 206.012 160.907 205.756C161.419 205.674 161.93 205.581 162.453 205.5C163.244 205.372 164.07 205.348 164.814 205.081C165.651 204.766 166.116 205.115 166.616 205.663C166.616 205.674 166.605 205.686 166.593 205.698L169.209 205.651L170.663 205.977C171.012 205.931 171.453 205.872 171.895 205.803C173.988 205.488 176.081 205.174 178.186 204.848C178.279 204.836 178.372 204.778 178.465 204.731C179.663 204.149 180.884 203.602 182.047 202.973C182.465 202.74 182.907 202.355 183.093 201.936C183.384 201.284 183.477 200.539 183.651 199.828C183.698 199.921 183.756 200.061 183.849 200.201C183.93 200.317 184 200.445 184.07 200.574L192 186.505L190.081 141.878L188.163 126.273L188.953 100.291L189.291 96.8789C189.186 96.9488 189.093 97.007 188.977 97.0653C188.767 96.0754 188.384 95.2718 188.5 94.5265C188.628 93.6181 188.616 92.7446 188.616 91.8479C188.616 90.1826 188.523 88.5521 188.012 86.945C187.86 86.4675 188.012 85.9085 187.965 85.3961C187.86 84.3247 187.721 83.2533 187.605 82.1819C187.523 81.4598 187.302 80.7145 187.407 80.0157C187.651 78.4785 187.686 76.9645 187.337 75.4506C187.163 74.7052 186.93 73.9482 186.558 73.2961C186.163 72.6206 185.942 71.7122 186.349 71.0368C186.86 70.175 186.837 69.3598 186.36 68.463C186.163 68.0904 186.174 67.5663 186.198 67.1238C186.221 66.5182 186.372 65.9126 186.407 65.2954C186.453 64.5966 186.419 63.8979 186.419 63.1991C186.419 62.3839 186.651 61.5454 186.128 60.7651C185.988 60.5672 185.977 60.2178 186.023 59.9616C186.256 58.6689 186.233 57.4344 185.942 56.1068C185.628 54.6976 185.605 53.2768 184.779 51.9725C184.326 51.2505 183.826 50.6565 183.221 50.0859C182.442 49.3405 181.547 48.6884 181.372 47.4539C181.221 46.3825 180.372 45.742 179.267 45.5789C179.116 45.5556 178.942 45.544 178.849 45.4508C178.093 44.7987 177.233 44.5658 176.244 44.4376C174.651 44.228 173.081 43.7505 171.512 43.4128C170.849 43.2731 170.163 43.2265 169.523 43.0285C168 42.5394 166.477 42.4579 164.907 42.6791C164.221 42.7723 163.477 42.9004 162.826 42.749C162.07 42.5627 161.407 42.586 160.698 42.8538C160.465 42.9353 160.174 42.9004 159.919 42.8538C159.453 42.7839 158.988 42.551 158.535 42.586C157.419 42.6558 156.302 42.8887 155.186 42.947C154.453 42.9819 153.663 42.9586 152.988 42.7024C151.012 41.9454 148.942 42.2133 146.919 42.0037C146.616 41.9687 146.221 42.19 145.953 42.3996C145.081 43.11 144.186 43.0169 143.267 42.5743C142.442 42.1784 141.64 42.19 140.779 42.4928C140.314 42.6558 139.756 42.6092 139.244 42.6209C138.616 42.6442 137.988 42.6209 137.36 42.6325C136.814 42.6325 136.244 42.7606 135.709 42.6791C134.151 42.4346 132.663 42.6791 131.186 43.1682C130.884 43.2731 130.581 43.4477 130.279 43.4594C129.314 43.4827 128.372 43.5875 127.372 43.4012C126.64 43.2614 125.919 43.2265 125.244 42.8655C125.035 42.749 124.733 42.6675 124.523 42.7257C123.314 43.11 122.058 42.947 120.837 43.1333C120.663 43.1566 120.477 43.1799 120.326 43.2614C119.291 43.8786 118.174 43.5526 117.105 43.506C115.337 43.4361 113.593 43.308 112.337 44.9151C112.244 45.0432 111.988 45.1131 111.826 45.0898C111.128 44.985 110.453 44.8103 109.756 44.7171C108.744 44.5774 107.721 44.4726 106.698 44.3794C105.93 44.3095 105.14 44.2164 104.384 44.2979C103.488 44.4027 102.302 44.4027 101.779 44.9501C100.535 46.2428 98.9302 46.662 97.4419 47.4073C95.9419 48.1643 94.5465 49.096 93.6279 50.5867C93.3023 51.1224 92.9186 51.6231 92.6395 52.1821C92.186 53.0905 91.6628 54.0105 91.4419 54.9888C91.2442 55.8739 91.0349 56.6891 90.6395 57.5276C90.1395 58.5757 89.9302 59.7519 89.6047 60.8816C89.5698 60.998 89.6395 61.1378 89.6279 61.2543C89.5581 62.1976 89.5116 63.1409 89.4186 64.0842C89.3605 64.7247 89.186 65.3652 89.1628 66.0058C89.1163 67.1704 89.1279 68.3349 89.1628 69.5112C89.1628 69.9886 89.2674 70.4545 89.3256 70.932C89.3488 71.1299 89.4535 71.3512 89.3837 71.5143C88.8837 72.7487 89.314 73.9482 89.4651 75.1594C89.5116 75.5321 89.407 75.9164 89.3488 76.2891C89.186 77.4071 88.8605 78.5367 88.8837 79.6547C88.907 80.796 89.2791 81.914 89.0349 83.1019C88.907 83.754 88.907 84.4994 89.093 85.1283C89.4884 86.4559 89.6047 87.7369 89.0814 89.0296C88.1163 91.3821 88.3953 93.7578 88.9884 96.1336C89.2907 97.3215 89.1279 98.486 88.7791 99.6157C88.4884 100.594 88.4302 101.491 88.9419 102.387C89.0233 102.539 89.0465 102.748 89.0465 102.935C88.9884 104.449 88.1047 105.951 89 107.488C89.0233 107.523 89.0233 107.605 89 107.64C88.3837 108.49 88.593 109.491 88.5116 110.423C88.4651 110.959 88.4419 111.611 88.7093 112.019C89.3837 113.02 89.0349 113.952 88.7442 114.907C88.4535 115.873 88.3721 116.793 89.0349 117.632C89.3605 118.039 89.3372 118.366 89.0349 118.785C88.5465 119.484 88.3837 120.241 88.7558 121.079C88.8372 121.277 88.8372 121.522 88.814 121.743C88.7442 122.535 88.5814 123.338 88.5581 124.13C88.5116 125.563 88.5465 126.995 88.5465 128.556C88.3488 128.521 88.1628 128.462 88 128.393C88.1395 130.314 88.3372 133.447 88.2326 135.427L88.1977 135.415Z" fill="#C8D0D2"/>
<path d="M170.886 67.1981C170.828 68.0412 170.713 68.7804 170.736 69.5311C170.759 70.3511 170.966 71.1596 170.966 71.968C170.966 72.7303 170.932 73.5387 170.69 74.2433C170.413 75.0402 170.367 75.7447 170.782 76.4723C171.105 77.0382 171.243 77.581 171.059 78.2625C170.943 78.6898 171.162 79.198 171.151 79.6715C171.128 80.7571 171.036 81.8428 171.036 82.9284C171.036 83.5174 171.174 84.118 171.208 84.707C171.231 85.0304 171.162 85.3654 171.128 85.6887C171.082 86.1623 171.001 86.6473 170.99 87.1209C170.966 87.8831 170.99 88.6339 170.978 89.3961C170.978 89.4192 170.955 89.4423 170.955 89.4654C170.874 90.9091 170.794 92.3528 170.725 93.7849C170.701 94.2122 170.644 94.628 170.655 95.0553C170.667 95.6675 170.725 96.2796 170.759 96.9032C170.771 97.192 170.805 97.4807 170.794 97.7695C170.794 97.9658 170.725 98.1621 170.736 98.3585C170.771 99.421 170.851 100.484 170.863 101.535C170.863 101.985 170.794 102.435 170.713 102.874C170.529 103.891 170.287 104.907 170.125 105.935C170.056 106.362 170.125 106.813 170.148 107.24C170.229 108.476 170.229 109.723 170.448 110.924C170.713 112.379 170.195 113.742 170.148 115.14C170.102 116.942 170.483 118.755 170.125 120.556C170.079 120.764 170.125 121.018 170.206 121.215C170.494 121.862 170.39 122.451 170.206 123.109C170.056 123.606 170.033 124.206 170.16 124.714C170.483 126.077 170.448 127.428 170.31 128.803C170.218 129.715 170.413 130.616 170.621 131.528C170.886 132.672 170.69 133.919 170.725 135.12C170.771 136.726 170.552 138.331 170.932 139.936C171.162 140.907 171.047 141.958 171.047 142.974C171.047 144.395 171.024 145.804 171.543 147.166C171.692 147.559 171.727 148.113 171.577 148.483C171.174 149.476 171.439 150.354 171.819 151.232C172.015 151.694 172.026 152.052 171.773 152.56C171.519 153.057 171.37 153.796 171.554 154.281C171.9 155.193 171.554 156.002 171.554 156.845C171.554 157.711 171.612 158.589 171.681 159.455C171.75 160.471 171.854 161.488 171.946 162.504C172.015 163.243 172.084 163.982 171.704 164.675C171.623 164.837 171.589 165.114 171.681 165.264C172.153 166.084 171.877 166.835 171.646 167.655C171.485 168.221 171.589 168.879 171.623 169.491C171.646 169.838 171.9 170.208 171.819 170.508C171.404 172.079 172.153 173.672 171.623 175.243C171.45 175.763 171.554 176.433 171.669 176.999C171.784 177.553 171.831 178.003 171.473 178.477C170.771 179.412 171.013 180.556 170.92 181.595C170.782 183.201 170.079 184.205 168.593 184.725C167.856 184.979 167.199 185.476 166.473 185.765C165.655 186.088 164.895 186.665 163.892 186.134C162.913 185.614 161.819 185.695 160.747 185.961C160.413 186.042 160.056 186.111 159.722 186.1C158.477 186.065 157.337 186.434 156.173 186.827C155.689 186.989 155.067 186.896 154.526 186.781C152.797 186.423 151.104 185.638 149.306 186.504C149.134 186.585 148.869 186.492 148.65 186.492C147.163 186.515 145.689 186.527 144.203 186.573C144.007 186.573 143.799 186.654 143.638 186.758C143.027 187.151 142.474 187.023 141.887 186.677C140.919 186.1 140.009 186.215 138.995 186.758C138.465 187.035 137.67 186.908 137.013 186.804C136.161 186.677 135.331 186.377 134.49 186.192C134.133 186.111 133.672 186.007 133.384 186.157C132.278 186.746 131.126 186.273 130.008 186.423C129.985 186.423 129.951 186.423 129.939 186.423C128.856 185.776 127.693 185.765 126.494 185.903C125.987 185.961 125.469 185.926 124.95 185.938C124.755 185.938 124.547 185.961 124.351 185.973C123.268 186.019 122.185 186.065 121.102 186.1C120.918 186.1 120.722 186.042 120.526 185.996C120.077 185.892 119.628 185.707 119.178 185.684C118.245 185.638 117.289 185.568 116.367 185.707C115.561 185.834 114.777 186.03 113.948 185.834C113.533 185.73 113.118 185.672 112.692 185.638C112.381 185.603 112.012 185.534 111.747 185.661C110.203 186.377 109.247 185.21 108.129 184.563C107.98 184.471 107.945 184.125 107.934 183.882C107.864 182.346 107.887 180.798 107.761 179.274C107.622 177.611 107.392 175.959 107.173 174.296C107.046 173.361 106.827 172.425 106.747 171.49C106.678 170.6 106.77 169.699 106.724 168.81C106.632 167.055 106.724 165.287 106.067 163.59C105.894 163.128 106.09 162.469 106.263 161.95C106.632 160.829 107.046 159.732 106.804 158.519C106.781 158.369 106.735 158.208 106.781 158.081C107.3 156.672 106.874 155.343 106.528 153.981C106.39 153.438 106.712 152.779 106.781 152.167C106.977 150.493 107.669 148.876 106.966 147.109C106.678 146.381 106.908 145.446 106.885 144.602C106.851 143.551 106.793 142.5 106.77 141.449C106.77 141.242 106.851 141.011 106.954 140.814C107.496 139.786 107.565 138.793 106.908 137.765C106.77 137.546 106.874 137.165 106.874 136.853C106.874 136.241 107.012 135.582 106.816 135.039C106.528 134.219 106.724 133.584 107.127 132.937C107.565 132.221 107.83 131.494 107.669 130.604C107.565 130.015 107.83 129.299 107.576 128.826C106.931 127.579 107.611 126.458 107.703 125.292C107.795 124.195 107.957 123.097 107.461 122.046C107.381 121.873 107.381 121.596 107.461 121.423C107.864 120.58 107.807 119.736 107.634 118.859C107.553 118.489 107.599 118.027 107.749 117.669C108.175 116.63 108.083 115.694 107.461 114.759C107.288 114.505 107.254 114.066 107.311 113.742C107.542 112.276 108.014 110.878 107.83 109.319C107.657 107.864 107.876 106.374 107.899 104.895C107.899 104.63 107.899 104.318 107.772 104.099C106.989 102.643 107.139 101.061 107.208 99.5134C107.254 98.3585 107.519 97.2035 107.599 96.037C107.669 95.0553 107.519 94.0505 107.599 93.0688C107.749 91.3133 107.219 89.5694 107.703 87.7907C107.957 86.8437 107.622 85.758 107.657 84.7417C107.692 83.7138 107.864 82.6859 107.991 81.658C108.049 81.196 108.233 80.734 108.222 80.2721C108.222 78.9323 108.152 77.5926 108.118 76.2529C108.118 76.1143 108.175 75.9526 108.233 75.8255C108.521 75.0979 108.44 74.4049 108.268 73.6427C108.083 72.8804 108.003 72.0604 108.406 71.2981C108.44 71.2289 108.498 71.1596 108.498 71.0903C108.36 69.9469 108.913 68.9652 109.282 67.9488C109.385 67.6716 109.466 67.3944 109.593 67.1288C109.881 66.5167 110.192 65.9277 109.961 65.1885C109.904 64.9922 110.1 64.7034 110.215 64.4724C110.503 63.8719 110.791 63.2828 111.102 62.6938C111.252 62.4166 111.39 62.1279 111.609 61.9085C111.989 61.5273 112.392 61.1577 112.83 60.8459C113.026 60.7073 113.325 60.7073 113.579 60.638C114.04 60.4994 114.524 60.3955 114.962 60.1991C115.503 59.9566 115.998 59.6217 116.528 59.3791C116.667 59.3098 116.932 59.356 117.058 59.46C118.418 60.5572 119.927 60.3724 121.471 60.0143C121.978 59.8989 122.485 59.8296 122.992 59.7372C123.476 59.6448 123.948 59.5177 124.432 59.4253C124.639 59.3791 124.858 59.356 125.077 59.3676C125.792 59.4253 126.506 59.5062 127.22 59.5986C128.027 59.691 128.833 59.8642 129.64 59.8758C130.147 59.8758 130.653 59.6679 131.149 59.5408C131.633 59.4138 132.117 59.2752 132.601 59.1481C132.739 59.1135 132.912 59.1712 133.05 59.1366C134.582 58.767 135.988 59.2174 137.44 59.6563C139.041 60.1414 140.689 60.4994 142.428 60.0952C143.223 59.9104 144.11 60.176 144.951 60.1876C145.32 60.1876 145.677 60.0374 146.046 60.0143C146.53 59.9913 147.06 59.9104 147.498 60.0605C148.488 60.3955 149.387 60.3724 150.297 59.8411C151.173 59.3329 152.025 59.2405 152.936 59.8989C153.846 60.5572 154.906 60.4763 155.954 60.176C156.323 60.0721 156.738 60.0605 157.129 60.0605C158.374 60.0374 159.572 59.9104 160.747 59.3329C161.266 59.0788 162.095 59.2059 162.683 59.4369C163.846 59.8989 165.021 60.1067 166.266 60.049C167.199 60.0028 168.005 60.0952 168.409 61.1924C168.582 61.6544 169.135 61.9893 169.526 62.3589C170.367 63.1327 170.621 64.1606 170.725 65.2347C170.794 65.9046 170.863 66.5744 170.92 67.1635L170.886 67.1981Z" fill="white"/>
<rect x="119" y="69" width="18" height="24" rx="3" fill="#41A400"/>
<rect x="119" y="98" width="18" height="23" rx="3" fill="#41A400"/>
<rect x="119" y="128" width="18" height="22" rx="3" fill="#41A400"/>
<rect x="119" y="156" width="18" height="24" rx="3" fill="#41A400"/>
<rect x="143" y="69" width="18" height="24" rx="3" fill="#41A400"/>
<rect x="143" y="98" width="18" height="23" rx="3" fill="#41A400"/>
<rect x="143" y="128" width="18" height="22" rx="3" fill="#41A400"/>
<rect x="143" y="156" width="18" height="24" rx="3" fill="#41A400"/>
<g clip-path="url(#clip0_247_15)">
<path d="M23.6873 206.854C23.6873 206.188 23.8542 205.559 24.2436 205.04C24.8369 204.263 24.8555 203.449 24.6701 202.524C24.5403 201.858 24.1138 201.136 24.7442 200.47C24.8184 200.044 24.9667 199.618 24.9667 199.211C24.9296 197.213 25.8753 195.769 27.507 194.751C29.1388 193.734 30.7149 192.679 31.7347 190.958C32.0685 190.384 32.7731 189.995 33.2923 189.533C33.2366 189.477 33.2181 189.422 33.2366 189.385C33.2366 189.329 33.2737 189.311 33.2923 189.311C33.3664 189.255 33.4591 189.2 33.5333 189.163C33.7929 189.033 34.0339 188.867 34.275 188.7C34.4048 188.608 34.5161 188.515 34.6458 188.404C35.3319 187.867 35.9994 187.312 36.908 187.183C38.5768 186.905 39.8006 186.091 41.0615 184.851C42.8787 183.093 43.9912 180.798 46.0679 179.244C48.3672 177.523 50.6665 177.116 53.318 178.041C54.4676 178.448 54.5418 178.337 54.857 177.153C55.3206 175.321 56.3404 173.692 56.9338 171.915C57.1192 171.342 57.6013 170.898 58.139 170.583C59.0291 170.083 59.2887 169.343 59.233 168.362C59.1403 166.493 59.9562 165.031 61.4581 163.921C62.5892 163.07 63.5905 162.145 64.3507 160.905C65.3335 159.332 66.6685 158.018 68.4857 157.333C69.5055 156.944 70.5253 156.833 71.5452 157.222C72.4723 157.555 73.3994 157.74 74.3821 157.722C76.1993 157.685 79.1846 160.035 78.9621 162.367C78.8879 163.292 79.0919 164.217 79.2588 165.105C79.5184 166.364 79.2217 167.456 78.6283 168.455C78.0535 169.454 77.6827 170.472 77.59 171.619C77.4787 173.063 76.9039 174.34 76.1993 175.561C76.1251 175.672 76.0324 175.746 75.9026 175.783C74.994 176.246 74.6974 176.986 74.5861 178.004C74.3636 179.91 73.9 181.779 73.5106 183.759C76.292 184.203 78.1648 186.313 79.7038 188.774C80.1488 189.477 80.2601 190.403 80.464 191.235C80.6124 191.902 80.6495 192.586 80.7422 193.252C80.872 194.011 81.2614 194.437 82.0772 194.566C84.599 194.936 86.3049 196.62 87.881 198.397C88.6598 199.285 88.7896 200.433 88.4187 201.58C88.1035 202.598 88.1406 203.208 89.4942 203.505C91.9418 204.041 94.5562 208.52 93.8702 210.87C93.4993 212.147 93.1285 213.312 93.4993 214.682C93.6662 215.311 93.351 216.236 92.9616 216.829C92.4053 217.698 92.1828 218.531 92.2384 219.53C92.3126 221.103 91.4597 222.177 90.2915 223.194C88.9193 224.379 87.7883 225.859 86.4903 227.136C85.3221 228.284 84.0798 229.338 82.8375 230.412C82.2997 230.893 81.7249 231.318 81.1686 231.763C80.6865 232.003 80.223 232.225 79.7409 232.466C79.7409 232.614 79.7409 232.836 79.4998 232.651C79.4627 232.651 79.4257 232.688 79.4071 232.725C79.4627 232.78 79.4998 232.836 79.4813 232.873C79.4071 233.002 79.3329 232.928 79.2588 232.873L79.1846 232.947C79.2588 233.262 78.9992 233.354 78.8138 233.502C78.1833 234.002 77.5529 234.483 76.941 234.983C76.737 235.094 76.6258 235.445 76.292 235.26C75.3278 235.908 74.3451 236.555 73.3808 237.203C72.7875 237.592 72.2127 237.999 71.6379 238.388C71.4154 238.573 71.1558 238.61 70.8962 238.536H70.1916C70.0247 238.573 69.8578 238.573 69.6909 238.536C69.3386 238.758 68.8565 238.906 68.6525 239.239C67.4287 241.108 66.2606 243.014 65.0553 244.902C64.7772 245.346 64.4805 245.808 64.0726 246.104C62.2183 247.4 61.3654 249.25 60.7535 251.36C60.4568 252.433 59.5668 253.34 58.9734 254.321C58.6211 254.895 58.2503 255.487 58.0649 256.116C57.6384 257.596 56.7483 258.614 55.4318 259.391C54.8385 259.743 54.412 260.428 53.9299 260.946C53.318 261.612 52.7061 262.26 52.0942 262.926C49.9989 262.889 48.9606 262.426 48.6639 261.001C48.4785 260.169 48.8308 259.243 48.9235 258.355C49.2201 257.504 49.2758 256.653 49.1274 255.764C48.9235 254.469 49.387 253.285 50.2029 252.285C50.9075 251.434 51.4452 250.509 51.9088 249.528C52.5021 248.288 53.3366 247.252 54.2637 246.215C55.4318 244.902 56.4331 243.421 57.1748 241.811C57.8238 240.423 58.7324 239.405 60.1416 238.795C62.0329 237.962 63.5905 236.574 65.4262 235.667C65.9639 235.408 66.1679 234.853 66.2791 234.279C66.5573 232.614 67.4287 231.411 68.9678 230.652C70.0247 230.134 70.8776 229.32 71.8418 228.654C72.8987 227.913 73.9 227.118 75.2165 226.859C75.5318 226.803 75.8099 226.599 76.0139 226.34C78.0535 223.898 80.4455 221.788 82.5593 219.438C83.0414 218.901 83.505 218.346 83.7646 217.643C83.9685 217.069 84.3394 216.532 84.84 216.199C85.9711 215.441 86.3605 214.293 86.7128 213.09C86.8797 212.554 86.9353 211.98 86.379 211.702C85.7486 211.388 85.5632 212.017 85.3407 212.406C84.6731 213.609 83.6348 214.238 82.2812 214.219C80.9647 214.182 80.1674 213.349 79.6111 212.239C79.1661 211.351 79.3329 210.518 79.778 209.704C80.1488 209.038 80.2786 208.371 80.1303 207.613C79.8892 206.447 80.2971 205.392 80.8163 204.374C81.1686 203.634 81.317 202.949 80.5753 202.283C79.7594 202.875 79.1846 203.56 78.925 204.485C78.7581 205.115 78.4985 205.688 78.0535 206.188C76.737 207.631 74.8272 207.946 73.5106 206.928C72.2127 205.947 71.8418 203.671 72.7875 202.209C73.214 201.543 73.4736 200.858 73.5477 200.081C73.6404 199.119 73.9371 198.193 74.4007 197.324C74.8457 196.472 74.6788 195.769 73.7517 195.325C72.8987 194.899 72.3054 194.215 71.8418 193.363C71.1928 192.198 69.9691 191.994 68.8751 192.753C68.43 193.067 68.4115 193.456 68.4671 193.919C68.5969 194.955 68.5598 196.01 68.5228 197.046C68.4115 200.174 65.4818 202.357 62.4594 201.58C59.4741 200.821 58.3244 196.657 60.4197 194.196C61.1058 193.4 61.866 192.679 62.6263 191.976C63.1455 191.494 63.2938 191.013 62.9971 190.366C62.3481 188.959 62.6263 187.608 63.368 186.331C63.7388 185.702 64.017 185.036 64.0726 184.296C64.0726 184.129 64.0726 183.963 64.1653 183.833C65.8712 181.205 65.9824 177.8 68.3188 175.487C68.8194 175.006 69.1717 174.414 69.1161 173.674C69.0234 171.952 69.6353 170.435 70.4882 168.992C70.9889 168.159 71.1928 167.308 70.9147 166.271C69.7651 166.53 68.8009 166.993 68.5042 168.177C68.0777 169.917 67.1135 171.231 65.6301 172.193C65.1295 172.508 64.9997 172.952 65.0368 173.525C65.0924 174.895 64.5361 176.024 63.813 177.208C62.7746 178.911 61.6064 180.558 60.9389 182.464C60.772 182.963 60.5681 183.444 60.2343 183.852C60.0303 184.092 59.7893 184.351 59.6966 184.647C58.4172 188.367 55.8212 191.494 54.9312 195.381C54.7272 196.25 54.0968 196.935 53.6147 197.675C52.4465 199.452 51.3711 201.302 49.9989 202.931C49.3499 203.69 48.5897 204.245 47.6626 204.596C46.4759 205.04 45.3448 204.578 44.8998 203.412C44.6031 202.653 44.4733 201.876 44.6587 201.043C45.3263 198.175 45.9938 195.325 47.0507 192.586C47.7182 190.865 48.8678 189.385 49.6652 187.701C50.1844 186.627 50.9446 185.647 50.9075 184.333C49.832 185.85 47.9593 186.646 47.3288 188.571C47.0692 189.385 46.3832 189.958 45.6415 190.403C42.8601 191.994 40.3013 193.826 38.1318 196.213C37.761 196.62 37.2603 196.935 36.7968 197.25C36.0551 197.786 35.5173 198.452 35.2577 199.341C34.7942 200.895 34.1452 202.357 32.7731 203.375C32.3466 203.69 32.2724 204.189 32.2539 204.67C32.1983 205.651 31.7532 206.428 31.0672 207.095C29.9175 208.223 30.1215 208.501 30.5294 210.074C31.1413 212.406 32.1983 214.534 32.94 216.755C33.5148 218.531 33.6631 220.493 34.3121 222.343C34.8313 223.824 33.8856 225.249 33.3664 226.618C33.0141 227.525 32.9029 228.228 33.4406 229.098C34.0154 230.023 34.1267 231.078 33.7373 232.114C33.3664 233.113 33.4221 234.187 33.3479 235.223C33.2181 236.907 33.1068 238.591 32.4578 240.183C32.3466 240.442 32.3837 240.738 32.4208 241.015C32.7174 244.032 31.4936 246.586 29.9361 249.01C29.8248 249.176 29.658 249.306 29.4725 249.38C29.2129 249.546 28.9348 249.713 28.6937 249.898C27.2474 251.045 25.2634 251.008 23.8171 249.787C23.539 249.565 23.2608 249.343 22.9827 249.139C22.0927 248.177 21.8331 246.993 22.1298 245.79C22.686 243.569 23.1867 241.33 24.4105 239.35C24.5959 239.035 24.7999 238.702 24.7999 238.351C24.7999 235.667 26.2276 233.243 26.172 230.541C26.1534 229.69 26.5614 228.894 27.1176 228.228C27.6183 227.654 27.6368 227.099 27.3216 226.451C27.2474 226.303 27.2104 226.155 27.1176 226.007C25.2449 223.25 25.1336 219.993 24.5403 216.866C24.5217 216.755 24.5032 216.625 24.3363 216.458L23.7059 206.761L23.6873 206.854Z" fill="#6C5540"/>
<path d="M29.454 249.472C30.2513 247.714 31.0486 245.975 31.8274 244.217C31.9387 243.958 32.0499 243.68 32.0685 243.421C32.4208 240.294 32.7731 237.166 33.1254 234.039C33.181 233.484 33.2366 232.91 33.385 232.392C33.7743 231.022 33.6631 229.745 32.736 228.635C32.328 228.154 32.4393 227.839 32.6989 227.284C33.422 225.693 34.6273 224.064 33.9598 222.288C33.3108 220.585 32.6062 218.994 32.7916 217.106C32.8472 216.495 32.3466 215.7 31.8645 215.2C31.0486 214.367 30.9003 213.424 30.789 212.35C30.7149 211.573 30.5294 210.759 30.1957 210.055C29.6023 208.797 29.6209 207.964 30.6963 207.076C31.6049 206.317 32.0314 205.429 32.0314 204.245C32.0314 203.912 32.2539 203.43 32.532 203.245C33.7929 202.357 34.479 201.117 34.8498 199.674C35.165 198.452 35.8326 197.564 36.908 196.824C38.0576 196.028 38.9662 194.918 40.0788 194.067C41.8403 192.734 43.6945 191.55 45.456 190.236C46.0865 189.773 46.7911 189.181 47.0507 188.496C47.4401 187.405 48.1261 186.683 48.9605 185.961C49.795 185.24 50.481 184.351 51.2227 183.555C51.334 183.611 51.4267 183.667 51.5379 183.722C51.3896 184.425 51.3896 185.221 51.0744 185.85C50.1102 187.793 49.0162 189.662 47.9778 191.568C47.6997 192.105 47.3659 192.623 47.199 193.197C46.4388 195.825 45.7342 198.452 45.011 201.08C45.011 201.117 45.011 201.154 44.9925 201.191C44.7329 202.561 45.215 203.967 46.0865 204.411C46.9209 204.837 48.4599 204.411 49.3128 203.338C50.5923 201.691 51.7048 199.933 52.9657 198.267C54.8199 195.843 55.3577 192.845 56.6742 190.199C57.1377 189.274 57.7125 188.404 58.2503 187.516C58.3615 187.349 58.5284 187.201 58.6026 187.016C59.3628 185.277 60.1045 183.537 60.8647 181.797C61.0316 181.409 61.2727 181.02 61.4952 180.65C61.5508 180.558 61.6806 180.484 61.7362 180.391C62.7375 178.411 64.1282 176.523 64.6103 174.432C64.9255 173.044 65.2222 172.138 66.3718 171.268C67.1321 170.694 67.8181 169.639 68.0035 168.714C68.3929 166.808 69.8578 166.401 71.3226 165.642C71.5451 166.919 71.6564 167.992 70.9147 169.084C69.932 170.546 69.4128 172.175 69.4313 173.97C69.4313 174.469 69.2273 175.098 68.8936 175.469C67.4473 177.06 66.3718 178.781 66.0751 180.965C66.0195 181.409 65.6858 181.834 65.4447 182.242C65.2222 182.63 64.9255 182.963 64.7586 183.37C64.2209 184.777 63.5719 186.183 63.2567 187.645C63.0527 188.571 63.1825 189.644 63.4792 190.551C63.7203 191.309 63.6832 191.661 63.0527 192.142C62.2369 192.771 61.4952 193.549 60.7906 194.307C59.437 195.751 59.2886 197.897 60.4012 199.674C61.3654 201.228 62.9415 201.802 64.9255 201.321C66.8168 200.858 68.1704 199.267 68.189 197.324C68.189 196.047 68.0592 194.77 68.0592 193.493C68.0592 193.215 68.2631 192.771 68.4857 192.66C69.1346 192.383 69.8392 192.198 70.5439 192.068C71.2855 191.92 71.6564 192.346 72.0458 192.956C72.5835 193.771 73.251 194.548 74.0298 195.14C74.994 195.88 75.2165 196.38 74.7901 197.564C74.4192 198.601 74.2338 199.711 73.9186 200.766C73.7888 201.21 73.6033 201.672 73.3438 202.043C72.4537 203.301 72.3239 204.8 73.0842 206.003C73.7331 207.039 74.7159 207.446 75.8841 207.224C77.3674 206.947 78.1462 205.929 78.6654 204.522C79.0548 203.449 79.8521 202.524 80.5382 201.413C81.4838 202.653 81.8732 203.597 81.0759 204.744C80.8349 205.096 80.6494 205.54 80.6124 205.966C80.464 207.668 80.6124 209.389 79.815 211.055C79.37 211.999 80.3528 213.294 81.4097 213.738C82.4666 214.182 83.8202 213.905 84.6175 212.998C84.8771 212.702 84.9884 212.258 85.285 211.999C85.6559 211.665 86.138 211.462 86.5645 211.184C86.787 211.74 87.3061 212.424 87.1578 212.85C86.6757 214.182 86.583 215.792 85.0069 216.551C84.636 216.736 84.3579 217.273 84.1725 217.698C83.3752 219.475 82.0216 220.715 80.6124 221.973C79.1104 223.305 77.9052 224.934 76.496 226.359C76.0509 226.822 75.3834 227.044 74.8271 227.395C73.4365 228.265 72.0643 229.135 70.6736 230.005C70.173 230.319 69.7094 230.726 69.1717 230.985C67.744 231.652 66.9837 232.743 66.65 234.298C66.5016 234.983 65.9824 235.778 65.3891 236.167C63.4978 237.37 61.4766 238.369 59.5853 239.553C58.8993 239.979 58.2688 240.645 57.8794 241.367C56.7298 243.532 55.506 245.623 53.7445 247.363C53.318 247.77 53.0399 248.344 52.7246 248.843C51.9273 250.139 51.1856 251.471 50.3512 252.729C49.591 253.877 49.3129 255.098 49.5724 256.412C49.7393 257.245 49.6281 257.911 48.9605 258.448C47.9222 257.208 46.6057 256.375 45.1037 255.801C44.77 255.672 44.4733 255.357 44.2322 255.061C42.7674 253.266 41.3582 252.859 39.096 253.525C38.6695 253.655 37.9278 253.692 37.7239 253.451C36.3888 251.915 34.3677 251.601 32.736 250.601C31.7903 250.028 30.6036 249.843 29.5281 249.472H29.454Z" fill="#FEFEFE"/>
</g>
<g clip-path="url(#clip1_247_15)">
<path d="M23.6873 29.146C23.6873 29.8122 23.8542 30.4414 24.2436 30.9595C24.8369 31.7368 24.8555 32.551 24.6701 33.4763C24.5403 34.1425 24.1138 34.8642 24.7442 35.5304C24.8184 35.956 24.9667 36.3817 24.9667 36.7888C24.9296 38.7874 25.8753 40.2308 27.507 41.2486C29.1388 42.2664 30.7149 43.3213 31.7347 45.0423C32.0685 45.6159 32.7731 46.0046 33.2923 46.4672C33.2366 46.5227 33.2181 46.5782 33.2366 46.6152C33.2366 46.6708 33.2737 46.6893 33.2923 46.6893C33.3664 46.7448 33.4591 46.8003 33.5333 46.8373C33.7929 46.9669 34.0339 47.1334 34.275 47.3C34.4048 47.3925 34.5161 47.485 34.6458 47.596C35.3319 48.1327 35.9994 48.6879 36.908 48.8174C38.5768 49.095 39.8006 49.9092 41.0615 51.1491C42.8787 52.9071 43.9912 55.2018 46.0679 56.7563C48.3672 58.4773 50.6665 58.8845 53.318 57.9592C54.4676 57.5521 54.5418 57.6631 54.857 58.8474C55.3206 60.6795 56.3404 62.308 56.9338 64.0845C57.1192 64.6582 57.6013 65.1023 58.139 65.4169C59.0291 65.9166 59.2887 66.6568 59.233 67.6376C59.1403 69.5067 59.9562 70.9686 61.4581 72.0789C62.5892 72.9302 63.5905 73.8555 64.3507 75.0953C65.3335 76.6683 66.6685 77.9822 68.4857 78.6669C69.5055 79.0555 70.5253 79.1666 71.5452 78.778C72.4723 78.4449 73.3994 78.2598 74.3821 78.2783C76.1993 78.3153 79.1846 75.9651 78.9621 73.6334C78.8879 72.7081 79.0919 71.7828 79.2588 70.8946C79.5184 69.6362 79.2217 68.5444 78.6283 67.5451C78.0535 66.5458 77.6827 65.528 77.59 64.3806C77.4787 62.9372 76.9039 61.6603 76.1993 60.4389C76.1251 60.3279 76.0324 60.2539 75.9026 60.2169C74.994 59.7542 74.6974 59.014 74.5861 57.9962C74.3636 56.0901 73.9 54.221 73.5106 52.2409C76.292 51.7968 78.1648 49.6872 79.7038 47.2259C80.1488 46.5227 80.2601 45.5974 80.464 44.7647C80.6124 44.0985 80.6495 43.4138 80.7422 42.7476C80.872 41.9888 81.2614 41.5632 82.0772 41.4337C84.599 41.0636 86.3049 39.3796 87.881 37.603C88.6598 36.7148 88.7896 35.5674 88.4187 34.4201C88.1035 33.4023 88.1406 32.7916 89.4942 32.4955C91.9418 31.9588 94.5562 27.4805 93.8702 25.1303C93.4993 23.8534 93.1285 22.6875 93.4993 21.3181C93.6662 20.6889 93.351 19.7636 92.9616 19.1715C92.4053 18.3017 92.1828 17.4689 92.2384 16.4696C92.3126 14.8967 91.4597 13.8233 90.2915 12.8055C88.9193 11.6212 87.7883 10.1407 86.4903 8.86385C85.3221 7.7165 84.0798 6.66168 82.8375 5.58836C82.2997 5.10722 81.7249 4.68158 81.1686 4.23745C80.6865 3.99687 80.223 3.77481 79.7409 3.53424C79.7409 3.38619 79.7409 3.16412 79.4998 3.34918C79.4627 3.34918 79.4257 3.31217 79.4071 3.27516C79.4627 3.21964 79.4998 3.16412 79.4813 3.12711C79.4071 2.99757 79.3329 3.07159 79.2588 3.12711L79.1846 3.05309C79.2588 2.73849 78.9992 2.64597 78.8138 2.49792C78.1833 1.99828 77.5529 1.51713 76.941 1.01748C76.737 0.906448 76.6258 0.554832 76.292 0.739891C75.3278 0.0921936 74.3451 -0.555496 73.3808 -1.20319C72.7875 -1.59181 72.2127 -1.99893 71.6379 -2.38755C71.4154 -2.57261 71.1558 -2.60962 70.8962 -2.5356H70.1916C70.0247 -2.57261 69.8578 -2.57261 69.6909 -2.5356C69.3386 -2.75767 68.8565 -2.90571 68.6525 -3.23881C67.4287 -5.10787 66.2606 -7.01395 65.0553 -8.90152C64.7772 -9.34565 64.4805 -9.8083 64.0726 -10.1044C62.2183 -11.3998 61.3654 -13.2503 60.7535 -15.36C60.4568 -16.4333 59.5668 -17.3401 58.9734 -18.3209C58.6211 -18.8945 58.2503 -19.4867 58.0649 -20.1159C57.6384 -21.5964 56.7483 -22.6142 55.4318 -23.3914C54.8385 -23.743 54.412 -24.4277 53.9299 -24.9459C53.318 -25.6121 52.7061 -26.2598 52.0942 -26.926C49.9989 -26.889 48.9606 -26.4263 48.6639 -25.0014C48.4785 -24.1686 48.8308 -23.2433 48.9235 -22.3551C49.2201 -21.5038 49.2758 -20.6526 49.1274 -19.7643C48.9235 -18.4689 49.387 -17.2846 50.2029 -16.2852C50.9075 -15.434 51.4452 -14.5087 51.9088 -13.5279C52.5021 -12.288 53.3366 -11.2517 54.2637 -10.2154C55.4318 -8.90151 56.4331 -7.42107 57.1748 -5.81109C57.8238 -4.42317 58.7324 -3.40536 60.1416 -2.79468C62.0329 -1.96192 63.5905 -0.573997 65.4262 0.332771C65.9639 0.59185 66.1679 1.14702 66.2791 1.7207C66.5573 3.38619 67.4287 4.58906 68.9678 5.34779C70.0247 5.86594 70.8776 6.68018 71.8418 7.34639C72.8987 8.08661 73.9 8.88235 75.2165 9.14143C75.5318 9.19695 75.8099 9.40051 76.0139 9.65958C78.0535 12.1023 80.4455 14.212 82.5593 16.5622C83.0414 17.0988 83.505 17.654 83.7646 18.3572C83.9685 18.9309 84.3394 19.4676 84.84 19.8007C85.9711 20.5594 86.3605 21.7067 86.7128 22.9096C86.8797 23.4463 86.9353 24.0199 86.379 24.2975C85.7486 24.6121 85.5632 23.9829 85.3407 23.5943C84.6731 22.3914 83.6348 21.7622 82.2812 21.7808C80.9647 21.8178 80.1674 22.6505 79.6111 23.7608C79.1661 24.6491 79.3329 25.4819 79.778 26.2961C80.1488 26.9623 80.2786 27.6285 80.1303 28.3872C79.8892 29.5531 80.2971 30.6079 80.8163 31.6257C81.1686 32.3659 81.317 33.0507 80.5753 33.7169C79.7594 33.1247 79.1846 32.44 78.925 31.5147C78.7581 30.8855 78.4985 30.3118 78.0535 29.8122C76.737 28.3687 74.8272 28.0541 73.5106 29.072C72.2127 30.0527 71.8418 32.3289 72.7875 33.7909C73.214 34.4571 73.4736 35.1418 73.5477 35.919C73.6404 36.8813 73.9371 37.8066 74.4007 38.6763C74.8457 39.5276 74.6788 40.2308 73.7517 40.675C72.8987 41.1006 72.3054 41.7853 71.8418 42.6365C71.1928 43.8024 69.9691 44.006 68.8751 43.2472C68.43 42.9326 68.4115 42.544 68.4671 42.0814C68.5969 41.0451 68.5598 39.9902 68.5228 38.9539C68.4115 35.8265 65.4818 33.6428 62.4594 34.4201C59.4741 35.1788 58.3244 39.3426 60.4197 41.8038C61.1058 42.5995 61.866 43.3213 62.6263 44.0245C63.1455 44.5056 63.2938 44.9868 62.9971 45.6345C62.3481 47.0409 62.6263 48.3918 63.368 49.6687C63.7388 50.2979 64.017 50.9641 64.0726 51.7043C64.0726 51.8708 64.0726 52.0374 64.1653 52.1669C65.8712 54.7947 65.9824 58.1997 68.3188 60.5129C68.8194 60.9941 69.1717 61.5863 69.1161 62.3265C69.0234 64.0475 69.6353 65.565 70.4882 67.0084C70.9889 67.8412 71.1928 68.6924 70.9147 69.7287C69.7651 69.4696 68.8009 69.007 68.5042 67.8227C68.0777 66.0831 67.1135 64.7692 65.6301 63.8069C65.1295 63.4923 64.9997 63.0482 65.0368 62.4745C65.0924 61.1051 64.5361 59.9763 63.813 58.7919C62.7746 57.0894 61.6064 55.4424 60.9389 53.5363C60.772 53.0367 60.5681 52.5555 60.2343 52.1484C60.0303 51.9078 59.7893 51.6488 59.6966 51.3527C58.4172 47.6331 55.8212 44.5056 54.9312 40.6194C54.7272 39.7497 54.0968 39.065 53.6147 38.3247C52.4465 36.5482 51.3711 34.6977 49.9989 33.0692C49.3499 32.3104 48.5897 31.7553 47.6626 31.4037C46.4759 30.9595 45.3448 31.4222 44.8998 32.588C44.6031 33.3467 44.4733 34.124 44.6587 34.9567C45.3263 37.8251 45.9938 40.675 47.0507 43.4138C47.7182 45.1348 48.8678 46.6152 49.6652 48.2993C50.1844 49.3726 50.9446 50.3534 50.9075 51.6673C49.832 50.1498 47.9593 49.3541 47.3288 47.4295C47.0692 46.6152 46.3832 46.0416 45.6415 45.5974C42.8601 44.006 40.3013 42.1739 38.1318 39.7867C37.761 39.3796 37.2603 39.065 36.7968 38.7504C36.0551 38.2137 35.5173 37.5475 35.2577 36.6592C34.7942 35.1048 34.1452 33.6428 32.7731 32.625C32.3466 32.3104 32.2724 31.8108 32.2539 31.3296C32.1983 30.3488 31.7532 29.5716 31.0672 28.9054C29.9175 27.7766 30.1215 27.499 30.5294 25.926C31.1413 23.5943 32.1983 21.4661 32.94 19.2455C33.5148 17.4689 33.6631 15.5074 34.3121 13.6568C34.8313 12.1763 33.8856 10.7514 33.3664 9.382C33.0141 8.47523 32.9029 7.77202 33.4406 6.90225C34.0154 5.97697 34.1267 4.92216 33.7373 3.88584C33.3664 2.88654 33.4221 1.81322 33.3479 0.776901C33.2181 -0.907104 33.1068 -2.59111 32.4578 -4.18259C32.3466 -4.44167 32.3837 -4.73776 32.4208 -5.01535C32.7174 -8.03176 31.4936 -10.5855 29.9361 -13.0098C29.8248 -13.1763 29.658 -13.3058 29.4725 -13.3799C29.2129 -13.5464 28.9348 -13.713 28.6937 -13.898C27.2474 -15.0454 25.2634 -15.0084 23.8171 -13.787C23.539 -13.5649 23.2608 -13.3429 22.9827 -13.1393C22.0927 -12.177 21.8331 -10.9926 22.1298 -9.78979C22.686 -7.56911 23.1867 -5.32994 24.4105 -3.34984C24.5959 -3.03525 24.7999 -2.70214 24.7999 -2.35054C24.7999 0.332771 26.2276 2.757 26.172 5.45882C26.1534 6.31007 26.5614 7.10581 27.1176 7.77201C27.6183 8.34569 27.6368 8.90086 27.3216 9.54855C27.2474 9.6966 27.2104 9.84464 27.1176 9.99268C25.2449 12.75 25.1336 16.007 24.5403 19.1344C24.5217 19.2455 24.5032 19.375 24.3363 19.5416L23.7059 29.2385L23.6873 29.146Z" fill="#6C5540"/>
<path d="M29.454 -13.4724C30.2513 -11.7144 31.0486 -9.97484 31.8274 -8.2168C31.9387 -7.95773 32.0499 -7.68015 32.0685 -7.42107C32.4208 -4.29362 32.7731 -1.16618 33.1254 1.96127C33.181 2.51643 33.2366 3.0901 33.385 3.60826C33.7743 4.97768 33.6631 6.25455 32.736 7.36489C32.328 7.84604 32.4393 8.16064 32.6989 8.71581C33.422 10.3073 34.6273 11.9358 33.9598 13.7123C33.3108 15.4148 32.6062 17.0063 32.7916 18.8939C32.8472 19.5046 32.3466 20.3003 31.8645 20.7999C31.0486 21.6327 30.9003 22.5765 30.789 23.6498C30.7149 24.427 30.5294 25.2413 30.1957 25.9445C29.6023 27.2029 29.6209 28.0356 30.6963 28.9239C31.6049 29.6826 32.0314 30.5709 32.0314 31.7553C32.0314 32.0884 32.2539 32.5695 32.532 32.7546C33.7929 33.6428 34.479 34.8827 34.8498 36.3261C35.165 37.5475 35.8326 38.4358 36.908 39.176C38.0576 39.9717 38.9662 41.0821 40.0788 41.9333C41.8403 43.2657 43.6945 44.4501 45.456 45.764C46.0865 46.2266 46.7911 46.8188 47.0507 47.5035C47.4401 48.5953 48.1261 49.3171 48.9605 50.0388C49.795 50.7605 50.481 51.6488 51.2227 52.4445C51.334 52.389 51.4267 52.3335 51.5379 52.278C51.3896 51.5747 51.3896 50.779 51.0744 50.1498C50.1102 48.2067 49.0162 46.3377 47.9778 44.4316C47.6997 43.8949 47.3659 43.3768 47.199 42.8031C46.4388 40.1753 45.7342 37.5475 45.011 34.9197C45.011 34.8827 45.011 34.8457 44.9925 34.8087C44.7329 33.4393 45.215 32.0328 46.0865 31.5887C46.9209 31.1631 48.4599 31.5887 49.3128 32.662C50.5923 34.309 51.7048 36.0671 52.9657 37.7326C54.8199 40.1568 55.3577 43.1547 56.6742 45.801C57.1377 46.7263 57.7125 47.596 58.2503 48.4843C58.3615 48.6509 58.5284 48.7989 58.6026 48.984C59.3628 50.7235 60.1045 52.463 60.8647 54.2025C61.0316 54.5912 61.2727 54.9798 61.4952 55.3499C61.5508 55.4424 61.6806 55.5164 61.7362 55.609C62.7375 57.5891 64.1282 59.4766 64.6103 61.5678C64.9255 62.9557 65.2222 63.8624 66.3718 64.7322C67.1321 65.3059 67.8181 66.3607 68.0035 67.286C68.3929 69.1921 69.8578 69.5992 71.3226 70.3579C71.5451 69.081 71.6564 68.0077 70.9147 66.9159C69.932 65.4539 69.4128 63.8254 69.4313 62.0304C69.4313 61.5307 69.2273 60.9016 68.8936 60.5314C67.4473 58.94 66.3718 57.2189 66.0751 55.0353C66.0195 54.5912 65.6858 54.1655 65.4447 53.7584C65.2222 53.3698 64.9255 53.0367 64.7586 52.6296C64.2209 51.2231 63.5719 49.8167 63.2567 48.3548C63.0527 47.4295 63.1825 46.3562 63.4792 45.4494C63.7203 44.6907 63.6832 44.3391 63.0527 43.8579C62.2369 43.2287 61.4952 42.4515 60.7906 41.6928C59.437 40.2493 59.2886 38.1027 60.4012 36.3261C61.3654 34.7717 62.9415 34.198 64.9255 34.6791C66.8168 35.1418 68.1704 36.7333 68.189 38.6763C68.189 39.9532 68.0592 41.2301 68.0592 42.507C68.0592 42.7846 68.2631 43.2287 68.4857 43.3398C69.1346 43.6173 69.8392 43.8024 70.5439 43.9319C71.2855 44.08 71.6564 43.6543 72.0458 43.0437C72.5835 42.2294 73.251 41.4522 74.0298 40.86C74.994 40.1198 75.2165 39.6201 74.7901 38.4358C74.4192 37.3995 74.2338 36.2891 73.9186 35.2343C73.7888 34.7902 73.6033 34.3275 73.3438 33.9574C72.4537 32.699 72.3239 31.2001 73.0842 29.9972C73.7331 28.9609 74.7159 28.5538 75.8841 28.7759C77.3674 29.0534 78.1462 30.0712 78.6654 31.4777C79.0548 32.551 79.8521 33.4763 80.5382 34.5866C81.4838 33.3467 81.8732 32.403 81.0759 31.2556C80.8349 30.904 80.6494 30.4599 80.6124 30.0342C80.464 28.3317 80.6124 26.6107 79.815 24.9452C79.37 24.0014 80.3528 22.706 81.4097 22.2619C82.4666 21.8178 83.8202 22.0953 84.6175 23.0021C84.8771 23.2982 84.9884 23.7423 85.285 24.0014C85.6559 24.3345 86.138 24.5381 86.5645 24.8157C86.787 24.2605 87.3061 23.5758 87.1578 23.1502C86.6757 21.8178 86.583 20.2078 85.0069 19.449C84.636 19.264 84.3579 18.7273 84.1725 18.3017C83.3752 16.5252 82.0216 15.2853 80.6124 14.0269C79.1104 12.6945 77.9052 11.066 76.496 9.64109C76.0509 9.17845 75.3834 8.95637 74.8271 8.60476C73.4365 7.735 72.0643 6.86525 70.6736 5.99548C70.173 5.68089 69.7094 5.27377 69.1717 5.01469C67.744 4.34849 66.9837 3.25666 66.65 1.70219C66.5016 1.01748 65.9824 0.221733 65.3891 -0.166878C63.4978 -1.36974 61.4766 -2.36905 59.5853 -3.55341C58.8993 -3.97903 58.2688 -4.64523 57.8794 -5.36694C56.7298 -7.5321 55.506 -9.62324 53.7445 -11.3628C53.318 -11.7699 53.0399 -12.3436 52.7246 -12.8432C51.9273 -14.1386 51.1856 -15.471 50.3512 -16.7294C49.591 -17.8767 49.3129 -19.0981 49.5724 -20.412C49.7393 -21.2448 49.6281 -21.9109 48.9605 -22.4476C47.9222 -21.2077 46.6057 -20.375 45.1037 -19.8013C44.77 -19.6718 44.4733 -19.3572 44.2322 -19.0611C42.7674 -17.266 41.3582 -16.8589 39.096 -17.5251C38.6695 -17.6547 37.9278 -17.6917 37.7239 -17.4511C36.3888 -15.9151 34.3677 -15.6005 32.736 -14.6012C31.7903 -14.0276 30.6036 -13.8425 29.5281 -13.4724H29.454Z" fill="#FEFEFE"/>
</g>
<g clip-path="url(#clip2_247_15)">
<path d="M253.313 205.854C253.313 205.188 253.146 204.559 252.756 204.04C252.163 203.263 252.145 202.449 252.33 201.524C252.46 200.858 252.886 200.136 252.256 199.47C252.182 199.044 252.033 198.618 252.033 198.211C252.07 196.213 251.125 194.769 249.493 193.751C247.861 192.734 246.285 191.679 245.265 189.958C244.932 189.384 244.227 188.995 243.708 188.533C243.763 188.477 243.782 188.422 243.763 188.385C243.763 188.329 243.726 188.311 243.708 188.311C243.634 188.255 243.541 188.2 243.467 188.163C243.207 188.033 242.966 187.867 242.725 187.7C242.595 187.608 242.484 187.515 242.354 187.404C241.668 186.867 241.001 186.312 240.092 186.183C238.423 185.905 237.199 185.091 235.938 183.851C234.121 182.093 233.009 179.798 230.932 178.244C228.633 176.523 226.334 176.116 223.682 177.041C222.532 177.448 222.458 177.337 222.143 176.153C221.679 174.321 220.66 172.692 220.066 170.915C219.881 170.342 219.399 169.898 218.861 169.583C217.971 169.083 217.711 168.343 217.767 167.362C217.86 165.493 217.044 164.031 215.542 162.921C214.411 162.07 213.41 161.145 212.649 159.905C211.667 158.332 210.331 157.018 208.514 156.333C207.495 155.944 206.475 155.833 205.455 156.222C204.528 156.555 203.601 156.74 202.618 156.722C200.801 156.685 197.815 159.035 198.038 161.367C198.112 162.292 197.908 163.217 197.741 164.105C197.482 165.364 197.778 166.456 198.372 167.455C198.946 168.454 199.317 169.472 199.41 170.619C199.521 172.063 200.096 173.34 200.801 174.561C200.875 174.672 200.968 174.746 201.097 174.783C202.006 175.246 202.303 175.986 202.414 177.004C202.636 178.91 203.1 180.779 203.489 182.759C200.708 183.203 198.835 185.313 197.296 187.774C196.851 188.477 196.74 189.403 196.536 190.235C196.388 190.902 196.351 191.586 196.258 192.252C196.128 193.011 195.739 193.437 194.923 193.566C192.401 193.936 190.695 195.62 189.119 197.397C188.34 198.285 188.21 199.433 188.581 200.58C188.897 201.598 188.859 202.208 187.506 202.505C185.058 203.041 182.444 207.52 183.13 209.87C183.501 211.147 183.872 212.312 183.501 213.682C183.334 214.311 183.649 215.236 184.038 215.829C184.595 216.698 184.817 217.531 184.762 218.53C184.687 220.103 185.54 221.177 186.709 222.194C188.081 223.379 189.212 224.859 190.51 226.136C191.678 227.284 192.92 228.338 194.163 229.412C194.7 229.893 195.275 230.318 195.831 230.763C196.313 231.003 196.777 231.225 197.259 231.466C197.259 231.614 197.259 231.836 197.5 231.651C197.537 231.651 197.574 231.688 197.593 231.725C197.537 231.78 197.5 231.836 197.519 231.873C197.593 232.002 197.667 231.928 197.741 231.873L197.815 231.947C197.741 232.262 198.001 232.354 198.186 232.502C198.817 233.002 199.447 233.483 200.059 233.983C200.263 234.094 200.374 234.445 200.708 234.26C201.672 234.908 202.655 235.555 203.619 236.203C204.213 236.592 204.787 236.999 205.362 237.388C205.585 237.573 205.844 237.61 206.104 237.536H206.808C206.975 237.573 207.142 237.573 207.309 237.536C207.661 237.758 208.143 237.906 208.347 238.239C209.571 240.108 210.739 242.014 211.945 243.902C212.223 244.346 212.519 244.808 212.927 245.104C214.782 246.4 215.635 248.25 216.247 250.36C216.543 251.433 217.433 252.34 218.027 253.321C218.379 253.895 218.75 254.487 218.935 255.116C219.362 256.596 220.252 257.614 221.568 258.391C222.162 258.743 222.588 259.428 223.07 259.946C223.682 260.612 224.294 261.26 224.906 261.926C227.001 261.889 228.039 261.426 228.336 260.001C228.522 259.169 228.169 258.243 228.077 257.355C227.78 256.504 227.724 255.653 227.873 254.764C228.077 253.469 227.613 252.285 226.797 251.285C226.092 250.434 225.555 249.509 225.091 248.528C224.498 247.288 223.663 246.252 222.736 245.215C221.568 243.902 220.567 242.421 219.825 240.811C219.176 239.423 218.268 238.405 216.858 237.795C214.967 236.962 213.41 235.574 211.574 234.667C211.036 234.408 210.832 233.853 210.721 233.279C210.443 231.614 209.571 230.411 208.032 229.652C206.975 229.134 206.122 228.32 205.158 227.654C204.101 226.913 203.1 226.118 201.783 225.859C201.468 225.803 201.19 225.599 200.986 225.34C198.946 222.898 196.555 220.788 194.441 218.438C193.959 217.901 193.495 217.346 193.235 216.643C193.031 216.069 192.661 215.532 192.16 215.199C191.029 214.441 190.639 213.293 190.287 212.09C190.12 211.554 190.065 210.98 190.621 210.702C191.251 210.388 191.437 211.017 191.659 211.406C192.327 212.609 193.365 213.238 194.719 213.219C196.035 213.182 196.833 212.349 197.389 211.239C197.834 210.351 197.667 209.518 197.222 208.704C196.851 208.038 196.721 207.371 196.87 206.613C197.111 205.447 196.703 204.392 196.184 203.374C195.831 202.634 195.683 201.949 196.425 201.283C197.241 201.875 197.815 202.56 198.075 203.485C198.242 204.115 198.501 204.688 198.946 205.188C200.263 206.631 202.173 206.946 203.489 205.928C204.787 204.947 205.158 202.671 204.213 201.209C203.786 200.543 203.526 199.858 203.452 199.081C203.36 198.119 203.063 197.193 202.599 196.324C202.154 195.472 202.321 194.769 203.248 194.325C204.101 193.899 204.695 193.215 205.158 192.363C205.807 191.198 207.031 190.994 208.125 191.753C208.57 192.067 208.589 192.456 208.533 192.919C208.403 193.955 208.44 195.01 208.477 196.046C208.589 199.174 211.518 201.357 214.541 200.58C217.526 199.821 218.676 195.657 216.58 193.196C215.894 192.4 215.134 191.679 214.374 190.976C213.855 190.494 213.706 190.013 214.003 189.366C214.652 187.959 214.374 186.608 213.632 185.331C213.261 184.702 212.983 184.036 212.927 183.296C212.927 183.129 212.927 182.963 212.835 182.833C211.129 180.205 211.018 176.8 208.681 174.487C208.181 174.006 207.828 173.414 207.884 172.674C207.977 170.952 207.365 169.435 206.512 167.992C206.011 167.159 205.807 166.308 206.085 165.271C207.235 165.53 208.199 165.993 208.496 167.177C208.922 168.917 209.886 170.231 211.37 171.193C211.871 171.508 212 171.952 211.963 172.525C211.908 173.895 212.464 175.024 213.187 176.208C214.225 177.911 215.394 179.558 216.061 181.464C216.228 181.963 216.432 182.444 216.766 182.852C216.97 183.092 217.211 183.351 217.303 183.647C218.583 187.367 221.179 190.494 222.069 194.381C222.273 195.25 222.903 195.935 223.385 196.675C224.553 198.452 225.629 200.302 227.001 201.931C227.65 202.69 228.41 203.245 229.337 203.596C230.524 204.04 231.655 203.578 232.1 202.412C232.397 201.653 232.527 200.876 232.341 200.043C231.674 197.175 231.006 194.325 229.949 191.586C229.282 189.865 228.132 188.385 227.335 186.701C226.816 185.627 226.055 184.647 226.092 183.333C227.168 184.85 229.041 185.646 229.671 187.571C229.931 188.385 230.617 188.958 231.359 189.403C234.14 190.994 236.699 192.826 238.868 195.213C239.239 195.62 239.74 195.935 240.203 196.25C240.945 196.786 241.483 197.452 241.742 198.341C242.206 199.895 242.855 201.357 244.227 202.375C244.653 202.69 244.728 203.189 244.746 203.67C244.802 204.651 245.247 205.428 245.933 206.095C247.082 207.223 246.878 207.501 246.471 209.074C245.859 211.406 244.802 213.534 244.06 215.755C243.485 217.531 243.337 219.493 242.688 221.343C242.169 222.824 243.114 224.249 243.634 225.618C243.986 226.525 244.097 227.228 243.559 228.098C242.985 229.023 242.873 230.078 243.263 231.114C243.634 232.113 243.578 233.187 243.652 234.223C243.782 235.907 243.893 237.591 244.542 239.183C244.653 239.442 244.616 239.738 244.579 240.015C244.283 243.032 245.506 245.586 247.064 248.01C247.175 248.176 247.342 248.306 247.527 248.38C247.787 248.546 248.065 248.713 248.306 248.898C249.753 250.045 251.737 250.008 253.183 248.787C253.461 248.565 253.739 248.343 254.017 248.139C254.907 247.177 255.167 245.993 254.87 244.79C254.314 242.569 253.813 240.33 252.59 238.35C252.404 238.035 252.2 237.702 252.2 237.351C252.2 234.667 250.772 232.243 250.828 229.541C250.847 228.69 250.439 227.894 249.882 227.228C249.382 226.654 249.363 226.099 249.678 225.451C249.753 225.303 249.79 225.155 249.882 225.007C251.755 222.25 251.866 218.993 252.46 215.866C252.478 215.755 252.497 215.625 252.664 215.458L253.294 205.761L253.313 205.854Z" fill="#6C5540"/>
<path d="M247.546 248.472C246.749 246.714 245.951 244.975 245.173 243.217C245.061 242.958 244.95 242.68 244.932 242.421C244.579 239.294 244.227 236.166 243.875 233.039C243.819 232.484 243.763 231.91 243.615 231.392C243.226 230.022 243.337 228.745 244.264 227.635C244.672 227.154 244.561 226.839 244.301 226.284C243.578 224.693 242.373 223.064 243.04 221.288C243.689 219.585 244.394 217.994 244.208 216.106C244.153 215.495 244.653 214.7 245.136 214.2C245.951 213.367 246.1 212.424 246.211 211.35C246.285 210.573 246.471 209.759 246.804 209.055C247.398 207.797 247.379 206.964 246.304 206.076C245.395 205.317 244.969 204.429 244.969 203.245C244.969 202.912 244.746 202.43 244.468 202.245C243.207 201.357 242.521 200.117 242.15 198.674C241.835 197.452 241.167 196.564 240.092 195.824C238.942 195.028 238.034 193.918 236.921 193.067C235.16 191.734 233.305 190.55 231.544 189.236C230.914 188.773 230.209 188.181 229.949 187.496C229.56 186.405 228.874 185.683 228.039 184.961C227.205 184.24 226.519 183.351 225.777 182.555C225.666 182.611 225.573 182.667 225.462 182.722C225.61 183.425 225.61 184.221 225.926 184.85C226.89 186.793 227.984 188.662 229.022 190.568C229.3 191.105 229.634 191.623 229.801 192.197C230.561 194.825 231.266 197.452 231.989 200.08C231.989 200.117 231.989 200.154 232.008 200.191C232.267 201.561 231.785 202.967 230.914 203.411C230.079 203.837 228.54 203.411 227.687 202.338C226.408 200.691 225.295 198.933 224.034 197.267C222.18 194.843 221.642 191.845 220.326 189.199C219.862 188.274 219.287 187.404 218.75 186.516C218.638 186.349 218.472 186.201 218.397 186.016C217.637 184.277 216.895 182.537 216.135 180.797C215.968 180.409 215.727 180.02 215.505 179.65C215.449 179.558 215.319 179.484 215.264 179.391C214.262 177.411 212.872 175.523 212.39 173.432C212.074 172.044 211.778 171.138 210.628 170.268C209.868 169.694 209.182 168.639 208.996 167.714C208.607 165.808 207.142 165.401 205.677 164.642C205.455 165.919 205.344 166.992 206.085 168.084C207.068 169.546 207.587 171.175 207.569 172.97C207.569 173.469 207.773 174.098 208.106 174.469C209.553 176.06 210.628 177.781 210.925 179.965C210.98 180.409 211.314 180.834 211.555 181.242C211.778 181.63 212.074 181.963 212.241 182.37C212.779 183.777 213.428 185.183 213.743 186.645C213.947 187.571 213.817 188.644 213.521 189.551C213.28 190.309 213.317 190.661 213.947 191.142C214.763 191.771 215.505 192.549 216.209 193.307C217.563 194.751 217.711 196.897 216.599 198.674C215.635 200.228 214.059 200.802 212.074 200.321C210.183 199.858 208.83 198.267 208.811 196.324C208.811 195.047 208.941 193.77 208.941 192.493C208.941 192.215 208.737 191.771 208.514 191.66C207.865 191.383 207.161 191.198 206.456 191.068C205.714 190.92 205.344 191.346 204.954 191.956C204.416 192.771 203.749 193.548 202.97 194.14C202.006 194.88 201.783 195.38 202.21 196.564C202.581 197.601 202.766 198.711 203.081 199.766C203.211 200.21 203.397 200.672 203.656 201.043C204.546 202.301 204.676 203.8 203.916 205.003C203.267 206.039 202.284 206.446 201.116 206.224C199.633 205.947 198.854 204.929 198.335 203.522C197.945 202.449 197.148 201.524 196.462 200.413C195.516 201.653 195.127 202.597 195.924 203.744C196.165 204.096 196.351 204.54 196.388 204.966C196.536 206.668 196.388 208.389 197.185 210.055C197.63 210.999 196.647 212.294 195.59 212.738C194.533 213.182 193.18 212.905 192.382 211.998C192.123 211.702 192.012 211.258 191.715 210.999C191.344 210.665 190.862 210.462 190.436 210.184C190.213 210.74 189.694 211.424 189.842 211.85C190.324 213.182 190.417 214.792 191.993 215.551C192.364 215.736 192.642 216.273 192.828 216.698C193.625 218.475 194.978 219.715 196.388 220.973C197.89 222.305 199.095 223.934 200.504 225.359C200.949 225.822 201.617 226.044 202.173 226.395C203.564 227.265 204.936 228.135 206.326 229.005C206.827 229.319 207.291 229.726 207.828 229.985C209.256 230.652 210.016 231.743 210.35 233.298C210.498 233.983 211.018 234.778 211.611 235.167C213.502 236.37 215.523 237.369 217.415 238.553C218.101 238.979 218.731 239.645 219.121 240.367C220.27 242.532 221.494 244.623 223.256 246.363C223.682 246.77 223.96 247.344 224.275 247.843C225.073 249.139 225.814 250.471 226.649 251.729C227.409 252.877 227.687 254.098 227.428 255.412C227.261 256.245 227.372 256.911 228.039 257.448C229.078 256.208 230.394 255.375 231.896 254.801C232.23 254.672 232.527 254.357 232.768 254.061C234.233 252.266 235.642 251.859 237.904 252.525C238.33 252.655 239.072 252.692 239.276 252.451C240.611 250.915 242.632 250.601 244.264 249.601C245.21 249.028 246.396 248.843 247.472 248.472H247.546Z" fill="#FEFEFE"/>
</g>
<g clip-path="url(#clip3_247_15)">
<path d="M253.313 30.146C253.313 30.8122 253.146 31.4414 252.756 31.9595C252.163 32.7368 252.145 33.551 252.33 34.4763C252.46 35.1425 252.886 35.8642 252.256 36.5304C252.182 36.956 252.033 37.3817 252.033 37.7888C252.07 39.7874 251.125 41.2308 249.493 42.2486C247.861 43.2664 246.285 44.3213 245.265 46.0423C244.932 46.6159 244.227 47.0046 243.708 47.4672C243.763 47.5227 243.782 47.5782 243.763 47.6152C243.763 47.6708 243.726 47.6893 243.708 47.6893C243.634 47.7448 243.541 47.8003 243.467 47.8373C243.207 47.9669 242.966 48.1334 242.725 48.3C242.595 48.3925 242.484 48.485 242.354 48.596C241.668 49.1327 241.001 49.6879 240.092 49.8174C238.423 50.095 237.199 50.9092 235.938 52.1491C234.121 53.9071 233.009 56.2018 230.932 57.7563C228.633 59.4773 226.334 59.8845 223.682 58.9592C222.532 58.5521 222.458 58.6631 222.143 59.8474C221.679 61.6795 220.66 63.308 220.066 65.0845C219.881 65.6582 219.399 66.1023 218.861 66.4169C217.971 66.9166 217.711 67.6568 217.767 68.6376C217.86 70.5067 217.044 71.9686 215.542 73.0789C214.411 73.9302 213.41 74.8555 212.649 76.0953C211.667 77.6683 210.331 78.9822 208.514 79.6669C207.495 80.0555 206.475 80.1666 205.455 79.778C204.528 79.4449 203.601 79.2598 202.618 79.2783C200.801 79.3153 197.815 76.9651 198.038 74.6334C198.112 73.7081 197.908 72.7828 197.741 71.8946C197.482 70.6362 197.778 69.5444 198.372 68.5451C198.946 67.5458 199.317 66.528 199.41 65.3806C199.521 63.9372 200.096 62.6603 200.801 61.4389C200.875 61.3279 200.968 61.2539 201.097 61.2169C202.006 60.7542 202.303 60.014 202.414 58.9962C202.636 57.0901 203.1 55.221 203.489 53.2409C200.708 52.7968 198.835 50.6872 197.296 48.2259C196.851 47.5227 196.74 46.5974 196.536 45.7647C196.388 45.0985 196.351 44.4138 196.258 43.7476C196.128 42.9888 195.739 42.5632 194.923 42.4337C192.401 42.0636 190.695 40.3796 189.119 38.603C188.34 37.7148 188.21 36.5674 188.581 35.4201C188.897 34.4023 188.859 33.7916 187.506 33.4955C185.058 32.9588 182.444 28.4805 183.13 26.1303C183.501 24.8534 183.872 23.6875 183.501 22.3181C183.334 21.6889 183.649 20.7636 184.038 20.1715C184.595 19.3017 184.817 18.4689 184.762 17.4696C184.687 15.8967 185.54 14.8233 186.709 13.8055C188.081 12.6212 189.212 11.1407 190.51 9.86385C191.678 8.7165 192.92 7.66168 194.163 6.58836C194.7 6.10722 195.275 5.68158 195.831 5.23745C196.313 4.99687 196.777 4.77481 197.259 4.53424C197.259 4.38619 197.259 4.16412 197.5 4.34918C197.537 4.34918 197.574 4.31217 197.593 4.27516C197.537 4.21964 197.5 4.16412 197.519 4.12711C197.593 3.99757 197.667 4.07159 197.741 4.12711L197.815 4.05309C197.741 3.73849 198.001 3.64597 198.186 3.49792C198.817 2.99828 199.447 2.51713 200.059 2.01748C200.263 1.90645 200.374 1.55483 200.708 1.73989C201.672 1.09219 202.655 0.444504 203.619 -0.203194C204.213 -0.591812 204.787 -0.998932 205.362 -1.38755C205.585 -1.57261 205.844 -1.60962 206.104 -1.5356H206.808C206.975 -1.57261 207.142 -1.57261 207.309 -1.5356C207.661 -1.75767 208.143 -1.90571 208.347 -2.23881C209.571 -4.10787 210.739 -6.01395 211.945 -7.90152C212.223 -8.34565 212.519 -8.8083 212.927 -9.10439C214.782 -10.3998 215.635 -12.2503 216.247 -14.36C216.543 -15.4333 217.433 -16.3401 218.027 -17.3209C218.379 -17.8945 218.75 -18.4867 218.935 -19.1159C219.362 -20.5964 220.252 -21.6142 221.568 -22.3914C222.162 -22.743 222.588 -23.4277 223.07 -23.9459C223.682 -24.6121 224.294 -25.2598 224.906 -25.926C227.001 -25.889 228.039 -25.4263 228.336 -24.0014C228.522 -23.1686 228.169 -22.2433 228.077 -21.3551C227.78 -20.5038 227.724 -19.6526 227.873 -18.7643C228.077 -17.4689 227.613 -16.2846 226.797 -15.2852C226.092 -14.434 225.555 -13.5087 225.091 -12.5279C224.498 -11.288 223.663 -10.2517 222.736 -9.21542C221.568 -7.90151 220.567 -6.42107 219.825 -4.81109C219.176 -3.42317 218.268 -2.40536 216.858 -1.79468C214.967 -0.961922 213.41 0.426003 211.574 1.33277C211.036 1.59185 210.832 2.14702 210.721 2.7207C210.443 4.38619 209.571 5.58906 208.032 6.34779C206.975 6.86594 206.122 7.68018 205.158 8.34639C204.101 9.08661 203.1 9.88235 201.783 10.1414C201.468 10.1969 201.19 10.4005 200.986 10.6596C198.946 13.1023 196.555 15.212 194.441 17.5622C193.959 18.0988 193.495 18.654 193.235 19.3572C193.031 19.9309 192.661 20.4676 192.16 20.8007C191.029 21.5594 190.639 22.7067 190.287 23.9096C190.12 24.4463 190.065 25.0199 190.621 25.2975C191.251 25.6121 191.437 24.9829 191.659 24.5943C192.327 23.3914 193.365 22.7622 194.719 22.7808C196.035 22.8178 196.833 23.6505 197.389 24.7608C197.834 25.6491 197.667 26.4819 197.222 27.2961C196.851 27.9623 196.721 28.6285 196.87 29.3872C197.111 30.5531 196.703 31.6079 196.184 32.6257C195.831 33.3659 195.683 34.0507 196.425 34.7169C197.241 34.1247 197.815 33.44 198.075 32.5147C198.242 31.8855 198.501 31.3118 198.946 30.8122C200.263 29.3687 202.173 29.0541 203.489 30.072C204.787 31.0527 205.158 33.3289 204.213 34.7909C203.786 35.4571 203.526 36.1418 203.452 36.919C203.36 37.8813 203.063 38.8066 202.599 39.6763C202.154 40.5276 202.321 41.2308 203.248 41.675C204.101 42.1006 204.695 42.7853 205.158 43.6365C205.807 44.8024 207.031 45.006 208.125 44.2472C208.57 43.9326 208.589 43.544 208.533 43.0814C208.403 42.0451 208.44 40.9902 208.477 39.9539C208.589 36.8265 211.518 34.6428 214.541 35.4201C217.526 36.1788 218.676 40.3426 216.58 42.8038C215.894 43.5995 215.134 44.3213 214.374 45.0245C213.855 45.5056 213.706 45.9868 214.003 46.6345C214.652 48.0409 214.374 49.3918 213.632 50.6687C213.261 51.2979 212.983 51.9641 212.927 52.7043C212.927 52.8708 212.927 53.0374 212.835 53.1669C211.129 55.7947 211.018 59.1997 208.681 61.5129C208.181 61.9941 207.828 62.5863 207.884 63.3265C207.977 65.0475 207.365 66.565 206.512 68.0084C206.011 68.8412 205.807 69.6924 206.085 70.7287C207.235 70.4696 208.199 70.007 208.496 68.8227C208.922 67.0831 209.886 65.7692 211.37 64.8069C211.871 64.4923 212 64.0482 211.963 63.4745C211.908 62.1051 212.464 60.9763 213.187 59.7919C214.225 58.0894 215.394 56.4424 216.061 54.5363C216.228 54.0367 216.432 53.5555 216.766 53.1484C216.97 52.9078 217.211 52.6488 217.303 52.3527C218.583 48.6331 221.179 45.5056 222.069 41.6194C222.273 40.7497 222.903 40.065 223.385 39.3247C224.553 37.5482 225.629 35.6977 227.001 34.0692C227.65 33.3104 228.41 32.7553 229.337 32.4037C230.524 31.9595 231.655 32.4222 232.1 33.588C232.397 34.3467 232.527 35.124 232.341 35.9567C231.674 38.8251 231.006 41.675 229.949 44.4138C229.282 46.1348 228.132 47.6152 227.335 49.2993C226.816 50.3726 226.055 51.3534 226.092 52.6673C227.168 51.1498 229.041 50.3541 229.671 48.4295C229.931 47.6152 230.617 47.0416 231.359 46.5974C234.14 45.006 236.699 43.1739 238.868 40.7867C239.239 40.3796 239.74 40.065 240.203 39.7504C240.945 39.2137 241.483 38.5475 241.742 37.6592C242.206 36.1048 242.855 34.6428 244.227 33.625C244.653 33.3104 244.728 32.8108 244.746 32.3296C244.802 31.3488 245.247 30.5716 245.933 29.9054C247.082 28.7766 246.878 28.499 246.471 26.926C245.859 24.5943 244.802 22.4661 244.06 20.2455C243.485 18.4689 243.337 16.5074 242.688 14.6568C242.169 13.1763 243.114 11.7514 243.634 10.382C243.986 9.47523 244.097 8.77202 243.559 7.90225C242.985 6.97697 242.873 5.92216 243.263 4.88584C243.634 3.88654 243.578 2.81322 243.652 1.7769C243.782 0.0928955 243.893 -1.59111 244.542 -3.18259C244.653 -3.44167 244.616 -3.73776 244.579 -4.01535C244.283 -7.03176 245.506 -9.58553 247.064 -12.0098C247.175 -12.1763 247.342 -12.3058 247.527 -12.3799C247.787 -12.5464 248.065 -12.713 248.306 -12.898C249.753 -14.0454 251.737 -14.0084 253.183 -12.787C253.461 -12.5649 253.739 -12.3429 254.017 -12.1393C254.907 -11.177 255.167 -9.99265 254.87 -8.78979C254.314 -6.56911 253.813 -4.32994 252.59 -2.34984C252.404 -2.03525 252.2 -1.70214 252.2 -1.35054C252.2 1.33277 250.772 3.757 250.828 6.45882C250.847 7.31007 250.439 8.10581 249.882 8.77201C249.382 9.34569 249.363 9.90086 249.678 10.5486C249.753 10.6966 249.79 10.8446 249.882 10.9927C251.755 13.75 251.866 17.007 252.46 20.1344C252.478 20.2455 252.497 20.375 252.664 20.5416L253.294 30.2385L253.313 30.146Z" fill="#6C5540"/>
<path d="M247.546 -12.4724C246.749 -10.7144 245.951 -8.97484 245.173 -7.2168C245.061 -6.95773 244.95 -6.68015 244.932 -6.42107C244.579 -3.29362 244.227 -0.166176 243.875 2.96127C243.819 3.51643 243.763 4.0901 243.615 4.60826C243.226 5.97768 243.337 7.25455 244.264 8.36489C244.672 8.84604 244.561 9.16064 244.301 9.71581C243.578 11.3073 242.373 12.9358 243.04 14.7123C243.689 16.4148 244.394 18.0063 244.208 19.8939C244.153 20.5046 244.653 21.3003 245.136 21.7999C245.951 22.6327 246.1 23.5765 246.211 24.6498C246.285 25.427 246.471 26.2413 246.804 26.9445C247.398 28.2029 247.379 29.0356 246.304 29.9239C245.395 30.6826 244.969 31.5709 244.969 32.7553C244.969 33.0884 244.746 33.5695 244.468 33.7546C243.207 34.6428 242.521 35.8827 242.15 37.3261C241.835 38.5475 241.167 39.4358 240.092 40.176C238.942 40.9717 238.034 42.0821 236.921 42.9333C235.16 44.2657 233.305 45.4501 231.544 46.764C230.914 47.2266 230.209 47.8188 229.949 48.5035C229.56 49.5953 228.874 50.3171 228.039 51.0388C227.205 51.7605 226.519 52.6488 225.777 53.4445C225.666 53.389 225.573 53.3335 225.462 53.278C225.61 52.5747 225.61 51.779 225.926 51.1498C226.89 49.2067 227.984 47.3377 229.022 45.4316C229.3 44.8949 229.634 44.3768 229.801 43.8031C230.561 41.1753 231.266 38.5475 231.989 35.9197C231.989 35.8827 231.989 35.8457 232.008 35.8087C232.267 34.4393 231.785 33.0328 230.914 32.5887C230.079 32.1631 228.54 32.5887 227.687 33.662C226.408 35.309 225.295 37.0671 224.034 38.7326C222.18 41.1568 221.642 44.1547 220.326 46.801C219.862 47.7263 219.287 48.596 218.75 49.4843C218.638 49.6509 218.472 49.7989 218.397 49.984C217.637 51.7235 216.895 53.463 216.135 55.2025C215.968 55.5912 215.727 55.9798 215.505 56.3499C215.449 56.4424 215.319 56.5164 215.264 56.609C214.262 58.5891 212.872 60.4766 212.39 62.5678C212.074 63.9557 211.778 64.8624 210.628 65.7322C209.868 66.3059 209.182 67.3607 208.996 68.286C208.607 70.1921 207.142 70.5992 205.677 71.3579C205.455 70.081 205.344 69.0077 206.085 67.9159C207.068 66.4539 207.587 64.8254 207.569 63.0304C207.569 62.5307 207.773 61.9016 208.106 61.5314C209.553 59.94 210.628 58.2189 210.925 56.0353C210.98 55.5912 211.314 55.1655 211.555 54.7584C211.778 54.3698 212.074 54.0367 212.241 53.6296C212.779 52.2231 213.428 50.8167 213.743 49.3548C213.947 48.4295 213.817 47.3562 213.521 46.4494C213.28 45.6907 213.317 45.3391 213.947 44.8579C214.763 44.2287 215.505 43.4515 216.209 42.6928C217.563 41.2493 217.711 39.1027 216.599 37.3261C215.635 35.7717 214.059 35.198 212.074 35.6791C210.183 36.1418 208.83 37.7333 208.811 39.6763C208.811 40.9532 208.941 42.2301 208.941 43.507C208.941 43.7846 208.737 44.2287 208.514 44.3398C207.865 44.6173 207.161 44.8024 206.456 44.9319C205.714 45.08 205.344 44.6543 204.954 44.0437C204.416 43.2294 203.749 42.4522 202.97 41.86C202.006 41.1198 201.783 40.6201 202.21 39.4358C202.581 38.3995 202.766 37.2891 203.081 36.2343C203.211 35.7902 203.397 35.3275 203.656 34.9574C204.546 33.699 204.676 32.2001 203.916 30.9972C203.267 29.9609 202.284 29.5538 201.116 29.7759C199.633 30.0534 198.854 31.0712 198.335 32.4777C197.945 33.551 197.148 34.4763 196.462 35.5866C195.516 34.3467 195.127 33.403 195.924 32.2556C196.165 31.904 196.351 31.4599 196.388 31.0342C196.536 29.3317 196.388 27.6107 197.185 25.9452C197.63 25.0014 196.647 23.706 195.59 23.2619C194.533 22.8178 193.18 23.0953 192.382 24.0021C192.123 24.2982 192.012 24.7423 191.715 25.0014C191.344 25.3345 190.862 25.5381 190.436 25.8157C190.213 25.2605 189.694 24.5758 189.842 24.1502C190.324 22.8178 190.417 21.2078 191.993 20.449C192.364 20.264 192.642 19.7273 192.828 19.3017C193.625 17.5252 194.978 16.2853 196.388 15.0269C197.89 13.6945 199.095 12.066 200.504 10.6411C200.949 10.1784 201.617 9.95637 202.173 9.60476C203.564 8.735 204.936 7.86525 206.326 6.99548C206.827 6.68089 207.291 6.27377 207.828 6.01469C209.256 5.34849 210.016 4.25666 210.35 2.70219C210.498 2.01748 211.018 1.22173 211.611 0.833122C213.502 -0.369743 215.523 -1.36905 217.415 -2.55341C218.101 -2.97903 218.731 -3.64523 219.121 -4.36694C220.27 -6.5321 221.494 -8.62324 223.256 -10.3628C223.682 -10.7699 223.96 -11.3436 224.275 -11.8432C225.073 -13.1386 225.814 -14.471 226.649 -15.7294C227.409 -16.8767 227.687 -18.0981 227.428 -19.412C227.261 -20.2448 227.372 -20.9109 228.039 -21.4476C229.078 -20.2077 230.394 -19.375 231.896 -18.8013C232.23 -18.6718 232.527 -18.3572 232.768 -18.0611C234.233 -16.266 235.642 -15.8589 237.904 -16.5251C238.33 -16.6547 239.072 -16.6917 239.276 -16.4511C240.611 -14.9151 242.632 -14.6005 244.264 -13.6012C245.21 -13.0276 246.396 -12.8425 247.472 -12.4724H247.546Z" fill="#FEFEFE"/>
</g>
</g>
<defs>
<clipPath id="clip0_247_15">
<rect width="72" height="106" fill="white" transform="translate(22 157)"/>
</clipPath>
<clipPath id="clip1_247_15">
<rect width="72" height="106" fill="white" transform="matrix(1 0 0 -1 22 79)"/>
</clipPath>
<clipPath id="clip2_247_15">
<rect width="72" height="106" fill="white" transform="matrix(-1 0 0 1 255 156)"/>
</clipPath>
<clipPath id="clip3_247_15">
<rect width="72" height="106" fill="white" transform="translate(255 80) rotate(-180)"/>
</clipPath>
</defs>
</svg>
