<svg width="54" height="54" viewBox="0 0 54 54" fill="none" xmlns="http://www.w3.org/2000/svg">
<path d="M26.9994 25.111C28.7575 25.111 30.4761 24.5897 31.9378 23.613C33.3996 22.6363 34.5389 21.248 35.2117 19.6238C35.8845 17.9995 36.0605 16.2123 35.7175 14.488C35.3745 12.7637 34.528 11.1799 33.2848 9.93675C32.0417 8.69362 30.4578 7.84703 28.7336 7.50405C27.0093 7.16107 25.222 7.3371 23.5978 8.00988C21.9736 8.68266 20.5853 9.82197 19.6086 11.2837C18.6319 12.7455 18.1105 14.4641 18.1105 16.2221C18.1105 18.5796 19.047 20.8405 20.714 22.5075C22.381 24.1745 24.6419 25.111 26.9994 25.111ZM26.9994 11.7777C27.8785 11.7777 28.7377 12.0384 29.4686 12.5267C30.1995 13.0151 30.7692 13.7092 31.1056 14.5213C31.4419 15.3334 31.53 16.2271 31.3585 17.0892C31.187 17.9514 30.7637 18.7433 30.1421 19.3648C29.5206 19.9864 28.7286 20.4097 27.8665 20.5812C27.0044 20.7527 26.1107 20.6647 25.2986 20.3283C24.4865 19.9919 23.7924 19.4222 23.304 18.6913C22.8156 17.9605 22.555 17.1012 22.555 16.2221C22.555 15.0434 23.0232 13.9129 23.8567 13.0794C24.6902 12.246 25.8207 11.7777 26.9994 11.7777Z" fill="#A27320"/>
<path d="M26.9993 29.5554C22.8737 29.5554 18.9171 31.1943 15.9999 34.1115C13.0826 37.0288 11.4438 40.9854 11.4438 45.111C11.4438 45.7003 11.6779 46.2656 12.0946 46.6823C12.5114 47.0991 13.0766 47.3332 13.666 47.3332C14.2553 47.3332 14.8206 47.0991 15.2373 46.6823C15.6541 46.2656 15.8882 45.7003 15.8882 45.111C15.8882 42.1641 17.0588 39.338 19.1426 37.2542C21.2263 35.1705 24.0525 33.9999 26.9993 33.9999C29.9462 33.9999 32.7723 35.1705 34.8561 37.2542C36.9398 39.338 38.1104 42.1641 38.1104 45.111C38.1104 45.7003 38.3445 46.2656 38.7613 46.6823C39.178 47.0991 39.7433 47.3332 40.3326 47.3332C40.922 47.3332 41.4872 47.0991 41.904 46.6823C42.3207 46.2656 42.5549 45.7003 42.5549 45.111C42.5549 40.9854 40.916 37.0288 37.9987 34.1115C35.0815 31.1943 31.1249 29.5554 26.9993 29.5554Z" fill="#A27320"/>
</svg>
