<svg width="38" height="38" viewBox="0 0 38 38" fill="none" xmlns="http://www.w3.org/2000/svg">
<path d="M18.9994 17.2777C20.2301 17.2777 21.4331 16.9128 22.4563 16.2291C23.4796 15.5454 24.2771 14.5736 24.748 13.4366C25.219 12.2997 25.3422 11.0486 25.1021 9.84158C24.862 8.63459 24.2694 7.52589 23.3992 6.6557C22.529 5.78551 21.4203 5.1929 20.2133 4.95281C19.0063 4.71273 17.7553 4.83595 16.6183 5.30689C15.4813 5.77784 14.5096 6.57536 13.8259 7.5986C13.1421 8.62183 12.7772 9.82484 12.7772 11.0555C12.7772 12.7057 13.4328 14.2884 14.5997 15.4553C15.7666 16.6221 17.3492 17.2777 18.9994 17.2777ZM18.9994 7.94437C19.6148 7.94437 20.2163 8.12683 20.7279 8.46868C21.2395 8.81054 21.6383 9.29642 21.8737 9.86491C22.1092 10.4334 22.1708 11.0589 22.0508 11.6624C21.9307 12.2659 21.6344 12.8203 21.1993 13.2554C20.7642 13.6905 20.2099 13.9868 19.6064 14.1068C19.0029 14.2269 18.3774 14.1652 17.8089 13.9298C17.2404 13.6943 16.7545 13.2955 16.4127 12.7839C16.0708 12.2723 15.8883 11.6708 15.8883 11.0555C15.8883 10.2304 16.2161 9.43904 16.7996 8.85559C17.383 8.27214 18.1743 7.94437 18.9994 7.94437Z" fill="#1A4100"/>
<path d="M18.9995 20.3887C16.1116 20.3887 13.3419 21.5359 11.2999 23.578C9.25781 25.62 8.1106 28.3896 8.1106 31.2776C8.1106 31.6901 8.27448 32.0858 8.56621 32.3775C8.85793 32.6692 9.25359 32.8331 9.66615 32.8331C10.0787 32.8331 10.4744 32.6692 10.7661 32.3775C11.0578 32.0858 11.2217 31.6901 11.2217 31.2776C11.2217 29.2148 12.0411 27.2365 13.4998 25.7778C14.9584 24.3192 16.9367 23.4998 18.9995 23.4998C21.0623 23.4998 23.0406 24.3192 24.4992 25.7778C25.9578 27.2365 26.7773 29.2148 26.7773 31.2776C26.7773 31.6901 26.9412 32.0858 27.2329 32.3775C27.5246 32.6692 27.9203 32.8331 28.3328 32.8331C28.7454 32.8331 29.141 32.6692 29.4328 32.3775C29.7245 32.0858 29.8884 31.6901 29.8884 31.2776C29.8884 28.3896 28.7412 25.62 26.6991 23.578C24.657 21.5359 21.8874 20.3887 18.9995 20.3887Z" fill="#1A4100"/>
</svg>
