<?xml version="1.0" encoding="utf-8"?>
<!-- Generator: Adobe Illustrator 27.0.1, SVG Export Plug-In . SVG Version: 6.00 Build 0)  -->
<svg version="1.1" id="レイヤー_1" xmlns="http://www.w3.org/2000/svg" xmlns:xlink="http://www.w3.org/1999/xlink" x="0px"
	 y="0px" viewBox="0 0 168 168" style="enable-background:new 0 0 168 168;" xml:space="preserve">
<style type="text/css">
	.st0{fill:#6CE020;}
	.st1{clip-path:url(#SVGID_00000137118023877143291650000011353379757715974292_);}
	.st2{fill:#2383B7;}
	.st3{fill:#D4F969;}
	.st4{fill:#CAEF5D;}
	.st5{fill:#F16E4E;}
	.st6{fill:#FFB5EF;}
	.st7{fill:#3B3934;}
	.st8{fill:#FFFFFF;}
	.st9{clip-path:url(#SVGID_00000100344646911624814760000007329466716639350174_);}
	.st10{fill:#E7FDA8;}
	.st11{fill:#81A48C;}
	.st12{fill:#46433F;}
	.st13{fill:#90B4DF;}
	.st14{fill:#FFC73A;}
	.st15{fill:#EE8B98;}
	.st16{fill:#FFE834;}
	.st17{fill:#DE6042;}
	.st18{clip-path:url(#SVGID_00000001626773679422011670000007273232653135448732_);}
	.st19{fill:#E8684E;}
	.st20{fill:#313D45;}
	.st21{clip-path:url(#SVGID_00000021115039337928845100000017797298307224652973_);}
	.st22{fill:#2D9808;}
	.st23{fill:#FDF0DA;}
	.st24{fill:#FB6C3D;}
	.st25{fill:#040000;}
	.st26{clip-path:url(#SVGID_00000142161426226919260830000004506500862041988753_);}
	.st27{fill:#0A886B;}
	.st28{fill:#FFF6EF;}
	.st29{fill:#F9704E;}
	.st30{fill:#FFF4EB;}
	.st31{fill:#FFF0A8;}
	.st32{fill:#4E4C49;}
	.st33{fill:#22876C;}
	.st34{fill:#422307;}
	.st35{fill-rule:evenodd;clip-rule:evenodd;fill:#FFFFFF;}
</style>
<g>
	<path class="st0" d="M10,0h148c5.5,0,10,4.5,10,10v148c0,5.5-4.5,10-10,10H10c-5.5,0-10-4.5-10-10V10C0,4.5,4.5,0,10,0z"/>
	<g>
		<defs>
			<rect id="SVGID_1_" x="106" y="98" width="56" height="62"/>
		</defs>
		<clipPath id="SVGID_00000183235265772744405150000012030450205676879517_">
			<use xlink:href="#SVGID_1_"  style="overflow:visible;"/>
		</clipPath>
		<g style="clip-path:url(#SVGID_00000183235265772744405150000012030450205676879517_);">
			<path class="st2" d="M113.6,149.3c-1.8-0.1-8.5,2.6-7.5,4.8c0.1,0.2,0.2,0.3,0.4,0.4c1.1,0.5,2.4,0.5,3.7,0.7
				c0.5,0.1,0.8,0.7,0.4,1.1l-0.5,0.6c-0.4,0.4-0.1,1.1,0.4,1.1c1.4,0.2,2.9,0.3,4.4,0.1c0.5,0,0.9,0.4,0.7,0.9
				c-0.2,0.4,0.2,0.9,0.6,0.9c9.2-0.2,18.3-1.9,27.5-2.6c2-0.2,5.6-0.8,5.7-3.1c0-0.3-0.1-0.5-0.4-0.6c-0.7-0.3-1.4-0.4-2.1-0.6
				c-0.5-0.1-0.7-0.6-0.4-1l0.9-1.3c0.3-0.4,0-1-0.5-1C135.1,148.5,113.7,149.3,113.6,149.3L113.6,149.3z"/>
			<path class="st3" d="M143,124.3c4-4.4-4.1-10.5-6-4.4c-2-0.7-4.1-0.8-6-0.4c0.1-7.4-10.2-4.2-7.5,2.1c-6.7,8.1-4.6,14.5,7,16.9
				C143.1,140.8,148.4,133,143,124.3L143,124.3z"/>
			<path class="st4" d="M140.8,137.9c2-0.5,3.9-1,5.9-1.6c0.7-0.2,1.6-0.4,2.2,0c0.4,0.2,0.6,0.6,0.7,1c0.2,0.8,0,1.6-0.5,2.2
				c-0.5,0.6-1.1,1.1-1.8,1.5c-2,1-4.2,1.2-6.3,1.6c-0.2,1.5-0.3,2.9-0.5,4.4c-0.3,2.4-0.6,4.8-2,6.8c-0.5,0.7-1.1,1.4-1.8,2
				c-0.6,0.6-1.2,1.3-1.9,1.7c-0.7,0.4-1.5,0-2.2,0.1c-1.1,0.2-1.4-0.5-1.5-1c-0.1-0.7,1.1-1.2,1.8-1.1c0-1.6,0.1-3.2,0.2-4.6
				c-2.5-0.2-5-0.5-7.6-1c-1.9,0.7-3.8,1.2-5.9,1.3c-0.7,0.1-1.5,0.1-2.1-0.3c-0.4-0.2-0.7-0.6-0.9-1c-0.4-0.7-0.7-1.6-0.7-2.5
				c0-0.6,0-1.1,0.4-1.6c0.3-0.4,0.9-0.7,1.4-0.5c0.4,0.2,0.6,0.5,0.9,1c1.3,0,2.5-0.3,3.7-0.6c0-1.6,0-3.2-0.3-4.9
				c-2.7-0.3-5.1-2.4-5.7-5c-0.2-0.7-0.1-1.6,0.5-2.1c0.5-0.4,1.2-0.3,1.7,0c0.5,0.3,1,0.7,1.5,1.1c1.1,0.8,2.5,1.3,3.9,1.3
				c0.7-0.1,1.5,0.1,2.2,0.3C130.8,137.8,136,139.1,140.8,137.9L140.8,137.9z"/>
			<path class="st5" d="M130.4,128.3c2,0.1,3.9,0.4,5.8,0.9c-0.2,1.5-1.1,2.8-2.3,3.6c-0.7,0.5-1.7,0.7-2.5,0.3
				c-0.6-0.4-0.9-1.2-1-1.9C130.4,130.2,130.3,129.3,130.4,128.3L130.4,128.3z"/>
			<path class="st6" d="M142.2,129.2c0.6-0.1,1.3,0.2,1.6,0.7c0.3,0.5,0.4,1.2,0.1,1.8c-0.3,0.6-0.8,1-1.4,1.1
				c-0.7,0.2-1.6-0.1-2-0.8c-0.1-0.3-0.2-0.6-0.2-0.9C140.4,130.2,141.1,129.4,142.2,129.2L142.2,129.2z"/>
			<path class="st6" d="M124,126.5c0.6-0.1,1.3,0.2,1.6,0.7c0.3,0.5,0.4,1.2,0.1,1.8c-0.3,0.6-0.8,1-1.4,1.1c-0.7,0.2-1.6-0.1-2-0.8
				c-0.1-0.3-0.2-0.6-0.2-0.9C122.2,127.5,122.9,126.7,124,126.5L124,126.5z"/>
			<path class="st7" d="M127.6,120.5c0.6,0,1.1-0.5,1.1-1.1s-0.5-1.1-1.1-1.1c-0.6,0-1.1,0.5-1.1,1.1S127,120.5,127.6,120.5z"/>
			<path class="st7" d="M140.4,122.4c0.6,0,1.1-0.5,1.1-1.1s-0.5-1.1-1.1-1.1c-0.6,0-1.1,0.5-1.1,1.1S139.8,122.4,140.4,122.4z"/>
			<path class="st8" d="M132,147.7c-0.7-0.1-1.5-0.1-2.2-0.1c-0.7,0-1.5-0.1-2.1-0.6c-0.4-0.4-0.7-0.9-0.8-1.4
				c-0.5-1.5-0.5-3.1,0-4.6c0.1-0.4,0.3-0.8,0.7-1.1c0.4-0.3,1-0.4,1.5-0.4c1.6-0.1,3.1-0.2,4.6,0.2c0.7,0.2,1.5,0.6,1.8,1.2
				c0.3,0.5,0.3,1.1,0.3,1.7c0,1.2-0.1,2.5-0.8,3.6C134.3,147.2,133,147.9,132,147.7L132,147.7z"/>
			<path class="st2" d="M156.7,127.1c1.4,2.1,5.1,1.3,5.3-1.2c0.2-2.2-1.9-6.4-3.1-9c-0.1-0.3-0.6-0.3-0.7,0.1
				C157.6,119.2,155.5,125.3,156.7,127.1L156.7,127.1z"/>
			<path class="st2" d="M157.8,99.1c0,1.6,0.2,3.1,0.2,4.7c0,1.5,2.2,1.5,2.3,0c0-1.6-0.2-3.1-0.2-4.7
				C160.1,97.6,157.9,97.6,157.8,99.1L157.8,99.1z"/>
			<path class="st2" d="M158.3,106.3c-0.6,2.1,1.8,2.2,2.1,0.9C160.5,105.5,159,105,158.3,106.3L158.3,106.3z"/>
			<path class="st2" d="M158.1,110.6c-0.4,1.8,2,2.6,2.3,0.7C160.9,109.4,158.4,108.6,158.1,110.6z"/>
		</g>
	</g>
	<path class="st2" d="M140.3,102.1c-1.4,2.1-5.1,1.3-5.3-1.2c-0.2-2.2,1.9-6.4,3.1-9c0.1-0.3,0.6-0.3,0.7,0.1
		C139.4,94.2,141.5,100.3,140.3,102.1L140.3,102.1z"/>
	<path class="st2" d="M139.2,74.1c0,1.6-0.2,3.1-0.2,4.7c0,1.5-2.2,1.5-2.3,0c0-1.6,0.2-3.1,0.2-4.7
		C136.9,72.6,139.1,72.6,139.2,74.1L139.2,74.1z"/>
	<path class="st2" d="M138.7,81.3c0.6,2.1-1.8,2.2-2.1,0.9C136.5,80.5,138,80,138.7,81.3L138.7,81.3z"/>
	<path class="st2" d="M138.9,85.6c0.4,1.8-2,2.6-2.3,0.7C136.1,84.4,138.6,83.6,138.9,85.6z"/>
	<g>
		<defs>
			<rect id="SVGID_00000116226850828200692900000016317688544492680618_" x="7" y="8" width="72" height="79"/>
		</defs>
		<clipPath id="SVGID_00000150065403419608729200000004781443729078254771_">
			<use xlink:href="#SVGID_00000116226850828200692900000016317688544492680618_"  style="overflow:visible;"/>
		</clipPath>
		<g style="clip-path:url(#SVGID_00000150065403419608729200000004781443729078254771_);">
			<path class="st10" d="M46.3,40.4c0,0,0.1,0,0.1,0c0.4-0.1,0.7-0.5,0.6-0.9L46.9,39c-0.9-5.2-2.4-13-5.1-17.4
				c-0.2-0.3-0.7-0.5-1-0.2c-0.3,0.2-0.4,0.7-0.2,1c2.6,4.3,4,11.9,4.9,16.9l0.1,0.5C45.6,40.1,45.9,40.4,46.3,40.4L46.3,40.4z"/>
			<path class="st10" d="M61,86.8c1.6-0.1,2.7-1.5,2.5-3c-1.3-10.7-4.5-22.1-8.8-31.7c-3.1-7.1-8.1-13.7-12.9-19.8
				c-4.4-5.5-10.1-10-17-11.9c-0.7-0.2-1.1,0.6-0.6,1.1c16.2,16,27.1,39.4,28.5,62.3c0.1,1.8,1.7,3.3,3.5,3.2
				C58,87,59.6,86.9,61,86.8L61,86.8z"/>
			<path class="st11" d="M34.6,32.9c0.2,0,0.4-0.1,0.5-0.2c1.1-1.3,2.1-1.8,3.2-2c0.4,0,0.7-0.4,0.7-0.8c0-0.4-0.4-0.7-0.8-0.7
				c-1.9,0.2-3.2,1.4-4.1,2.4c-0.3,0.3-0.2,0.8,0.1,1C34.3,32.9,34.5,32.9,34.6,32.9L34.6,32.9z"/>
			<path class="st12" d="M38.1,53.7c0.3,0,0.6-0.2,0.7-0.5c0.5-1.7,0.6-5.3-0.2-6.6C38.3,46.2,38,46,37.8,46
				c-0.4-0.1-0.8,0.2-0.9,0.6c-0.1,0.4,0.1,0.7,0.4,0.8c0.4,0.6,0.6,3.7,0,5.4c-0.1,0.4,0.1,0.8,0.5,0.9
				C37.9,53.7,38,53.7,38.1,53.7L38.1,53.7z"/>
			<path class="st11" d="M41.3,43c0.3,0,0.5-0.1,0.7-0.4c0.5-0.9,1.9-2.5,4.1-2.6c0.4,0,0.7-0.3,0.7-0.7c0-0.4-0.3-0.7-0.7-0.7
				c-2.7,0-4.6,1.8-5.4,3.3c-0.2,0.4,0,0.8,0.3,1C41.1,42.9,41.2,43,41.3,43L41.3,43z"/>
			<path class="st11" d="M46,51.7c0.2,0,0.4-0.1,0.6-0.3c0.9-1.2,2.9-2.5,5.1-2.4c0.4,0,0.7-0.3,0.8-0.7c0-0.4-0.3-0.7-0.7-0.8
				c-2.7-0.1-5.1,1.5-6.3,3c-0.2,0.3-0.2,0.8,0.1,1C45.7,51.7,45.9,51.7,46,51.7L46,51.7z"/>
			<path class="st11" d="M53.5,74.8c0.1,0,0.2,0,0.3-0.1l0.3-0.1c2.4-1.2,3.3-1.7,5.8-1.2c0.4,0.1,0.8-0.2,0.8-0.6
				c0.1-0.4-0.2-0.8-0.6-0.8c-3-0.5-4.3,0.2-6.7,1.4l-0.3,0.1c-0.4,0.2-0.5,0.6-0.3,1C53,74.6,53.2,74.8,53.5,74.8L53.5,74.8z"/>
			<path class="st10" d="M46.6,54.8c0.2,0,0.4-0.1,0.6-0.3c0.3-0.3,0.2-0.8-0.1-1c-3-2.4-9.3-6.6-13.8-7.6c-0.4-0.1-0.8,0.2-0.9,0.6
				c-0.1,0.4,0.2,0.8,0.6,0.9c4,0.8,10.1,4.8,13.2,7.3C46.3,54.7,46.4,54.8,46.6,54.8L46.6,54.8z"/>
			<path class="st10" d="M21.7,19.8c0.5,0,0.8-0.6,0.4-1c-1.7-2.1-3.9-3.6-6.4-4.5c-2.6-0.9-5.5-1.1-8.3-0.5
				c-0.4,0.1-0.6,0.5-0.4,0.8c1.4,2.3,3.9,4,6.5,4.7C16.1,20.1,18.8,20,21.7,19.8L21.7,19.8z"/>
			<path class="st10" d="M27.6,19.1c0.2-4.5-3.7-9.8-7.8-11.1c-0.3-0.1-0.7,0.2-0.6,0.6c1.1,3.6,2.9,9.7,7.2,11.4
				C26.9,20.1,27.5,19.7,27.6,19.1L27.6,19.1z"/>
			<path class="st12" d="M49.3,24.6c0.1,0,0.2,0,0.2,0c0.4-0.1,0.6-0.6,0.4-0.9c-0.4-1.2-1.9-3.2-2.9-3.7c-0.4-0.2-0.7-0.1-0.9,0
				c-0.4,0.2-0.5,0.6-0.4,1c0.1,0.3,0.4,0.5,0.8,0.4c0.5,0.3,1.7,1.8,2.1,2.8C48.7,24.4,49,24.6,49.3,24.6L49.3,24.6z"/>
			<path class="st10" d="M28.3,27c-2.1-1.5-4.7-2.3-7.3-2.1c-2.2,0.1-4.4,0.9-6.2,2.2c-0.4,0.3-0.3,0.9,0.1,1.1
				c4.1,2,9.1,2.1,13.3,0.5c0.6-0.2,0.8-1,0.3-1.5C28.4,27.1,28.3,27,28.3,27L28.3,27z"/>
			<path class="st10" d="M33.9,47c-2.3-5.5-8.7-7.2-13.7-4.6c-0.5,0.3-0.6,0.6-0.3,1C22.8,47.7,29.4,49.2,33.9,47z"/>
			<path class="st12" d="M63.6,47.8C63.6,47.8,63.6,47.8,63.6,47.8c0.5,0,0.8-0.4,0.7-0.8c-0.1-2.1-1.3-4-3.1-5.1
				c-0.3-0.2-0.8-0.1-1,0.3c-0.2,0.3-0.1,0.8,0.2,1c1.3,0.8,2.2,2.3,2.3,3.9C62.9,47.5,63.2,47.8,63.6,47.8L63.6,47.8z"/>
			<path class="st10" d="M44.5,31.5c0.4,0,0.7-0.3,0.7-0.7c0.3-3.1,1.9-8.5,3.6-10.7c0.2-0.3,0.2-0.8-0.1-1c-0.3-0.3-0.8-0.2-1,0.1
				c-2.1,2.7-3.7,8.5-3.9,11.5C43.7,31.1,44,31.5,44.5,31.5C44.4,31.5,44.5,31.5,44.5,31.5L44.5,31.5z"/>
			<path class="st10" d="M41.8,22.1c-0.2-4-2.6-4.7-6-5c-0.2,0-0.3,0.2-0.3,0.3C36.4,20.1,38.6,22.9,41.8,22.1L41.8,22.1z"/>
			<path class="st10" d="M47.9,18.9c1.1-3.5,5.3-6.6,8.6-4.3c0.1,0.1,0.1,0.2,0,0.3C54.8,16.3,49.4,21.9,47.9,18.9L47.9,18.9z"/>
			<path class="st10" d="M56.2,59.1c0,0,0.1,0,0.1,0c0.4-0.1,0.7-0.4,0.6-0.8c-0.5-3.4,0.5-7,1.5-9.7c0.7-1.9,1.5-4.1,2.9-6
				c1.4-1.9,3.2-3.2,5.1-3.6c0.4-0.1,0.6-0.5,0.5-0.9c-0.1-0.4-0.5-0.6-0.9-0.5c-2.2,0.5-4.3,2-5.9,4.2c-1.5,2-2.4,4.4-3.1,6.4
				c-1,2.9-2.1,6.7-1.6,10.4C55.5,58.8,55.8,59.1,56.2,59.1L56.2,59.1z"/>
			<path class="st10" d="M67.7,37c2.9-1.9,7-1.5,9.5,0.9c0.2,0.2,0.1,0.5-0.1,0.5c-2.9,0.9-6.2,0.7-9.4-0.7
				C67.5,37.6,67.4,37.1,67.7,37L67.7,37z"/>
			<path class="st10" d="M67.3,38.4c-0.4-0.1-0.7,0.3-0.6,0.6c0.6,1.3,1.2,2.7,2.1,3.8c1.1,1.4,2.6,2.5,4.3,2.7c0.1,0,0.2,0,0.3-0.1
				c0.1-0.1,0.1-0.3,0.1-0.5C72.8,41.9,70.3,39.3,67.3,38.4L67.3,38.4z"/>
			<path class="st13" d="M29.2,66.8c1.3-4.5,2.6-9.4,4.1-14.3c0.1-0.3,0.4-0.5,0.7-0.5c2.3,0.1,4.6,0.1,7,0.5c0.2,0,0.4,0.1,0.5,0.3
				c0.1,0.2,0.2,0.4,0.1,0.6c-1.2,5.7-2.9,10.6-5.2,15.2c-0.1,0.3-0.4,0.4-0.7,0.4c0,0-0.1,0-0.1,0c-2-0.3-3.9-0.7-5.9-1.2
				c-0.2-0.1-0.4-0.2-0.4-0.3C29.2,67.2,29.2,67,29.2,66.8L29.2,66.8z"/>
			<path class="st11" d="M50.2,63.2c0.2,0,0.3-0.1,0.5-0.2c2.1-1.6,4.2-2.2,5.8-1.6c0.4,0.1,0.8-0.1,0.9-0.4
				c0.1-0.4-0.1-0.8-0.4-0.9c-2.1-0.8-4.8-0.1-7.2,1.9c-0.3,0.3-0.4,0.7-0.1,1C49.8,63.1,50,63.2,50.2,63.2L50.2,63.2z"/>
			<path class="st7" d="M36.9,55c0.3,0,0.6-0.1,0.8-0.2c0.3-0.2,0.5-0.5,0.7-0.7c0.2-0.3,0.1-0.8-0.2-1c-0.3-0.2-0.8-0.2-1,0.2
				c-0.1,0.1-0.2,0.3-0.3,0.3c-0.1,0.1-0.3,0-0.4-0.2c-0.2-0.2-0.3-0.5-0.4-1c-0.2-1.4,0.7-4.5,1.2-5c0.3,0,0.6-0.3,0.7-0.7
				c0-0.4-0.3-0.8-0.7-0.8c-0.3,0-0.7,0-1.1,0.5c-1,1.1-1.9,4.7-1.6,6.2c0.1,0.5,0.2,1.2,0.7,1.8C35.8,54.8,36.4,55,36.9,55L36.9,55
				z"/>
			<path class="st14" d="M47.3,23.9c1.4-0.6,2.9-1.2,4.5-1.6c0.2-0.1,0.4,0,0.6,0.1c0.2,0.1,0.3,0.3,0.3,0.5c0.8,3.9,1,7.6,0.9,11.1
				c0,0.3-0.2,0.6-0.5,0.7c-1.3,0.4-2.7,0.7-4.1,0.9c0,0-0.1,0-0.1,0c-0.2,0-0.3-0.1-0.4-0.1c-0.2-0.1-0.3-0.3-0.3-0.5
				c-0.4-3.2-0.9-6.6-1.3-10.2C46.8,24.3,47,24,47.3,23.9L47.3,23.9z"/>
			<path class="st7" d="M48.7,25.9c0.6,0,1.2-0.4,1.4-0.9c0.1-0.3,0.1-0.6,0.1-0.8c0-0.4-0.4-0.7-0.8-0.7c-0.4,0-0.7,0.4-0.7,0.8
				c0,0,0,0.1,0,0.1c0,0,0,0-0.1,0c-0.1,0-0.3-0.1-0.5-0.3c-0.6-0.6-1.3-2.4-1.3-3c0.2-0.2,0.2-0.6,0.1-0.9c-0.2-0.3-0.7-0.5-1-0.2
				c-0.2,0.1-0.5,0.4-0.5,0.9c-0.1,1.2,1,3.5,1.8,4.3c0.3,0.3,0.7,0.6,1.3,0.7C48.5,25.9,48.6,25.9,48.7,25.9L48.7,25.9z"/>
			<path class="st15" d="M60.7,48.5c1.9-1.7,3.5-2.9,5-3.6c0.3-0.1,0.7-0.1,0.9,0.2c2.9,3.6,5.6,7.3,7.9,10.5c0.2,0.3,0.2,0.7,0,0.9
				c-1.7,2-4.2,2.8-6.5,3.4c-0.1,0-0.1,0-0.2,0c-0.2,0-0.4-0.1-0.6-0.3c-2.6-3.4-4.8-6.8-6.7-10.2C60.4,49.1,60.4,48.7,60.7,48.5
				L60.7,48.5z"/>
			<path class="st12" d="M62.5,48.6c0.5,0,1-0.1,1.4-0.4c0.3-0.2,0.5-0.7,0.2-1c-0.2-0.3-0.7-0.5-1-0.2c-0.9,0.6-2.1-0.3-2.5-0.7
				c-1.2-1.1-2-2.8-1.7-3.4c0.1-0.3,0.8-0.2,1-0.2c0.4,0.1,0.8-0.2,0.8-0.6c0.1-0.4-0.2-0.8-0.6-0.8c-1.7-0.2-2.3,0.6-2.6,1
				c-0.7,1.5,0.5,3.7,2,5.1C60.7,48.2,61.6,48.6,62.5,48.6L62.5,48.6z"/>
			<path class="st16" d="M15.9,36.1c-0.2-0.4-0.4-1-0.7-1.4c-0.3-0.4-0.9-0.3-1.1,0.2c-0.3,0.9,0.1,1.2-1.5,1.5
				c-0.9,0.2-0.3,0.7,0.3,1.1c0.3,0.2,0.4,0.5,0.3,0.8c-0.6,1.4-0.1,2,1.3,1.1c0.2-0.1,0.5-0.1,0.7,0c1.2,0.8,2.1,0.8,1.5-0.6
				c-0.1-0.3,0-0.6,0.2-0.8c0.6-0.4,1.1-1.3,0.1-1.4C16.5,36.4,16,36.4,15.9,36.1L15.9,36.1z"/>
			<path class="st16" d="M77.4,68.5c-0.2-0.4-0.4-1-0.7-1.4c-0.3-0.4-0.9-0.3-1.1,0.2c-0.3,0.9,0.1,1.2-1.5,1.5
				c-0.9,0.2-0.3,0.7,0.3,1.1c0.3,0.2,0.4,0.5,0.3,0.8c-0.6,1.4-0.1,2,1.3,1.1c0.2-0.1,0.5-0.1,0.7,0c1.2,0.8,2.1,0.8,1.5-0.6
				c-0.1-0.3,0-0.6,0.2-0.8c0.6-0.4,1.1-1.3,0.1-1.4C78,68.8,77.5,68.8,77.4,68.5L77.4,68.5z"/>
			<path class="st16" d="M40.7,33.9l0.3,4.3l-3.5-1.5L40.7,33.9z"/>
			<path class="st17" d="M42.2,31.7L41.6,36l-3.1-2.2L42.2,31.7z"/>
			<path class="st16" d="M60.5,56.8l4.3,2.3l-3.5,2.6L60.5,56.8z"/>
			<path class="st15" d="M43.1,29l0.3,4.3l-3.5-1.5L43.1,29z"/>
			<path class="st17" d="M59.2,53.5l3.7,3.2l-4,1.7L59.2,53.5z"/>
			<path class="st16" d="M57.1,51l4.3,2.3l-3.5,2.6L57.1,51z"/>
		</g>
	</g>
	<g>
		<defs>
			
				<rect id="SVGID_00000145774302418695999550000009750953906826861979_" x="16.5" y="80.5" transform="matrix(0.2765 -0.961 0.961 0.2765 -72.5986 97.5653)" width="24" height="33"/>
		</defs>
		<clipPath id="SVGID_00000152963956563498643410000016977361307475335065_">
			<use xlink:href="#SVGID_00000145774302418695999550000009750953906826861979_"  style="overflow:visible;"/>
		</clipPath>
		<g style="clip-path:url(#SVGID_00000152963956563498643410000016977361307475335065_);">
			<path class="st19" d="M22.1,83.1c-0.8-0.4-2-0.3-2.5,0.4c-0.2,0.3-0.4,0.6-0.6,0.9c-0.2,0.3-0.5,0.6-0.9,0.6
				c-0.3,0-0.7-0.2-1-0.2c-0.4,0-0.8,0.2-1,0.6c-0.2,0.3-0.2,0.8-0.1,1.2c0.2,0.9,0.8,1.7,1.7,2.1c0.8,0.5,1.9,0.6,2.8,0.3
				c0.8-0.3,1.6-0.7,2.2-1.3c0.6-0.6,1-1.5,0.9-2.3C23.4,84.4,22.9,83.5,22.1,83.1L22.1,83.1z"/>
			<path class="st19" d="M45.4,90.6c-0.4-0.1-0.8-0.1-1.2-0.1s-0.8-0.2-1.1-0.5c-0.3-0.4-0.2-1-0.6-1.3c-0.4-0.4-1.2-0.2-1.7,0.2
				c-1,0.7-2.7,2.4-0.7,4.7c1.5,1.8,6.4,3.1,6.9-1.6C47.1,91.3,46.1,90.8,45.4,90.6L45.4,90.6z"/>
			<path class="st20" d="M33.8,88.5c-0.6-0.2-1.3,0.2-1.5,0.8c-0.2,0.6,0.2,1.3,0.8,1.5c0.6,0.2,1.3-0.2,1.5-0.8
				C34.8,89.4,34.4,88.7,33.8,88.5z"/>
			<path class="st20" d="M29.3,87.2C28.6,87,28,87.4,27.8,88s0.2,1.3,0.8,1.5c0.6,0.2,1.3-0.2,1.5-0.8
				C30.3,88.1,29.9,87.4,29.3,87.2z"/>
			<path class="st20" d="M17.1,99.1C17.1,99,17.1,99,17.1,99.1c-0.1-0.2-0.2-0.6-0.4-0.8l0,0c0,0,0,0,0-0.1c0,0,0,0,0,0
				c0,0,0-0.1-0.1-0.1c0,0,0,0,0,0c0,0,0-0.1-0.1-0.1c0,0,0,0,0,0c-0.7-1.1-1.4-3.1-3-2.4c-0.7,0.5-2.4,0.6-2,1.7
				c0.7,0.9,1.8-0.3,2.7-0.5c0.6,0.8,1.2,2.1,2.3,2.6C16.5,99.2,17,99.2,17.1,99.1L17.1,99.1z"/>
			<path class="st20" d="M17.9,94.8c-1.2-2.4-2.1-3.7-5-1.8c-0.4,0.1-0.5,0.5-0.3,0.9c0.7,0.9,1.8-0.3,2.7-0.5
				c0.8,0.6,1.3,2.6,2.2,2.7c0,0,0.5-0.3,0.7-0.7C18.2,95.1,17.9,94.7,17.9,94.8L17.9,94.8z"/>
			<path class="st20" d="M37.9,101.4c0.6-0.2,1-0.4,1.5-0.5c0.5-0.2,1.1-0.5,1.7-0.7c0.7,0.6,0.9,1.8,1.6,2.1c0.5,0.2,1-0.4,0.7-0.9
				c-0.9-1.7-1.8-3.5-4.3-1.8c0,0-0.9,0.6-1.4,0.8C37.8,100.7,37.9,101.4,37.9,101.4L37.9,101.4z"/>
			<path class="st20" d="M42.1,108.8c-0.1-0.1-0.8-1.5-1.4-2.1c-0.8-0.8-1.4-0.2-3.3,0.3c-0.5,0.1-1.1,0.3-1.2,0.4
				c0,0.2-0.6,1.5,1.7,1c0.6-0.1,1.1-0.5,1.8-0.8c0.4,0.4,1,1.5,1.2,1.8c0.1,0.2,0.2,0.3,0.4,0.3c0.2,0,0.3,0,0.5,0
				C42.1,109.5,42.2,109.2,42.1,108.8L42.1,108.8z"/>
			<path class="st20" d="M38.1,104.9c0.2,0,0.4-0.1,0.5-0.1c0.2,0,0.4-0.1,0.6-0.1c0,0,0.7-0.3,1.2-0.5c0.2-0.1,0.4,0,0.5,0.1
				c0.3,0.4,0.8,1.1,1,1.6c0.1,0.1,0.2,0.2,0.4,0.3c0.2,0,0.3,0,0.5-0.1c0.3-0.2,0.4-0.6,0.2-0.9c-0.1-0.2-1-1.6-1.4-2.1
				c-0.4-0.4-1-0.5-1.6-0.3c-0.2,0.1-1.2,0.4-1.5,0.6c-0.2,0.1-0.4,0.1-0.5,0.2c-0.2,0-0.3,0.2-0.3,0.3
				C37.7,104.3,37.9,104.9,38.1,104.9L38.1,104.9z"/>
			<path class="st20" d="M15.8,102c0.2-0.2-0.2-0.9-0.6-1.3c-0.4-0.8-1-1.9-2.1-1.7c-1.4,0.5-3.8,1.3-2.3,2.2c0.8,0.1,1.7-0.9,2.6-1
				c0.7,0.5,1.1,2.5,2.2,2.3c0,0,0.2-0.4,0.2-0.4C15.7,102.2,15.8,102.1,15.8,102L15.8,102z"/>
			<path class="st19" d="M35,94.4c-2-1.4-4.4-2.2-6.7-2.6c-1.9-0.4-5.2-0.1-7,0.7c-1.8,0.8-2.6,1.8-3.9,3.4
				c-1.1,1.3-1.5,3.1-1.9,4.7c-0.3,1.6,0,3.4,1.1,4.6c1,1.2,2.6,1.6,4.1,2c3.5,0.9,7.1,1.9,10.6,2.8c1,0.3,2.1,0.5,3.1,0.1
				c0.9-0.4,1.5-1.2,2.1-2.1c1.4-2.3,2.6-4.9,2.3-7.6C38.6,98,37,95.8,35,94.4L35,94.4z"/>
		</g>
	</g>
	<g>
		<defs>
			
				<rect id="SVGID_00000044897713292653922950000011643044818408187530_" x="23.8" y="115.3" transform="matrix(0.9443 -0.3292 0.3292 0.9443 -42.6046 22.03)" width="40" height="43"/>
		</defs>
		<clipPath id="SVGID_00000065033667327720651900000002677493877606231715_">
			<use xlink:href="#SVGID_00000044897713292653922950000011643044818408187530_"  style="overflow:visible;"/>
		</clipPath>
		<g style="clip-path:url(#SVGID_00000065033667327720651900000002677493877606231715_);">
			<path class="st22" d="M29.2,119.1c-7.2,3.9-8.7,17.6-3.3,25.4c16.3,23.7,39.1,8.5,41.7-0.2L29.2,119.1z"/>
			<path class="st23" d="M30.3,119.9c-6.8,8.7-6.4,17.2-2.3,23.8c13.6,22.3,36.3,6,38.7,0.1L30.3,119.9z"/>
			<path class="st24" d="M65.4,143c-13.7-9.6-25.9-17.6-33.8-22.2c-7.2,9.4-7.7,22.7,6.9,31.2C50.2,156.8,60,150,65.4,143L65.4,143z
				"/>
			<path class="st25" d="M33.2,127.6c2.9-1,0.5,3.8-1,1.4C31.9,128.5,32.7,127.8,33.2,127.6z"/>
			<path class="st25" d="M40.5,131.1c2.9-1,0.5,3.8-1,1.4C39.2,132,39.9,131.3,40.5,131.1L40.5,131.1z"/>
			<path class="st25" d="M40.9,139.8c2.8-1.3,0.8,3.7-0.8,1.5C39.7,140.8,40.3,140,40.9,139.8z"/>
			<path class="st25" d="M47.7,136.4c2.1-2.3,2.2,3.1-0.2,1.7C47,137.8,47.3,136.8,47.7,136.4z"/>
			<path class="st25" d="M49,145.1c1.5-2.7,2.8,2.5,0.2,1.7C48.6,146.6,48.7,145.6,49,145.1z"/>
			<path class="st25" d="M43.4,148.2c2.1-2.3,2.2,3.1-0.2,1.7C42.7,149.6,43,148.6,43.4,148.2z"/>
			<path class="st25" d="M35.9,143.8c2.6-1.7,1.3,3.5-0.6,1.6C34.9,145,35.4,144.1,35.9,143.8z"/>
			<path class="st25" d="M32.2,136.8c2.8-1.2,0.8,3.7-0.9,1.5C31.1,137.8,31.7,137,32.2,136.8z"/>
			<path class="st25" d="M55.1,143c1.4-2.7,2.9,2.4,0.2,1.7C54.7,144.5,54.8,143.5,55.1,143z"/>
		</g>
	</g>
	<g>
		<defs>
			<rect id="SVGID_00000052789051890963791290000016013605247047619244_" x="106" y="6" width="56" height="50"/>
		</defs>
		<clipPath id="SVGID_00000124148250737037544530000014732876983127940284_">
			<use xlink:href="#SVGID_00000052789051890963791290000016013605247047619244_"  style="overflow:visible;"/>
		</clipPath>
		<g style="clip-path:url(#SVGID_00000124148250737037544530000014732876983127940284_);">
			<path class="st27" d="M125.5,50.8c0-0.1,0-0.3,0-0.4c0-1.4-0.5-2.7-1.3-3.6c-0.9-0.9-2.1-1.3-3.3-1.1c-0.5-1.5-1.9-2.6-3.5-2.8
				c-1.7-0.2-4,1.2-4.6,1.7c-0.3,0.2-0.6,0.6-0.6,1.1c0,0.4,0.1,0.8,0.5,1.1c0.1,0.1,0.2,0.1,0.3,0.2c0.3,0.2,0.5,0.4,0.7,0.7
				c-0.9,1.5-1.5,3.2-1.7,5c0,0.4-0.1,0.9,0.1,1.3c0.2,0.7,0.8,1.4,1.5,1.7c0.5,0.2,1,0.3,1.6,0.4c0.2,0,0.4,0,0.5,0
				c2.4-0.1,4.6-1.2,6.6-2.3c0.1,0,0.1,0.1,0.2,0.1c0.5,0.3,1.2,0.7,1.9,0.3C125.5,53.5,125.5,52,125.5,50.8L125.5,50.8z"/>
			<path class="st12" d="M117.2,51.4c-0.1,0-0.1,0-0.2,0c-0.2-0.1-0.3-0.4-0.2-0.6c0.9-2,2.2-3.8,3.8-5.2c0.2-0.2,0.5-0.2,0.6,0
				c0.2,0.2,0.2,0.5,0,0.6c-1.5,1.4-2.7,3.1-3.6,4.9C117.5,51.3,117.4,51.4,117.2,51.4L117.2,51.4z"/>
			<path class="st12" d="M120.5,51.6c-0.2,0-0.4-0.2-0.4-0.5c0-1.2-0.3-2.3-0.8-3.4c-1.1-0.1-2.2,0.3-3.1,1
				c-0.2,0.2-0.5,0.1-0.6-0.1c-0.2-0.2-0.1-0.5,0.1-0.6c1.1-0.9,2.6-1.3,4-1.2l0.3,0l0.1,0.2c0.5,1.3,1,2.6,1,4.1
				C121,51.4,120.8,51.6,120.5,51.6C120.5,51.6,120.5,51.6,120.5,51.6L120.5,51.6z"/>
			<path class="st12" d="M120.7,46.3c-0.1,0-0.1-0.1-0.2-0.1c-0.2-0.2-0.2-0.5,0-0.6c0.6-0.6,1.3-1,2-1.1c0.8-0.1,1.7,0.2,2.2,0.7
				c0.2,0.2,0.2,0.5,0,0.6c-0.2,0.2-0.5,0.2-0.6,0c-0.3-0.4-0.9-0.5-1.4-0.5c-0.5,0.1-1,0.3-1.4,0.8C121,46.3,120.8,46.4,120.7,46.3
				L120.7,46.3z"/>
			<path class="st2" d="M121.7,38.6c-8.7,0-15.7-6.2-15.7-13.8S113,11,121.7,11c8.7,0,15.7,6.2,15.7,13.8S130.4,38.6,121.7,38.6z"/>
			<path class="st28" d="M112.8,25.6c3.1-1,5.3-4.1,5.2-7.3c0-0.2,0.3-0.3,0.4-0.2c2,2.4,6.1,3.6,9.1,2.3c0.2-0.1,0.4,0.1,0.3,0.3
				c-1.5,2.3-1.1,5.4,0.5,7.7c0.1,0.2,0,0.4-0.3,0.4c-3-0.7-6,0.5-8,3c-0.1,0.2-0.4,0.1-0.4-0.1c-0.6-3-4.4-4.7-6.9-5.7
				C112.6,26,112.6,25.7,112.8,25.6L112.8,25.6z"/>
			<path class="st29" d="M141.1,51.1c-5.5,0-9.9-3.7-9.9-8.3c0-4.6,4.4-8.3,9.9-8.3s9.9,3.7,9.9,8.3C151,47.4,146.5,51.1,141.1,51.1
				z"/>
			<path class="st30" d="M136.5,42c1.9-0.1,3.5-1.6,3.8-3.5c0-0.1,0.2-0.1,0.2,0c0.8,1.6,3,2.8,4.8,2.4c0.1,0,0.2,0.1,0.1,0.2
				c-1.2,1.1-1.4,2.9-0.7,4.4c0,0.1-0.1,0.2-0.1,0.1c-1.6-0.8-3.4-0.5-4.8,0.7c-0.1,0.1-0.2,0-0.2-0.1c0.1-1.8-1.8-3.2-3.1-4
				C136.4,42.2,136.4,42,136.5,42L136.5,42z"/>
			<path class="st12" d="M142.5,28.7c0.1,0.1,0.3,0.1,0.4,0.1c2.2-0.5,4.1-2.1,5-4.1c0.1,0,0.1,0,0.2,0c1.1,0,2.2-0.7,3-2
				c0.5-0.9,0.9-1.9,1-2.9c0.6-0.4,1.1-0.9,1.5-1.5c2.5-3.7,2-9-1.3-12.1c-0.2-0.2-0.6-0.2-0.9,0c-0.2,0.2-0.2,0.6,0,0.9
				c2.8,2.7,3.3,7.4,1.1,10.6c-0.1,0.2-0.3,0.4-0.5,0.6c0-0.4-0.1-0.8-0.2-1.1c-0.1-0.5-0.3-1.2-0.9-1.6c-0.6-0.5-1.6-0.6-2.2,0
				c-0.3,0.3-0.4,0.6-0.5,0.9c-0.4,1.4-0.1,3.1,1.3,3.8c0.4,0.2,0.7,0.2,1.1,0.2c-0.1,0.6-0.4,1.3-0.7,1.8c-0.2,0.4-0.9,1.3-1.7,1.4
				c0.1-0.3,0.1-0.6,0.1-1c0-0.2,0-0.8-0.4-1.2c-0.2-0.2-0.6-0.3-0.9-0.3c-0.4,0.1-0.8,0.3-1,0.6c-0.4,0.5-0.4,1.2,0,1.8
				c0.2,0.3,0.4,0.5,0.6,0.7c-0.7,1.7-2.3,3-4.1,3.4c-0.3,0.1-0.5,0.4-0.5,0.7C142.3,28.5,142.4,28.6,142.5,28.7L142.5,28.7z
				 M147.2,22.3c0,0,0,0.1,0,0.1c0,0.1,0,0.3,0,0.4C147.1,22.7,147.1,22.5,147.2,22.3C147.2,22.3,147.2,22.3,147.2,22.3L147.2,22.3z
				 M151,18.9c-0.3,0.1-0.5,0.1-0.8,0c-0.7-0.3-0.9-1.4-0.6-2.3c0-0.1,0.1-0.3,0.2-0.4c0.1-0.1,0.4-0.1,0.6,0.1
				c0.2,0.2,0.4,0.5,0.5,1C150.9,17.8,151,18.4,151,18.9L151,18.9z"/>
			<path class="st31" d="M153.3,35.9c1.3,0.4,2.7,0.2,3.9-0.4c1.2-0.6,2.2-1.6,3-2.7c0.9-1.2,1.7-2.6,1.7-4.1c0-0.7-0.1-1.6-0.7-2
				c-0.5-0.4-1.2-0.4-1.9-0.3c-2.3,0.3-4.6,1.2-6.1,3C151.9,31.2,151.6,34,153.3,35.9L153.3,35.9z"/>
			<path class="st32" d="M156.5,29.5c1.4,0.8,3.3,1.5,4.9,0.9c0.3-0.1,0.5-0.5,0.3-0.8c-0.1-0.3-0.5-0.5-0.8-0.3
				c-1.1,0.4-2.9-0.1-5.2-1.6c-0.3-0.2-0.7-0.1-0.8,0.2c-0.2,0.3-0.1,0.7,0.2,0.8C155.4,28.9,155.9,29.2,156.5,29.5L156.5,29.5z"/>
			<path class="st32" d="M155.3,32.5c1.3,0.7,2.7,0.9,4.5,0.7c0.3,0,0.6-0.3,0.5-0.7c0-0.3-0.3-0.6-0.7-0.5
				c-2.4,0.3-3.9-0.3-5.7-2.1c-0.2-0.2-0.6-0.2-0.9,0c-0.2,0.2-0.2,0.6,0,0.9C153.8,31.5,154.5,32.1,155.3,32.5L155.3,32.5z"/>
			<path class="st33" d="M152.4,36.8c0.9,0.5,2,0.5,2.8-0.2c0.3-0.3,0.6-0.7,0.4-1.1c-0.3-0.5-1.1-0.2-1.6-0.5
				c0.1-0.3,0.3-0.6,0.2-0.9c0-0.3-0.2-0.7-0.5-0.8c-0.4-0.1-0.8,0.2-1.1,0.6c-0.1-0.3-0.1-0.7-0.1-1c-0.1-0.3-0.3-0.7-0.6-0.7
				c-0.2,0-0.3,0-0.5,0.1c-1,0.4-1.3,1.7-0.9,2.7C150.9,36,151.9,36.7,152.4,36.8L152.4,36.8z"/>
		</g>
	</g>
	<path class="st34" d="M57.8,59c3.3,0,22-0.4,22-0.4v2.7c-5.8,0.2-15,0.2-15,0.2C63.7,69,64,77.3,64.4,81.9
		c3.6,0.4,40.7-0.1,40.7-0.1c0.3-2.1,0.2-20.3,0.2-20.3c-5.3-0.1-16-0.3-16-0.3l0.3-3c1,0,21.2,0.5,21.2,0.5v-7.3
		c-7.6,0.4-53.2,0.3-53.2,0.3L57.8,59z M92.7,78.3c0,0-11.1,0.4-17.3,0.2l0.3-1.5h17.2L92.7,78.3z M74.8,73.7l0.1-2.1
		c0,0,13.9-0.1,18-0.1v2.2C92.9,73.7,78.1,73.8,74.8,73.7z M93.5,66.2l-0.2,2c0,0-12.9,0-18.7,0l-0.2-1.8
		C74.5,66.3,88.6,66.2,93.5,66.2z M109.5,108.3c-7.6-0.1-18.4-5.3-18.4-5.3c5.2-5.2,7.1-13.8,7.1-13.8c-4.8,0.6-16.2,0.5-16.2,0.5
		l2.7-4.4l-10.1-1.9c-1.4,5-7.8,12.7-15.3,17c8.9,0.3,15-3.4,15-3.4c0.9,2.1,5.1,6.9,5.1,6.9c-4.8,6.7-18.1,12.8-18.1,12.8
		c13.7,1.3,24.2-8.3,24.2-8.3c3.4,2.9,16.9,10.7,16.9,10.7L109.5,108.3z M84.7,97.8c0,0-3.1-2-3.9-3.4l6.2,0.2
		C87,94.6,86.2,96.4,84.7,97.8z"/>
	<path class="st35" d="M57.8,63c-2.2,0-3.9-1.7-4-3.9l-0.3-7.2c0-1.1,0.4-2.1,1.1-2.9c0.8-0.8,1.8-1.2,2.9-1.2l0,4l0.3,7.2
		c0.7,0,2.1,0,3.9-0.1c1,0,2,0,3.2-0.1l0,0c3.7-0.1,7.9-0.2,11-0.2c2.1,0,3.6-0.1,3.9-0.1c0.1,0,0.1,0,0.1,0v2.7
		c-5.8,0.2-15,0.2-15,0.2c-0.1,0.5-0.1,1-0.2,1.5c-0.9,7.2-0.6,14.7-0.2,19.1c0.8,0.1,3.1,0.1,6.4,0.2c0.9,0,1.9,0,2.9,0
		c0.4,0,0.7,0,1.1,0c0.2,0,0.3,0,0.5,0c3.1,0,6.5,0,10,0c0.6,0,1.2,0,1.7,0c2,0,4,0,5.9-0.1c0,0,0,0,0,0c0.5,0,1,0,1.5,0
		c6.1-0.1,10.8-0.1,10.8-0.1c0.1,4,0.1,4,0.1,4l0,0l-0.4,0c-0.3,0-0.7,0-1.2,0c-0.8,0-1.8,0-3.1,0c0.2,0.2,0.4,0.3,0.6,0.6
		c0.9,1,1.2,2.3,1,3.5l-3.9-0.9c-1.1,0.1-2.6,0.2-4.2,0.3c-2.4,0.1-5.1,0.2-7.3,0.2c-2.7,0-4.7,0-4.7,0l2.7-4.4l-10.1-1.9
		c-0.2,0.8-0.6,1.7-1.1,2.7c-1.6,3.1-4.5,6.7-8,9.8c-1.9,1.7-4,3.2-6.2,4.5c3,0.1,5.8-0.3,8-0.8c1.3-0.3,2.4-0.6,3.4-1
		c2.3-0.8,3.7-1.6,3.7-1.6c0.2,0.5,0.6,1.2,1.1,1.9c1.5,2.2,4,5,4,5c-2.2,3-6.1,6-9.8,8.2c-4.4,2.8-8.4,4.6-8.4,4.6
		c3.6,0.3,7-0.1,10-0.9c8.5-2.2,14.2-7.4,14.2-7.4c3.4,2.9,16.9,10.7,16.9,10.7c-2,3.5-2,3.5-2,3.5l0,0l0,0l-0.1-0.1
		c-0.1-0.1-0.2-0.1-0.4-0.3c-0.4-0.2-0.9-0.5-1.6-0.9c-1.3-0.8-3.1-1.8-5-3c-2.5-1.5-5.4-3.3-7.6-4.8c-1.3,0.9-3.1,2.1-5.2,3.1
		c-4.7,2.4-11.6,4.8-19.4,4.1c-1.8-0.2-3.3-1.5-3.6-3.3c-0.3-1.8,0.6-3.6,2.3-4.3h0l0,0l0.1,0c0.1,0,0.2-0.1,0.4-0.2
		c0.3-0.2,0.9-0.4,1.5-0.7c1.3-0.6,3-1.6,4.9-2.7c2.8-1.7,5.6-3.6,7.7-5.6c0,0-0.1-0.1-0.1-0.1c-0.4-0.5-0.8-1.1-1.2-1.6
		c-0.4,0.2-0.9,0.3-1.4,0.5c-3,1-7.2,1.9-12.2,1.8c-1.8-0.1-3.3-1.3-3.8-3c-0.4-1.7,0.3-3.6,1.9-4.4c3.3-1.9,6.5-4.6,8.9-7.4
		c1.1-1.2,1.9-2.4,2.6-3.4c-2.3,0-4.1-0.1-4.9-0.2c-1.9-0.2-3.4-1.8-3.5-3.7c-0.3-4.3-0.7-11.9,0.2-19.3C59.3,62.9,58.3,63,57.8,63z
		 M102.2,119.2l-2,3.5c1.8,1.1,4.2,0.5,5.3-1.2l7.2-10.8c0.8-1.2,0.9-2.8,0.2-4.1c-0.7-1.3-2-2.1-3.5-2.1c-3.1,0-7.1-1.2-10.7-2.5
		c-0.5-0.2-1-0.3-1.4-0.5c1.2-2,2.2-4,2.9-5.7c0.6-1.6,1.1-2.9,1.3-3.9c0.1-0.5,0.2-0.9,0.3-1.2c0-0.1,0.1-0.3,0.1-0.3
		c0,0,0-0.1,0-0.1l0,0l0,0l0,0c0,0,0,0-3.9-0.9c0,0-0.4,1.7-1.3,4.1c-0.7,1.9-1.8,4.3-3.2,6.5c-0.7,1.1-1.6,2.2-2.6,3.2
		c0,0,1.6,0.8,3.9,1.7c2.7,1.1,6.4,2.4,10.1,3.1c1.5,0.3,3.1,0.5,4.5,0.5L102.2,119.2z M80.8,94.4c0.8,1.5,3.9,3.4,3.9,3.4
		c1.5-1.4,2.3-3.3,2.3-3.3L80.8,94.4z M105.2,62.6c0,4,0,17.4-0.2,19.2l0.1,4c2,0,3.7-1.5,3.9-3.5c0.1-0.8,0.1-2.6,0.2-4.5
		c0-2,0-4.5,0-6.9c0-2.4,0-4.8,0-6.5c0-0.6,0-1.2,0-1.6l1.4,0c0,0,0,0,0.1-4l-0.1,4c1.1,0,2.1-0.4,2.9-1.1c0.8-0.8,1.2-1.8,1.2-2.9
		v-7.3c0-1.1-0.5-2.2-1.3-2.9c-0.8-0.8-1.9-1.1-3-1.1c-3.6,0.2-16.8,0.3-29.2,0.3c-6.2,0-12.1,0-16.5,0c-2.2,0-4,0-5.3,0
		c-0.6,0-1.1,0-1.5,0l-0.5,0c0,0,0,0,0,4c0,0,1.5,0,4,0c9.7,0,34.5,0.1,45.2-0.1c1.8,0,3.1-0.1,4-0.1v7.3c0,0-1,0-2.7-0.1
		c-0.4,0-0.9,0-1.3,0c-0.5,0-0.9,0-1.5,0c-6-0.2-15-0.4-15.7-0.4l-0.3,3l16,0.3C105.2,61.5,105.2,61.9,105.2,62.6z M74.9,72.2
		l-0.1,1.5c0,0,0.1,0,0.1,0c0.1,0,0.3,0,0.4,0c0.1,0,0.2,0,0.4,0c0.8,0,1.9,0,3.1,0c5.5,0,14.1-0.1,14.1-0.1v-2.2 M89.4,66.2
		c1.5,0,2.9,0,3.8,0c0.1,0,0.1,0,0.2,0l-0.2,2H74.6l-0.2-1.8c0,0,0.1,0,0.2,0c0.5,0,1.9,0,3.8,0C81.6,66.3,86,66.2,89.4,66.2z
		 M74.9,71.6C74.9,71.6,74.9,71.6,74.9,71.6l0,0.6 M88.9,71.5c1.6,0,3.1,0,4,0L88.9,71.5z M74.9,71.6c0.5,0,8.5-0.1,14-0.1
		L74.9,71.6z M75.4,78.5c0.1,0,0.2,0,0.3,0c1.1,0,2.4,0.1,3.8,0.1c6,0,13.2-0.3,13.2-0.3l0.2-1.4H75.7L75.4,78.5z"/>
</g>
</svg>
