<svg width="64" height="64" viewBox="0 0 64 64" fill="none" xmlns="http://www.w3.org/2000/svg">
<path d="M32.0002 5.33337C26.726 5.33337 21.5703 6.89735 17.185 9.82752C12.7997 12.7577 9.38172 16.9225 7.36339 21.7951C5.34505 26.6678 4.81696 32.0296 5.8459 37.2024C6.87484 42.3753 9.41459 47.1268 13.144 50.8562C16.8734 54.5856 21.6249 57.1254 26.7978 58.1543C31.9706 59.1833 37.3324 58.6552 42.2051 56.6368C47.0778 54.6185 51.2425 51.2006 54.1727 46.8152C57.1029 42.4299 58.6668 37.2742 58.6668 32C58.6668 28.4981 57.9771 25.0305 56.637 21.7951C55.2968 18.5598 53.3326 15.6201 50.8564 13.1439C48.3801 10.6676 45.4404 8.70338 42.2051 7.36325C38.9697 6.02313 35.5021 5.33337 32.0002 5.33337ZM32.0002 53.3334C27.7808 53.3334 23.6563 52.0822 20.148 49.7381C16.6398 47.3939 13.9054 44.0621 12.2907 40.164C10.6761 36.2658 10.2536 31.9764 11.0768 27.8381C11.8999 23.6999 13.9317 19.8986 16.9152 16.9151C19.8988 13.9316 23.7 11.8998 27.8382 11.0766C31.9765 10.2535 36.2659 10.6759 40.1641 12.2906C44.0622 13.9053 47.3941 16.6396 49.7382 20.1479C52.0823 23.6561 53.3335 27.7807 53.3335 32C53.3335 37.658 51.0859 43.0842 47.0851 47.085C43.0843 51.0858 37.6581 53.3334 32.0002 53.3334Z" fill="white"/>
<path d="M40.0002 29.3334H34.6668V24C34.6668 23.2928 34.3859 22.6145 33.8858 22.1144C33.3857 21.6143 32.7074 21.3334 32.0002 21.3334C31.2929 21.3334 30.6146 21.6143 30.1145 22.1144C29.6144 22.6145 29.3335 23.2928 29.3335 24V29.3334H24.0002C23.2929 29.3334 22.6146 29.6143 22.1145 30.1144C21.6144 30.6145 21.3335 31.2928 21.3335 32C21.3335 32.7073 21.6144 33.3856 22.1145 33.8857C22.6146 34.3858 23.2929 34.6667 24.0002 34.6667H29.3335V40C29.3335 40.7073 29.6144 41.3856 30.1145 41.8857C30.6146 42.3858 31.2929 42.6667 32.0002 42.6667C32.7074 42.6667 33.3857 42.3858 33.8858 41.8857C34.3859 41.3856 34.6668 40.7073 34.6668 40V34.6667H40.0002C40.7074 34.6667 41.3857 34.3858 41.8858 33.8857C42.3859 33.3856 42.6668 32.7073 42.6668 32C42.6668 31.2928 42.3859 30.6145 41.8858 30.1144C41.3857 29.6143 40.7074 29.3334 40.0002 29.3334Z" fill="white"/>
</svg>
